<?xml version="1.0" encoding="UTF-8"?><svg xmlns="http://www.w3.org/2000/svg" viewBox="0 0 1080 614.71"><defs><style>.d{fill:#fff;}.e{fill:none;}.f{fill:#5535aa;}</style></defs><g id="a"/><g id="b"><g id="c"><g><g><path class="d" d="M257.8,202.3c4.35,7.5,3.23,17.3-1.06,24.84-4.3,7.54-11.32,13.14-18.68,17.73-22.43,13.99-49.67,20.11-75.94,17.06-19.1-5.18-19.58-29.11-16.13-44.29,8.36-36.76,32.28-71.31,64.43-91,2.7-4.06,5.46-8.18,9.26-11.23s8.87-4.91,13.6-3.73c7.24,1.81,11.02,9.62,13.44,16.67,7.75,22.67,11.97,50.02,11.08,73.96Z"/><path class="f" d="M255.64,203.56c3.35,5.91,2.95,13.14,.44,19.29-2.6,6.34-7.65,11.53-13.04,15.6-11.75,8.88-25.82,14.96-40.08,18.43-7.19,1.75-14.52,2.82-21.91,3.17-3.73,.18-7.47,.18-11.2,0-3.26-.16-6.74-.19-9.72-1.42-9.08-3.76-12.58-13.61-13.18-22.85-.16-2.52-.15-5.06,.01-7.58s.4-4.51,.81-6.83c1.08-6.09,2.86-12.09,4.88-17.92,4.43-12.77,10.71-24.89,18.44-35.98,7.72-11.06,17.01-21.07,27.53-29.52,2.55-2.04,5.18-3.98,7.88-5.82,1.43-.98,2.89-1.92,4.36-2.84,.88-.55,1.49-1.07,2.07-1.94s1.12-1.67,1.69-2.5c3.79-5.46,9.17-11.47,16.47-11.02,6.07,.37,9.68,6.44,11.81,11.43,2.76,6.48,4.57,13.49,6.25,20.31,3.69,14.98,5.84,30.38,6.21,45.81,.09,3.64,.07,7.28-.06,10.91-.12,3.22,4.88,3.21,5,0,.65-18.16-1.4-36.47-5.41-54.17-1.89-8.34-4.06-16.86-7.4-24.75-2.97-7.03-7.96-13.89-16.19-14.53-10.69-.83-17.8,8.66-23.04,16.52l.9-.9c-17.63,10.83-32.54,25.74-44.03,42.9-5.78,8.63-10.63,17.85-14.55,27.47-3.53,8.65-6.55,17.81-7.93,27.08-2.15,14.45-.58,34.06,14.7,40.92,.94,.42,1.9,.81,2.88,1.13,1.38,.45,2.8,.56,4.24,.7,2.79,.27,5.59,.43,8.39,.49,5.74,.13,11.5-.17,17.2-.88,11.45-1.43,22.59-4.4,33.21-8.92,18.52-7.89,43.38-23.18,39.38-46.87-.44-2.62-1.38-5.15-2.69-7.46-1.59-2.8-5.91-.28-4.32,2.52Z"/></g><path class="f" d="M242.11,245.3c2.97-.61,7.03-1.58,9.57,.7,.78,.69,1.37,1.88,1.03,2.93-.37,1.16-1.65,1.72-2.74,1.98-1.77,.42-3.74,.21-5.53,.07s-3.59-.47-5.36-.82c-3.91-.77-7.79-1.65-11.77-1.9-3.21-.2-3.2,4.8,0,5,4.79,.3,9.41,1.68,14.14,2.37s10.18,1.32,13.95-2.01c3.53-3.12,2.87-8.67-.63-11.52-4.04-3.29-9.25-2.58-13.99-1.61-1.32,.27-2.09,1.83-1.75,3.08,.38,1.37,1.75,2.02,3.08,1.75h0Z"/><path class="f" d="M211.95,170.15c3.22,0,3.22-5,0-5s-3.22,5,0,5h0Z"/><path class="f" d="M233.65,164.27c3.22,0,3.22-5,0-5s-3.22,5,0,5h0Z"/><path class="f" d="M224.21,172.44c3.22,0,3.22-5,0-5s-3.22,5,0,5h0Z"/><path class="f" d="M259.37,187.23l6.13-6.13c.93-.93,1-2.62,0-3.54s-2.55-.99-3.54,0l-6.13,6.13c-.93,.93-1,2.62,0,3.54s2.55,.99,3.54,0h0Z"/><path class="f" d="M161.73,190.99c.3-.2,.34-.23,.12-.09,.35-.13,.39-.16,.13-.09,.39-.04,.44-.06,.16-.06l.32,.04c-.11-.02-.22-.05-.33-.09,.34,.15,.38,.16,.12,.01-.45-.46,.33,.4-.1-.09-.17-.19-.39-.36-.52-.58,.3,.5-.02-.03-.08-.12-.14-.19-.28-.37-.42-.56-.89-1.17-1.82-2.31-2.76-3.44s-1.93-2.33-2.89-3.5c-.43-.52-.85-1.04-1.27-1.57-.17-.21-.33-.42-.49-.63-.14-.18,.43,.56,.09,.12-.08-.1-.15-.2-.23-.31-.77-1.05-2.2-1.68-3.42-.9-1.04,.67-1.73,2.29-.9,3.42,1.91,2.59,4.03,5.02,6.07,7.5,.48,.59,.96,1.17,1.43,1.77,.1,.13,.2,.25,.3,.38,.26,.33-.38-.5-.12-.16,.21,.29,.43,.57,.64,.86,.89,1.18,1.91,2.24,3.38,2.66s3.16,.06,4.3-1.05c.94-.91,.99-2.63,0-3.54s-2.53-.97-3.54,0h0Z"/><g><path class="d" d="M263.78,168.93c.13,6.37,.73,12.74,1.79,19.02,.14,.83,.32,1.71,.91,2.31,.76,.75,1.96,.8,3.03,.78,3.7-.09,7.4-.48,11.04-1.16,.86-.16,1.86-.45,2.16-1.28,.14-.38,.09-.8,.05-1.2l-.71-6.17-1.56-13.51c-.07-.57-.16-1.2-.61-1.56-.31-.25-.71-.31-1.1-.36-4.92-.63-10.34,1.4-14.99,3.13"/><path class="f" d="M261.28,168.93c.14,6.19,.71,12.36,1.68,18.48,.44,2.76,1.31,5.39,4.43,5.97,2.83,.53,6.04,0,8.86-.34,2.56-.31,6.24-.3,8.09-2.39,1.01-1.14,1.01-2.54,.84-3.97l-.52-4.51-1.06-9.15-.5-4.34c-.18-1.54-.24-3.16-1.45-4.29s-3.02-1.19-4.57-1.21-3.23,.19-4.8,.5c-3.14,.6-6.16,1.73-9.15,2.84-1.27,.47-2.13,1.69-1.75,3.08,.33,1.22,1.8,2.22,3.08,1.75,4.02-1.49,8.26-3.22,12.62-3.16,.35,0,1.05,.21,1.36,.08s-.49-.49-.45-.55c0-.01,.07,.49,.07,.5,.17,1.28,.3,2.57,.45,3.86l.84,7.24,.83,7.15c.03,.28,.02,.69,.11,.95,0,.02,.1,.87,.19,.18,.06-.43,.27-.19-.24-.18-1.13,.01-2.36,.43-3.48,.58-2.39,.32-4.81,.52-7.22,.55-.34,0-1.05,.13-1.29-.11-.17-.17-.21-.93-.24-1.14-.11-.64-.21-1.29-.31-1.94-.83-5.43-1.26-10.93-1.38-16.42-.07-3.21-5.07-3.22-5,0h0Z"/></g><path class="f" d="M285.17,169.18l-1.49-13.7c-.14-1.3-1.05-2.56-2.5-2.5-1.23,.06-2.65,1.11-2.5,2.5l1.49,13.7c.14,1.3,1.05,2.56,2.5,2.5,1.23-.06,2.65-1.11,2.5-2.5h0Z"/><path class="f" d="M217.94,256.78c2.05,1.11,4.37,2.24,5.79,4.16,1,1.34,1.69,3.57,.34,4.91-1.14,1.13-3.06,1.2-4.52,.78-2.41-.68-4.36-2.49-6.19-4.1-1.54-1.36-4.34-.52-4.27,1.77,.11,3.29-2.42,6.6-5.82,6.91-3.59,.32-6.58-2.64-7.06-6.03-.26-1.86-3.02-2.39-4.18-1.1-2.8,3.13-6.44,7.45-11.17,6.76-1.75-.25-2.91-1.24-3.25-2.63-.31-1.26,.07-2.4,1.16-2.94,1.21-.59,1.54-2.32,.9-3.42-.72-1.24-2.2-1.49-3.42-.9-2.6,1.27-3.91,4.26-3.69,7.06,.26,3.29,2.24,5.9,5.29,7.13,7.1,2.87,13.33-2.63,17.72-7.54l-4.18-1.1c.8,5.65,6.53,10.23,12.23,9.67,5.9-.58,10.67-5.93,10.47-11.88l-4.27,1.77c2.63,2.33,5.51,4.83,9.05,5.55,3.11,.63,6.75-.02,8.95-2.47,2.5-2.78,2.42-6.76,.72-9.92s-5.01-5.1-8.09-6.76c-2.83-1.53-5.36,2.79-2.52,4.32h0Z"/><path class="f" d="M169.04,261.55c-2.36,2.17-5.03,3.93-7.94,5.26-1.38,.63-2.84,1.1-4.3,1.48-1.35,.35-2.95,.8-4.32,.36-.67-.22-1.47-.8-1.49-1.64-.01-.52,.24-1.05,.56-1.45,.15-.18,.32-.32,.48-.49,.08-.08,.52-.42,.1-.1,1.65-1.27,3.47-2.45,5.32-3.41,2.86-1.48,.33-5.8-2.52-4.32-4.15,2.15-9.95,5.61-8.79,11.12,.74,3.5,4.26,5.49,7.64,5.44s6.67-1.27,9.67-2.6c3.36-1.5,6.42-3.63,9.12-6.11,2.37-2.18-1.17-5.71-3.54-3.54h0Z"/></g><rect class="e" width="1080" height="614.71"/></g></g></svg>