<?xml version="1.0" encoding="UTF-8"?><svg xmlns="http://www.w3.org/2000/svg" viewBox="0 0 1080 614.71"><defs><style>.d{fill:#fff;}.e{fill:none;}.f{fill:#5535aa;}</style></defs><g id="a"/><g id="b"><g id="c"><g><g><path class="d" d="M676.11,282.58c-3.93,.48-7.03,5.2-6.32,9.62s5.08,7.59,8.9,6.46c0,0,171.42-8.37,189.61-16.08,18.19-7.71,17.23-19.04,7.5-33.55,6.56-28.68,5.02-57.55-8.21-83.83,13.97-17.34,20.37-40.57,17.27-62.62-3.1-22.05-15.67-42.61-33.88-55.43,11.54-.29,18.84-10.52,16.76-21.88-2.08-11.36-14.05-19.19-25.57-18.43-14.4,.95-23.29,15.45-25.79,26.73-83.54-21.36-176.09-4.4-246.62,45.21,3.67-7.56,5.73-14.29,6.35-22.67,.61-8.38-2.61-17.61-9.95-21.7-8.45-4.71-19.29-1.23-27.05,4.55-17.63,13.12-25.37,38.1-18.24,58.9-13.7,18.38-27.37,39.14-29.04,62.01s9.83,47.99,31.37,55.85c-10.9,24.38-13.61,48.34-12.85,75.03-6.48,0-8.99,3.79-9.81,7.26-.82,3.47,1.86,7,5.15,8.39,3.29,1.39,7,1.17,10.56,.93,51.72-3.5,103.44-7,155.16-10.49"/><path class="f" d="M675.45,280.17c-7.94,1.33-10.54,11.98-5.65,17.69,1.06,1.24,2.41,2.21,3.92,2.83,.83,.34,1.65,.55,2.55,.65,.41,.04,.8,.06,1.21,.04,.25-.01,1.6-.25,1.21-.21,.16-.02,.33-.01,.49-.02,3.4-.28,6.83-.35,10.24-.52,16.41-.86,32.82-1.79,49.22-2.8,21.45-1.32,42.9-2.75,64.32-4.47,17.56-1.41,35.18-2.83,52.61-5.45,4.36-.66,9-1.2,13.14-2.8,5.74-2.23,11.98-5.91,14.8-11.65,2.62-5.33,1.75-11.22-.48-16.52-1.36-3.23-3.12-6.24-5.06-9.15l.25,1.93c6.54-28.86,4.89-59.02-8.47-85.75l-.39,3.03c11.54-14.46,18.19-32.44,18.73-50.95s-4.91-35.4-15-49.95c-5.69-8.2-12.71-15.3-20.85-21.08l-1.26,4.66c7.56-.29,14.44-4.4,17.63-11.39s2.43-15.73-2.03-22.14-12.07-10.77-20.02-11.66-15.2,2.02-20.85,7.3c-5.93,5.54-9.95,13.28-11.74,21.15l3.08-1.75c-32.92-8.38-67.25-10.96-101.07-7.9-33.65,3.05-66.7,11.55-97.6,25.21-17.49,7.74-34.22,17.16-49.88,28.14l3.42,3.42c4.61-9.6,8.19-20.91,6.21-31.65-1.81-9.88-9.08-17.94-19.42-18.64-10.27-.69-20.15,5.34-27.07,12.43-6.65,6.8-11.41,15.41-13.9,24.58-2.82,10.37-2.72,21.55,.71,31.76l.25-1.93c-12.31,16.55-24.55,34.61-28.35,55.28-3.11,16.93,.16,35.36,10.41,49.41,5.55,7.62,12.9,13.53,21.76,16.83l-1.49-3.67c-5.29,11.9-9.02,24.37-11.05,37.24s-2.5,25.99-2.15,39.05l2.5-2.5c-4.65,.09-9.11,1.96-11.22,6.34-2.22,4.62-1.03,9.51,3.08,12.63,4.88,3.72,11.47,2.78,17.18,2.4l21.16-1.43c27.82-1.88,55.64-3.76,83.46-5.64l47.41-3.21c3.19-.22,3.22-5.22,0-5-50.94,3.45-101.87,6.89-152.81,10.34-4.72,.32-13.33,1.79-15.47-4.09-.6-1.66,.15-3.66,1.22-4.99,1.48-1.82,3.76-2.3,5.99-2.35,1.32-.03,2.54-1.12,2.5-2.5-.68-25.3,2.15-50.44,12.51-73.77,.69-1.56,.14-3.06-1.49-3.67-15.16-5.65-24.72-20.36-28.19-35.63-4.19-18.42,1.31-36.73,10.28-52.86,2.51-4.52,5.26-8.9,8.15-13.18,1.35-1.99,2.72-3.97,4.12-5.92,.66-.93,1.33-1.85,2-2.77,.88-1.21,2.17-2.48,2.82-3.82,.84-1.74-.42-3.94-.87-5.7-.54-2.14-.95-4.32-1.17-6.51-.41-4.05-.35-8.18,.21-12.21,2.22-16,12.58-33.22,28.54-38.62,4.7-1.59,10.05-2.1,14.62,.2,4.14,2.09,6.87,6.06,8.22,10.42,3.13,10.12-.57,21.66-4.97,30.83-.98,2.04,1.19,4.99,3.42,3.42,27.38-19.21,58-33.55,90.2-42.57,32.08-8.99,65.59-12.72,98.86-10.9,18.77,1.03,37.41,3.88,55.63,8.52,1.26,.32,2.77-.41,3.08-1.75,2.54-11.13,10.62-23.88,23.11-24.87s26.52,9.97,23.26,23.66c-1.61,6.77-7.24,11.36-14.18,11.62-2.59,.1-3.25,3.24-1.26,4.66,13.33,9.46,23.59,23.21,28.99,38.63,5.6,15.98,5.77,33.35,.78,49.52-2.9,9.4-7.53,18.29-13.67,25.98-.75,.93-.93,1.94-.39,3.03,9.29,18.59,12.8,39.35,11.3,60.01-.37,5.1-1.03,10.16-1.95,15.19-.24,1.3-.49,2.59-.76,3.88-.23,1.08-.76,2.39-.71,3.49,.09,1.86,2.12,3.98,3.01,5.57,2.82,4.98,5.59,11.53,2.51,17.02-3.83,6.82-12.19,9.3-19.39,10.61-7.76,1.41-14.9,2.19-22.86,3.04-22.35,2.39-44.78,4.03-67.21,5.56-21.66,1.48-43.33,2.79-65.01,3.98-6.63,.37-13.25,.72-19.88,1.06-1.62,.08-3.25,.17-4.87,.25-.29,.01-.58,.01-.87,.04-.67,.07-1.3,.29-1.98,.22-1.78-.17-3.31-1.55-4.04-3.11-1.53-3.26,.45-7.67,4.07-8.28,3.17-.53,1.82-5.35-1.33-4.82h0Z"/></g><path class="f" d="M632.29,103.18c3.22,0,3.22-5,0-5s-3.22,5,0,5h0Z"/><path class="f" d="M696.71,90.64c3.22,0,3.22-5,0-5s-3.22,5,0,5h0Z"/><path class="f" d="M659.48,105.87l13.26-2.79c1.28-.27,2.14-1.85,1.75-3.08-.44-1.35-1.7-2.03-3.08-1.75l-13.26,2.79c-1.28,.27-2.14,1.85-1.75,3.08,.44,1.35,1.7,2.03,3.08,1.75h0Z"/><g><path class="d" d="M758.71,205.11c-3.11,7.64-4.73,15.59-3.31,23.71,0,0,.66,5.87,8.47,5.87s8.92-14.79,9.93-19.6"/><path class="f" d="M756.3,204.44c-2.53,6.26-4.17,13-3.89,19.79,.03,.76,.09,1.52,.17,2.28,.06,.53,.13,1.05,.2,1.58,0-.05,.24,1.44,.12,.72,.07,.41,.1,.8,.2,1.2,.36,1.38,1.09,2.65,2.02,3.73,2.82,3.26,8.45,4.48,12.34,2.61,3.53-1.7,5.32-5.71,6.42-9.25,1.16-3.71,1.55-7.56,2.33-11.35,.27-1.32-.38-2.7-1.75-3.08-1.24-.34-2.8,.42-3.08,1.75-.59,2.86-.92,5.76-1.59,8.61-.21,.88-.43,1.75-.7,2.61-.12,.38-.24,.76-.38,1.14-.07,.21-.15,.41-.23,.62-.03,.07-.3,.73-.14,.37-.29,.68-.63,1.35-1.02,1.99-.53,.86-.48,.74-1.24,1.54-.09,.09-.47,.39-.07,.09-.11,.08-.23,.17-.35,.24-.14,.09-1.03,.49-.53,.31-.3,.11-.61,.19-.93,.25-.4,.07,.59,0-.11,0-.33,0-.67,0-1-.02-.82-.04-1.85-.26-2.45-.5-.64-.25-1.16-.62-1.5-.95-.22-.21-.42-.43-.61-.66,.4,.5-.13-.23-.21-.38-.11-.19-.41-.99-.14-.22-.07-.19-.14-.38-.2-.58-.04-.14-.06-.57-.16-.67-.14-.14,.11,.8,.08,.6-.05-.38-.11-.75-.17-1.12-.13-.84-.22-1.69-.28-2.54-.45-6.69,1.17-13.21,3.66-19.38,.51-1.25-.55-2.75-1.75-3.08-1.43-.39-2.57,.49-3.08,1.75h0Z"/></g><g><path class="d" d="M540.38,227.74l-12.07-27.9c-.9-2.07-1.92-4.29-3.9-5.37-2.7-1.48-6.03-.29-8.87,.92l-18.09,7.7c-1.57,.67-3.22,1.4-4.19,2.8-1.73,2.51-.57,5.92,.64,8.73,5.4,12.53,10.43,22.04,15.84,34.57,1.22,2.83,2.67,5.9,5.46,7.2,3.18,1.48,6.88,.14,10.12-1.2l22.62-9.35"/><path class="f" d="M542.54,226.48l-7.32-16.92-3.56-8.23c-1.03-2.37-1.91-4.88-3.55-6.92s-4.31-3.27-7.04-3.11c-2.9,.18-5.51,1.39-8.14,2.51-5.5,2.34-11.01,4.68-16.51,7.03-2.28,.97-4.53,2.16-5.7,4.47s-.92,5.21-.11,7.69c.87,2.67,2.15,5.23,3.29,7.78s2.36,5.17,3.56,7.74c2.33,4.97,4.71,9.91,6.99,14.9,1.17,2.56,2.28,5.15,3.42,7.72,.95,2.15,2.1,4.36,3.9,5.93,5.36,4.7,12.05,1.43,17.67-.89l19.15-7.92c1.25-.52,2.14-1.66,1.75-3.08-.32-1.18-1.82-2.27-3.08-1.75l-15.46,6.39c-2.52,1.04-5.03,2.1-7.56,3.12-2.05,.83-4.41,1.84-6.67,1.56-1.89-.24-3.13-1.63-4.04-3.19-1.21-2.07-2.05-4.35-3.02-6.53-2.04-4.61-4.19-9.18-6.35-13.74s-4.36-9.22-6.44-13.88c-.97-2.17-2.08-4.36-2.65-6.69-.43-1.78-.18-3.23,1.47-4.2,2.09-1.22,4.47-2.02,6.68-2.96l7.69-3.27c2.35-1,4.68-2.09,7.08-2.97,1.65-.6,3.97-1.4,5.56-.22,1.83,1.37,2.62,4.29,3.48,6.29l3.66,8.46,7.52,17.38c.54,1.24,2.36,1.52,3.42,.9,1.28-.75,1.44-2.18,.9-3.42h0Z"/></g><g><path class="d" d="M559.11,223.51c-8.07,1.15-15.1,3.66-21.42,8.95,0,0-4.75,3.51-.85,10.27s16.88,.72,21.94-1.2"/><path class="f" d="M558.44,221.09c-5.49,.8-10.86,2.31-15.76,4.95-1.15,.62-2.26,1.3-3.33,2.03-.5,.34-.99,.7-1.47,1.06-.37,.28-.73,.56-1.09,.84-.11,.08-.87,.74-.36,.32-.9,.74-1.66,1.48-2.28,2.5-2.4,3.91-1.36,9.53,1.74,12.79s7.79,3.05,11.77,2.29,7.92-2.46,11.79-3.94c1.26-.48,2.13-1.68,1.75-3.08-.33-1.21-1.81-2.23-3.08-1.75-3.03,1.16-6.02,2.43-9.15,3.31-.87,.24-1.76,.46-2.65,.63-.18,.03-.35,.07-.53,.1,0,0-.86,.13-.38,.07-.42,.05-.85,.09-1.28,.11s-.82,.03-1.24,.02c-.24,0-.48-.02-.72-.04-.09,0-.49-.07-.03,0-.37-.06-.74-.14-1.1-.25-.14-.04-.28-.09-.42-.14q-.27-.1,0,0c-.13-.06-.26-.13-.38-.2-.12-.08-.24-.15-.36-.22-.56-.35,.21,.21-.09-.07-.1-.1-.72-.76-.43-.38-.67-.86-1.13-1.94-1.4-2.99-.14-.54-.15-.53-.18-1.06,0-.19,.06-1.28,0-.83,.06-.37,.2-.71,.27-1.07,.02-.1,.19-.47-.03,.03,.08-.17,.16-.34,.25-.5,.13-.25,.3-.47,.45-.71,.27-.45-.39,.38-.04,.05,.06-.06,.11-.13,.16-.19,.24-.24,1.08-.93,.09-.17,1.83-1.41,3.63-2.78,5.64-3.92,4.68-2.64,9.89-4.02,15.18-4.79,1.34-.19,2.07-1.89,1.75-3.08-.39-1.44-1.73-1.94-3.08-1.75h0Z"/></g><path class="f" d="M505.79,174.2v9.19c0,1.31,1.15,2.56,2.5,2.5s2.5-1.1,2.5-2.5v-9.19c0-1.31-1.15-2.56-2.5-2.5s-2.5,1.1-2.5,2.5h0Z"/><path class="f" d="M530.72,171.97l-3.93,9.46c-.23,.56-.04,1.43,.25,1.93,.3,.52,.9,1.01,1.49,1.15,.64,.15,1.36,.11,1.93-.25s.88-.86,1.15-1.49l3.93-9.46c.23-.56,.04-1.43-.25-1.93-.3-.52-.9-1.01-1.49-1.15-.64-.15-1.36-.11-1.93,.25s-.88,.86-1.15,1.49h0Z"/><path class="f" d="M550.51,186.53l-9.13,5.88c-1.1,.71-1.65,2.25-.9,3.42,.71,1.1,2.24,1.65,3.42,.9l9.13-5.88c1.1-.71,1.65-2.25,.9-3.42-.71-1.1-2.24-1.65-3.42-.9h0Z"/><path class="f" d="M478.99,185.25l5.11,6.64c.42,.54,.81,.96,1.49,1.15,.6,.16,1.4,.09,1.93-.25s1-.86,1.15-1.49,.15-1.41-.25-1.93l-5.11-6.64c-.42-.54-.81-.96-1.49-1.15-.6-.16-1.4-.09-1.93,.25s-1,.86-1.15,1.49-.15,1.41,.25,1.93h0Z"/><path class="f" d="M468.91,207.81l8.03,2.38c1.25,.37,2.78-.45,3.08-1.75s-.4-2.68-1.75-3.08l-8.03-2.38c-1.25-.37-2.78,.45-3.08,1.75s.4,2.68,1.75,3.08h0Z"/></g><rect class="e" width="1080" height="614.71"/></g></g></svg>