<?xml version="1.0" encoding="UTF-8"?><svg xmlns="http://www.w3.org/2000/svg" viewBox="0 0 1080 614.71"><defs><style>.d{letter-spacing:.12em;}.e{letter-spacing:.16em;}.f{fill:#462e80;font-family:SFProRounded-Thin, SF Pro Rounded;font-size:27.56px;}.g{letter-spacing:.2em;}.h{letter-spacing:.15em;}.i{letter-spacing:.2em;}.j{letter-spacing:.16em;}.k{fill:none;}.l{letter-spacing:.2em;}.m{letter-spacing:.13em;}.n{fill:#5535aa;}.o{letter-spacing:.19em;}</style></defs><g id="a"/><g id="b"><g id="c"><g><g><path class="n" d="M764.32,564.07c4.41,0,8,3.59,8,8v30.64c0,4.41-3.59,8-8,8H194.94c-4.41,0-8-3.59-8-8v-30.64c0-4.41,3.59-8,8-8H764.32m0-4H194.94c-6.6,0-12,5.4-12,12v30.64c0,6.6,5.4,12,12,12H764.32c6.6,0,12-5.4,12-12v-30.64c0-6.6-5.4-12-12-12h0Z"/><rect class="n" x="791.05" y="560.07" width="54.64" height="54.64" rx="12" ry="12"/><text class="f" transform="translate(207.94 596.93)"><tspan class="g" x="0" y="0">githu</tspan><tspan class="e" x="81.88" y="0">b</tspan><tspan class="j" x="100.91" y="0">.</tspan><tspan class="g" x="112.1" y="0">com/khiemngu</tspan><tspan class="i" x="343.57" y="0">y</tspan><tspan class="g" x="360.97" y="0">e</tspan><tspan class="h" x="380.31" y="0">n</tspan><tspan class="l" x="398.47" y="0">7</tspan><tspan class="o" x="418.59" y="0">1</tspan><tspan class="g" x="434.53" y="0">2/flu</tspan><tspan class="m" x="510.73" y="0">f</tspan><tspan class="g" x="521.51" y="0">..</tspan><tspan class="d" x="545.89" y="0">.</tspan></text></g><rect class="k" width="1080" height="614.71"/></g></g></g></svg>