<?xml version="1.0" encoding="UTF-8"?><svg xmlns="http://www.w3.org/2000/svg" viewBox="0 0 972.09 163.72"><defs><style>.d{fill:#5535aa;}</style></defs><g id="a"/><g id="b"><g id="c"><g><g><path class="d" d="M215.23,106.35V30.73c0-6.64,3.75-10.52,10.12-10.52h31.97c18.17,0,29.56,9.32,29.56,24.13,0,10.59-7.91,19.44-18.17,20.98v.54c13.14,1.01,22.79,10.59,22.79,23.39,0,17.03-12.8,27.68-33.45,27.68h-32.71c-6.37,0-10.12-3.89-10.12-10.59Zm34.79-45.92c10.79,0,16.96-4.76,16.96-12.94s-5.43-12.2-14.88-12.2h-16.62v25.14h14.55Zm2.88,41.43c11.66,0,17.96-4.96,17.96-14.21s-6.5-13.88-18.43-13.88h-16.96v28.09h17.43Z"/><path class="d" d="M301.04,91.4V53.86c0-6.7,4.09-10.26,9.79-10.26s9.79,3.55,9.79,10.26v33.45c0,9.59,4.76,14.68,13.41,14.68s14.14-6.23,14.14-15.75V53.86c0-6.7,4.09-10.26,9.79-10.26s9.79,3.55,9.79,10.26v54.56c0,6.5-3.82,9.92-9.45,9.92s-9.45-3.42-9.45-9.92v-4.42h-.4c-3.55,9.05-10.66,14.28-21.52,14.28-15.55,0-25.87-10.12-25.87-26.88Z"/><path class="d" d="M380.95,108.42V28.99c0-6.7,4.09-10.26,9.79-10.26s9.79,3.55,9.79,10.26v28.56h.4c3.95-8.51,12-13.61,22.19-13.61,18.17,0,29.23,13.88,29.23,37.07s-10.99,37.07-29.16,37.07c-10.52,0-18.5-5.09-22.52-13.47h-.4v3.82c0,6.5-4.02,9.92-9.72,9.92s-9.58-3.35-9.58-9.92Zm51.35-27.42c0-13.07-6.1-21.38-15.82-21.38s-16.02,8.51-16.02,21.38,6.5,21.32,16.02,21.32,15.82-8.18,15.82-21.32Z"/><path class="d" d="M462.94,108.42V28.99c0-6.7,4.09-10.26,9.79-10.26s9.79,3.55,9.79,10.26v28.56h.4c3.96-8.51,12-13.61,22.19-13.61,18.17,0,29.23,13.88,29.23,37.07s-10.99,37.07-29.16,37.07c-10.52,0-18.5-5.09-22.52-13.47h-.4v3.82c0,6.5-4.02,9.92-9.72,9.92s-9.59-3.35-9.59-9.92Zm51.35-27.42c0-13.07-6.1-21.38-15.82-21.38s-16.02,8.51-16.02,21.38,6.5,21.32,16.02,21.32,15.82-8.18,15.82-21.32Z"/><path class="d" d="M544.93,108.16V28.99c0-6.7,4.09-10.26,9.79-10.26s9.79,3.55,9.79,10.26V108.16c0,6.7-4.02,10.19-9.79,10.19s-9.79-3.49-9.79-10.19Z"/><path class="d" d="M576.7,134.37c0-3.95,2.75-6.44,7.17-6.44,1.34,0,2.08,.07,3.42,.07,3.42,0,7.11-1.47,9.45-6.5l1-2.55-22.92-60.46c-.74-2.01-1.14-4.16-1.14-5.76,0-5.3,4.36-9.12,10.12-9.12,5.16,0,7.84,2.21,9.45,7.91l15.62,49.74h.33l15.62-49.87c1.61-5.43,4.42-7.78,9.45-7.78,5.63,0,9.52,3.69,9.52,8.85,0,1.61-.4,3.89-1.07,5.77l-22.05,59.93c-6.7,18.57-15.02,25.41-30.77,25.41-8.58,0-13.21-3.28-13.21-9.18Z"/><path class="d" d="M678.06,68.54c0-31.17,17.76-50.01,45.58-50.01,18.1,0,32.11,8.04,38.74,21.99,1.34,2.55,2.01,5.16,2.01,7.57,0,5.3-3.55,8.71-8.92,8.71-4.56,0-7.44-2.01-9.65-6.7-4.42-9.85-12.33-14.81-21.99-14.81-15.28,0-25.14,12.8-25.14,33.18s9.72,33.38,25.2,33.38c10.19,0,17.83-4.63,22.19-14.34,2.08-4.56,4.62-6.37,8.92-6.37,5.7,0,9.45,3.62,9.45,8.98,0,2.28-.54,4.42-1.54,6.77-6.03,13.41-20.44,21.65-38.74,21.65-28.69,0-46.12-18.77-46.12-50.01Z"/><path class="d" d="M777.68,108.16V28.79c0-6.3,3.62-10.05,9.65-10.05s9.58,3.75,9.58,10.05v29.09h.4c3.82-9.05,11.66-14.14,22.59-14.14,15.95,0,25.07,10.32,25.07,26.95v37.47c0,6.7-4.02,10.19-9.79,10.19s-9.79-3.49-9.79-10.19v-33.31c0-9.25-4.56-14.88-13.47-14.88s-14.68,6.5-14.68,15.95v32.24c0,6.7-4.02,10.19-9.79,10.19s-9.79-3.49-9.79-10.19Z"/><path class="d" d="M854.64,96.29c0-13.07,10.05-20.65,28.02-21.72l18.1-1.07v-4.76c0-6.7-4.69-10.59-12.07-10.59-5.97,0-9.58,1.94-13.94,7.57-2.14,2.41-4.62,3.62-7.78,3.62-4.76,0-8.18-3.08-8.18-7.51,0-1.54,.33-2.95,1-4.42,3.35-8.58,14.88-13.88,29.76-13.88,18.43,0,30.43,9.52,30.43,24v40.96c0,6.5-3.96,9.85-9.52,9.85s-8.98-2.95-9.38-8.71v-3.69h-.4c-4.02,7.64-13,12.13-21.99,12.13-13.67,0-24.06-8.85-24.06-21.79Zm46.12-5.7v-5.23l-15.15,.94c-7.31,.54-11.46,3.82-11.46,8.92,0,5.36,4.42,8.71,10.99,8.71,8.58,0,15.62-5.56,15.62-13.34Z"/><path class="d" d="M937.83,59.83h-3.75c-4.62,0-7.57-2.81-7.57-7.37s2.95-7.37,7.57-7.37h3.75v-7.98c0-6.3,3.69-10.19,9.79-10.19s9.79,3.89,9.79,10.19v7.98h6.9c4.62,0,7.51,2.88,7.51,7.37s-2.88,7.37-7.51,7.37h-6.9v34.39c0,5.09,1.74,7.24,5.97,7.57l1.27,.13c4.83,.54,7.44,2.55,7.44,7.11,0,5.76-5.63,8.71-13.88,8.71h-.67c-13.07,0-19.71-6.5-19.71-19.17V59.83Z"/></g><path class="d" d="M167.15,21c-.78-11.68-10.55-21-22.42-21H22.49C10.12,0,0,10.12,0,22.49V126.14c0,11.24,10.66,18.79,20.78,16.18,.15,4.42,.61,7.65,1.47,10.39,2.17,6.89,7.37,11.01,13.91,11.01,3.04,0,6.2-.89,9.66-2.74,1.33-.7,2.57-1.62,3.69-2.72l27.08-26.59c2.62-2.57,6.07-3.98,9.74-3.98h72.92c18.48,0,33.52-15.04,33.52-33.52V49.14c0-14.7-11.27-26.8-25.62-28.15Zm16.03,73.18c0,13.16-10.77,23.93-23.93,23.93H86.33c-6.16,0-12.07,2.42-16.46,6.73l-27.08,26.59c-.44,.43-.93,.81-1.47,1.09-2.08,1.11-3.78,1.61-5.16,1.61-4.89,0-5.85-6.37-5.85-15.27v-3.49l27.16-26.66c3.45-3.38,8.09-5.28,12.92-5.28h77.06c10.88,0,19.78-8.9,19.78-19.78V30.68c8.99,1.34,15.95,9.12,15.95,18.47v45.04Z"/></g></g></g></svg>