<?xml version="1.0" encoding="UTF-8"?><svg xmlns="http://www.w3.org/2000/svg" viewBox="0 0 922.23 731.91"><defs><style>.d{letter-spacing:.05em;}.e{letter-spacing:.12em;}.f{fill:#fff;}.g{stroke-width:4px;}.g,.h{stroke:#462b80;stroke-miterlimit:10;}.g,.h,.i{fill:none;}.j{letter-spacing:.16em;}.k,.l,.m,.n{fill:#462e80;}.l{font-size:101.16px;}.l,.n{font-family:SFProRounded-Bold, SF Pro Rounded;}.o{letter-spacing:.05em;}.m{font-family:SFProRounded-Thin, SF Pro Rounded;font-size:27.56px;}.p{letter-spacing:.2em;}.q{letter-spacing:.15em;}.r{letter-spacing:.2em;}.n{font-size:38.25px;}.s{letter-spacing:.16em;}.t{letter-spacing:.2em;}.u{fill:#462b80;}.v{letter-spacing:.13em;}.w{letter-spacing:.19em;}</style></defs><g id="a"/><g id="b"><g id="c"><g><rect class="k" x="41.06" y="458.88" width="289.59" height="109.28" rx="12" ry="12"/><rect class="k" x="41.06" y="585.06" width="289.59" height="54.64" rx="12" ry="12"/><path class="u" d="M622.44,681.27c4.41,0,8,3.59,8,8v30.64c0,4.41-3.59,8-8,8H53.06c-4.41,0-8-3.59-8-8v-30.64c0-4.41,3.59-8,8-8H622.44m0-4H53.06c-6.6,0-12,5.4-12,12v30.64c0,6.6,5.4,12,12,12H622.44c6.6,0,12-5.4,12-12v-30.64c0-6.6-5.4-12-12-12h0Z"/><rect class="k" x="649.17" y="677.27" width="54.64" height="54.64" rx="12" ry="12"/><path class="k" d="M41.06,506.02v-55.79c0-6.85,7.41-11.13,13.34-7.7l48.31,27.89c5.93,3.42,5.93,11.98,0,15.41l-48.31,27.89c-5.93,3.42-13.34-.86-13.34-7.7Z"/><g><rect class="k" x="414.22" y="600.31" width="289.59" height="54.64" rx="12" ry="12"/><rect class="k" x="414.22" y="473.94" width="289.59" height="109.28" rx="12" ry="12" transform="translate(1118.04 1057.17) rotate(180)"/><path class="k" d="M703.81,521.09v-55.79c0-6.85-7.41-11.13-13.34-7.7l-48.31,27.89c-5.93,3.42-5.93,11.98,0,15.41l48.31,27.89c5.93,3.42,13.34-.86,13.34-7.7Z"/></g><g><path class="f" d="M115.92,319.5c4.35,7.5,3.23,17.3-1.06,24.84s-11.32,13.14-18.68,17.73c-22.43,13.99-49.67,20.11-75.94,17.06-19.1-5.18-19.58-29.11-16.13-44.29,8.36-36.76,32.28-71.31,64.43-91,2.7-4.06,5.46-8.18,9.26-11.23s8.87-4.91,13.6-3.73c7.24,1.81,11.02,9.62,13.44,16.67,7.75,22.67,11.97,50.02,11.08,73.96Z"/><path class="u" d="M113.76,320.76c3.35,5.91,2.95,13.14,.44,19.29s-7.65,11.53-13.04,15.6c-11.75,8.88-25.82,14.96-40.08,18.43-7.19,1.75-14.52,2.82-21.91,3.17-3.73,.18-7.47,.18-11.2,0-3.26-.16-6.74-.19-9.72-1.42-9.08-3.76-12.58-13.61-13.18-22.85-.16-2.52-.15-5.06,.01-7.58s.4-4.51,.81-6.83c1.08-6.09,2.86-12.09,4.88-17.92,4.43-12.77,10.71-24.89,18.44-35.98s17.01-21.07,27.53-29.52c2.55-2.04,5.18-3.98,7.88-5.82,1.43-.98,2.89-1.92,4.36-2.84,.88-.55,1.49-1.07,2.07-1.94s1.12-1.67,1.69-2.5c3.79-5.46,9.17-11.47,16.47-11.02,6.07,.37,9.68,6.44,11.81,11.43,2.76,6.48,4.57,13.49,6.25,20.31,3.69,14.98,5.84,30.38,6.21,45.81,.09,3.64,.07,7.28-.06,10.91-.12,3.22,4.88,3.21,5,0,.65-18.16-1.4-36.47-5.41-54.17-1.89-8.34-4.06-16.86-7.4-24.75-2.97-7.03-7.96-13.89-16.19-14.53-10.69-.83-17.8,8.66-23.04,16.52l.9-.9c-17.63,10.83-32.54,25.74-44.03,42.9-5.78,8.63-10.63,17.85-14.55,27.47-3.53,8.65-6.55,17.81-7.93,27.08-2.15,14.45-.58,34.06,14.7,40.92,.94,.42,1.9,.81,2.88,1.13,1.38,.45,2.8,.56,4.24,.7,2.79,.27,5.59,.43,8.39,.49,5.74,.13,11.5-.17,17.2-.88,11.45-1.43,22.59-4.4,33.21-8.92,18.52-7.89,43.38-23.18,39.38-46.87-.44-2.62-1.38-5.15-2.69-7.46-1.59-2.8-5.91-.28-4.32,2.52Z"/></g><path class="u" d="M381.4,214.39c-5.39-15.92-1.95-34.34,8.42-47.52,5.44-6.91,12.93-12.86,21.72-14.59,4.23-.83,8.71-.34,12.38,2.03,3.31,2.14,5.53,5.68,6.71,9.38,1.52,4.79,1.34,9.75,.51,14.66-.97,5.72-2.9,11.16-5.41,16.38-.59,1.22-.33,2.7,.9,3.42,1.09,.64,2.83,.32,3.42-.9,2.45-5.08,4.5-10.36,5.61-15.9,1.05-5.23,1.57-10.58,.59-15.85-.87-4.68-2.99-9.25-6.33-12.68-3.6-3.7-8.53-5.7-13.66-5.89-10.3-.39-20.06,5.7-26.93,12.91-6.5,6.82-11.15,15.37-13.55,24.47-2.72,10.27-2.61,21.33,.81,31.42,1.03,3.03,5.86,1.73,4.82-1.33h0Z"/><path class="u" d="M429.14,198.14c13.69-9.61,28.21-18.03,43.34-25.16,15.06-7.1,30.73-12.89,46.75-17.39,16.09-4.52,32.56-7.74,49.17-9.56s33.27-2.28,49.9-1.36,33.27,3.26,49.55,7.05c2,.46,3.99,.95,5.97,1.46,3.12,.8,4.45-4.03,1.33-4.82-16.49-4.2-33.35-6.94-50.31-8.25s-33.73-1.17-50.53,.34c-16.89,1.52-33.66,4.39-50.08,8.62s-32.58,9.88-48.13,16.78-30.24,14.98-44.25,24.37c-1.76,1.18-3.5,2.38-5.24,3.6-1.1,.77-1.62,2.19-.9,3.42,.64,1.09,2.31,1.68,3.42,.9h0Z"/><path class="u" d="M676.91,151.44c2.54-11.26,10.84-24.15,23.55-24.9,6.54-.39,13.17,2.15,17.79,6.8s6.51,10.97,4.97,17.11c-1.66,6.62-7.22,11.17-14.12,11.4-3.21,.11-3.22,5.11,0,5,7.57-.25,14.55-4.47,17.67-11.49s2.36-15.78-2.19-22.2-12.15-10.67-20.14-11.52-15.33,2.24-20.93,7.62c-5.74,5.52-9.68,13.12-11.43,20.85-.71,3.13,4.11,4.47,4.82,1.33h0Z"/><path class="u" d="M376.83,213.79c-12.26,16.47-24.42,34.43-28.29,54.97-3.2,16.95,0,35.4,10.2,49.53,5.56,7.7,12.96,13.73,21.9,17.03,1.27,.47,2.74-.52,3.08-1.75,.38-1.4-.47-2.61-1.75-3.08-14.67-5.42-24.14-19.49-27.84-34.19-1.98-7.85-2.4-16.11-1.14-24.12,1.52-9.68,5.08-18.89,9.63-27.52,5.27-10.01,11.78-19.3,18.53-28.35,.81-1.08,.18-2.79-.9-3.42-1.27-.75-2.61-.19-3.42,.9h0Z"/><path class="u" d="M490.41,220.38c3.22,0,3.22-5,0-5s-3.22,5,0,5h0Z"/><path class="u" d="M554.83,207.84c3.22,0,3.22-5,0-5s-3.22,5,0,5h0Z"/><path class="u" d="M517.6,223.07l13.26-2.79c1.28-.27,2.14-1.85,1.75-3.08-.44-1.35-1.7-2.03-3.08-1.75l-13.26,2.79c-1.28,.27-2.14,1.85-1.75,3.08,.44,1.35,1.7,2.03,3.08,1.75h0Z"/><path class="u" d="M379.15,331.65c-8.29,18.63-12.32,38.51-13.13,58.84-.23,5.81-.22,11.63-.06,17.45,.09,3.21,5.09,3.22,5,0-.54-19.53,.85-39.13,6.59-57.9,1.65-5.4,3.63-10.7,5.92-15.86,.55-1.23,.36-2.69-.9-3.42-1.07-.62-2.87-.34-3.42,.9h0Z"/><path class="u" d="M707.84,166.51c13.3,9.41,23.54,23.15,28.95,38.5,5.7,16.18,5.83,33.79,.67,50.13-2.9,9.21-7.48,17.95-13.52,25.5-.84,1.05-1.03,2.51,0,3.54,.87,.87,2.69,1.06,3.54,0,11.59-14.48,18.23-32.57,18.74-51.12,.49-17.73-4.98-35.4-15.11-49.94-5.66-8.13-12.65-15.2-20.74-20.92-1.1-.78-2.78-.2-3.42,.9-.73,1.25-.21,2.64,.9,3.42h0Z"/><path class="u" d="M614.42,321.64c-2.53,6.26-4.17,13-3.89,19.79,.03,.76,.09,1.52,.17,2.28,.06,.53,.13,1.05,.2,1.58,0-.05,.24,1.44,.12,.72,.07,.41,.1,.8,.2,1.2,.36,1.38,1.09,2.65,2.02,3.73,2.82,3.26,8.45,4.48,12.34,2.61,3.53-1.7,5.32-5.71,6.42-9.25,1.16-3.71,1.55-7.56,2.33-11.35,.27-1.32-.38-2.7-1.75-3.08-1.24-.34-2.8,.42-3.08,1.75-.59,2.86-.92,5.76-1.59,8.61-.21,.88-.43,1.75-.7,2.61-.12,.38-.24,.76-.38,1.14-.07,.21-.15,.41-.23,.62-.03,.07-.3,.73-.14,.37-.29,.68-.63,1.35-1.02,1.99-.53,.86-.48,.74-1.24,1.54-.09,.09-.47,.39-.07,.09-.11,.08-.23,.17-.35,.24-.14,.09-1.03,.49-.53,.31-.3,.11-.61,.19-.93,.25-.4,.07,.59,0-.11,0-.33,0-.67,0-1-.02-.82-.04-1.85-.26-2.45-.5-.64-.25-1.16-.62-1.5-.95-.22-.21-.42-.43-.61-.66,.4,.5-.13-.23-.21-.38-.11-.19-.41-.99-.14-.22-.07-.19-.14-.38-.2-.58-.04-.14-.06-.57-.16-.67-.14-.14,.11,.8,.08,.6-.05-.38-.11-.75-.17-1.12-.13-.84-.22-1.69-.28-2.54-.45-6.69,1.17-13.21,3.66-19.38,.51-1.25-.55-2.75-1.75-3.08-1.43-.39-2.57,.49-3.08,1.75h0Z"/><path class="u" d="M368.46,405.43c-4.74,.06-9.28,2.07-11.32,6.57-1.01,2.23-1.5,4.65-.73,7.04,.87,2.71,2.95,5.07,5.46,6.38,5.69,2.97,12.85,1.57,18.96,1.15l20.39-1.38c27.35-1.85,54.7-3.7,82.06-5.55l46.25-3.13c1.35-.09,2.5-1.08,2.5-2.5,0-1.28-1.15-2.59-2.5-2.5-25.86,1.75-51.72,3.5-77.58,5.25-25.78,1.74-51.55,3.49-77.33,5.23-3.09,.21-6.33,.51-9.31-.51-2.04-.7-4.18-2.56-4.29-4.86-.02-.48,.07-.88,.21-1.34,.06-.19,.12-.38,.18-.57,.03-.09,.29-.71,.11-.31,.42-.94,.73-1.41,1.31-2.01,1.36-1.39,3.46-1.94,5.64-1.97,3.21-.04,3.22-5.04,0-5h0Z"/><path class="u" d="M533.57,397.37c-3.91,.59-6.89,4.13-7.86,7.81-1.04,3.89,.13,8.24,3.21,10.9,1.36,1.17,2.99,2.07,4.78,2.37,1.02,.17,2,.19,3.02,0,.47-.09,.48-.12,.12-.08,.21-.03,.43-.02,.65-.03,3.55-.18,7.11-.36,10.66-.55,6.99-.37,13.98-.75,20.97-1.14,9.37-.53,18.73-1.08,28.1-1.65,10.6-.65,21.21-1.34,31.81-2.07,10.72-.74,21.44-1.52,32.16-2.39,9.72-.78,19.44-1.63,29.15-2.61,7.76-.79,15.51-1.65,23.22-2.8,4.38-.65,9.03-1.2,13.2-2.79,5.68-2.17,11.83-5.79,14.73-11.36s1.91-11.62-.43-17.12c-1.33-3.13-3.06-6.06-4.95-8.88l.25,1.93c5.04-22.19,5.5-45.56-1.14-67.48-1.91-6.29-4.38-12.4-7.33-18.28-1.44-2.88-5.76-.35-4.32,2.52,9.28,18.52,12.77,39.24,11.31,59.83-.36,5.14-1.02,10.25-1.96,15.31-.24,1.28-.49,2.56-.75,3.83-.28,1.36-1.06,3.23-.52,4.56,.4,.97,1.16,1.86,1.71,2.75s1.06,1.78,1.56,2.69c1.55,2.86,2.83,5.8,3.29,9.09-.05-.33,.05,.58,.06,.74,.02,.33,.03,.67,.03,1,0,.37-.02,.74-.04,1.11-.01,.16-.03,.33-.04,.49,.04-.37,0,.01-.03,.18-.13,.68-.29,1.34-.51,1.99-.25,.74-.3,.83-.77,1.65-1.51,2.65-4.15,4.76-7,6.4-.93,.54-1.89,1.03-2.86,1.49-.68,.32-1.26,.59-1.55,.7-.36,.14-.73,.27-1.1,.38-2.22,.7-4.53,1.14-6.81,1.56-1.59,.29-3.18,.55-4.77,.79-.87,.13-1.74,.26-2.61,.38-.43,.06-.86,.12-1.29,.18-.25,.03-.49,.07-.74,.1,.28-.04,.21-.03-.26,.03-4.35,.58-8.71,1.08-13.07,1.55-10.66,1.14-21.34,2.08-32.03,2.95-11.96,.97-23.93,1.85-35.9,2.66-11.77,.8-23.54,1.55-35.31,2.26-9.95,.6-19.91,1.17-29.86,1.72-6.54,.36-13.09,.71-19.63,1.04-1.52,.08-3.04,.15-4.56,.23-.24,.01-.48,.01-.71,.04-1.34,.12-2.05,.41-3.27-.14-1.42-.65-2.55-1.97-2.99-3.46-.94-3.15,.98-7.06,4.34-7.57,1.34-.2,2.07-1.88,1.75-3.08-.39-1.43-1.74-1.95-3.08-1.75h0Z"/><g><path class="f" d="M398.5,344.94l-12.07-27.9c-.9-2.07-1.92-4.29-3.9-5.37-2.7-1.48-6.03-.29-8.87,.92l-18.09,7.7c-1.57,.67-3.22,1.4-4.19,2.8-1.73,2.51-.57,5.92,.64,8.73,5.4,12.53,10.43,22.04,15.84,34.57,1.22,2.83,2.67,5.9,5.46,7.2,3.18,1.48,6.88,.14,10.12-1.2l22.62-9.35"/><path class="u" d="M400.66,343.68l-7.32-16.92-3.56-8.23c-1.03-2.37-1.91-4.88-3.55-6.92s-4.31-3.27-7.04-3.11c-2.9,.18-5.51,1.39-8.14,2.51-5.5,2.34-11.01,4.68-16.51,7.03-2.28,.97-4.53,2.16-5.7,4.47s-.92,5.21-.11,7.69c.87,2.67,2.15,5.23,3.29,7.78s2.36,5.17,3.56,7.74c2.33,4.97,4.71,9.91,6.99,14.9,1.17,2.56,2.28,5.15,3.42,7.72,.95,2.15,2.1,4.36,3.9,5.93,5.36,4.7,12.05,1.43,17.67-.89l19.15-7.92c1.25-.52,2.14-1.66,1.75-3.08-.32-1.18-1.82-2.27-3.08-1.75l-15.46,6.39c-2.52,1.04-5.03,2.1-7.56,3.12-2.05,.83-4.41,1.84-6.67,1.56-1.89-.24-3.13-1.63-4.04-3.19-1.21-2.07-2.05-4.35-3.02-6.53-2.04-4.61-4.19-9.18-6.35-13.74s-4.36-9.22-6.44-13.88c-.97-2.17-2.08-4.36-2.65-6.69-.43-1.78-.18-3.23,1.47-4.2,2.09-1.22,4.47-2.02,6.68-2.96l7.69-3.27c2.35-1,4.68-2.09,7.08-2.97,1.65-.6,3.97-1.4,5.56-.22,1.83,1.37,2.62,4.29,3.48,6.29l3.66,8.46,7.52,17.38c.54,1.24,2.36,1.52,3.42,.9,1.28-.75,1.44-2.18,.9-3.42h0Z"/></g><g><path class="f" d="M417.23,340.7c-8.07,1.15-15.1,3.66-21.42,8.95,0,0-4.75,3.51-.85,10.27,3.91,6.77,16.88,.72,21.94-1.2"/><path class="u" d="M416.56,338.29c-5.49,.8-10.86,2.31-15.76,4.95-1.15,.62-2.26,1.3-3.33,2.03-.5,.34-.99,.7-1.47,1.06-.37,.28-.73,.56-1.09,.84-.11,.08-.87,.74-.36,.32-.9,.74-1.66,1.48-2.28,2.5-2.4,3.91-1.36,9.53,1.74,12.79s7.79,3.05,11.77,2.29,7.92-2.46,11.79-3.94c1.26-.48,2.13-1.68,1.75-3.08-.33-1.21-1.81-2.23-3.08-1.75-3.03,1.16-6.02,2.43-9.15,3.31-.87,.24-1.76,.46-2.65,.63-.18,.03-.35,.07-.53,.1,0,0-.86,.13-.38,.07-.42,.05-.85,.09-1.28,.11s-.82,.03-1.24,.02c-.24,0-.48-.02-.72-.04-.09,0-.49-.07-.03,0-.37-.06-.74-.14-1.1-.25-.14-.04-.28-.09-.42-.14q-.27-.1,0,0c-.13-.06-.26-.13-.38-.2-.12-.08-.24-.15-.36-.22-.56-.35,.21,.21-.09-.07-.1-.1-.72-.76-.43-.38-.67-.86-1.13-1.94-1.4-2.99-.14-.54-.15-.53-.18-1.06,0-.19,.06-1.28,0-.83,.06-.37,.2-.71,.27-1.07,.02-.1,.19-.47-.03,.03,.08-.17,.16-.34,.25-.5,.13-.25,.3-.47,.45-.71,.27-.45-.39,.38-.04,.05,.06-.06,.11-.13,.16-.19,.24-.24,1.08-.93,.09-.17,1.83-1.41,3.63-2.78,5.64-3.92,4.68-2.64,9.89-4.02,15.18-4.79,1.34-.19,2.07-1.89,1.75-3.08-.39-1.44-1.73-1.94-3.08-1.75h0Z"/></g><path class="u" d="M363.91,291.4v9.19c0,1.31,1.15,2.56,2.5,2.5s2.5-1.1,2.5-2.5v-9.19c0-1.31-1.15-2.56-2.5-2.5s-2.5,1.1-2.5,2.5h0Z"/><path class="u" d="M388.84,289.17l-3.93,9.46c-.23,.56-.04,1.43,.25,1.93,.3,.52,.9,1.01,1.49,1.15,.64,.15,1.36,.11,1.93-.25s.88-.86,1.15-1.49l3.93-9.46c.23-.56,.04-1.43-.25-1.93-.3-.52-.9-1.01-1.49-1.15-.64-.15-1.36-.11-1.93,.25s-.88,.86-1.15,1.49h0Z"/><path class="u" d="M408.63,303.73l-9.13,5.88c-1.1,.71-1.65,2.25-.9,3.42,.71,1.1,2.24,1.65,3.42,.9l9.13-5.88c1.1-.71,1.65-2.25,.9-3.42-.71-1.1-2.24-1.65-3.42-.9h0Z"/><path class="u" d="M337.11,302.45l5.11,6.64c.42,.54,.81,.96,1.49,1.15,.6,.16,1.4,.09,1.93-.25s1-.86,1.15-1.49,.15-1.41-.25-1.93l-5.11-6.64c-.42-.54-.81-.96-1.49-1.15-.6-.16-1.4-.09-1.93,.25s-1,.86-1.15,1.49-.15,1.41,.25,1.93h0Z"/><path class="u" d="M322.66,322.64l7.71,3.27c.65,.27,1.22,.45,1.93,.25,.58-.16,1.21-.61,1.49-1.15,.31-.58,.46-1.28,.25-1.93-.19-.57-.57-1.25-1.15-1.49l-7.71-3.27c-.65-.27-1.22-.45-1.93-.25-.58,.16-1.21,.61-1.49,1.15-.31,.58-.46,1.28-.25,1.93,.19,.57,.57,1.25,1.15,1.49h0Z"/><path class="u" d="M303.48,336.24c-19.71-.46-39.44-.27-59.15-.14-22.5,.15-45.01,.38-67.51,.39-10.07,0-20.15-.02-30.22-.26-3.22-.07-3.22,4.93,0,5,19.71,.46,39.44,.27,59.15,.14,22.5-.15,45.01-.38,67.51-.39,10.07,0,20.15,.02,30.22,.26,3.22,.07,3.22-4.93,0-5h0Z"/><path class="u" d="M102.71,361.3c2.97-.61,7.03-1.58,9.57,.7,.78,.69,1.37,1.88,1.03,2.93-.37,1.16-1.65,1.72-2.74,1.98-1.77,.42-3.74,.21-5.54,.07s-3.63-.45-5.43-.79c-3.95-.73-7.89-1.58-11.92-1.83-3.21-.2-3.2,4.8,0,5,4.84,.3,9.54,1.6,14.34,2.27s10.19,1.32,13.97-2.02c3.53-3.12,2.87-8.67-.63-11.52-4.04-3.29-9.25-2.58-13.99-1.61-1.32,.27-2.09,1.83-1.75,3.08,.38,1.37,1.75,2.02,3.08,1.75h0Z"/><path class="u" d="M70.07,287.34c3.22,0,3.22-5,0-5s-3.22,5,0,5h0Z"/><path class="u" d="M91.77,281.47c3.22,0,3.22-5,0-5s-3.22,5,0,5h0Z"/><path class="u" d="M82.33,289.64c3.22,0,3.22-5,0-5s-3.22,5,0,5h0Z"/><path class="u" d="M117.49,304.43l6.13-6.13c.93-.93,1-2.62,0-3.54s-2.55-.99-3.54,0l-6.13,6.13c-.93,.93-1,2.62,0,3.54s2.55,.99,3.54,0h0Z"/><path class="u" d="M19.85,308.19c-.18,.18-.1,.12,.24-.16-.16,.09-.13,.08,.09-.02,.45-.18-.04-.01-.15,0l.66-.09c-.2,.02-.4,.03-.6,0l.66,.09c-.16-.03-.32-.09-.48-.11,.51,.09,.44,.21,.2,.07-.08-.05-.16-.1-.24-.15-.24-.14,.37,.34,.18,.13-.06-.07-.14-.13-.2-.19-.15-.15-.29-.31-.42-.47-.22-.26,.07,.11,.13,.17-.06-.06-.12-.16-.17-.23-.15-.2-.3-.41-.45-.61l-.88-1.2-3.53-4.82c-.4-.54-.82-.96-1.49-1.15-.6-.16-1.4-.09-1.93,.25-1.04,.67-1.72,2.29-.9,3.42,1.59,2.17,3.18,4.35,4.77,6.52,.95,1.3,1.92,2.47,3.48,3.04s3.39,.21,4.55-.96c.92-.93,1-2.62,0-3.54s-2.55-.99-3.54,0h0Z"/><circle class="g" cx="166.67" cy="228.51" r="13.57"/><path class="u" d="M41.74,382.15c3.05,.11,6.42,1.56,8.17,4.18,.41,.61,1.09,2.02,.2,2.49-.96,.5-2.55-.39-3.38-.88-3.12-1.87-6.19-3.76-9.94-2.36-1.5,.56-2.83,1.44-4.3,2.07-1.04,.44-2.13,.65-3.06-.11-.2-.17-.36-.36-.5-.58-.08-.13-.28-.77-.21-.36-.11-.64,0-1.11,.11-1.67,.13-.62,.33-1.33,.56-1.86,.33-.76,.46-.98,1-1.41,1.06-.84,.88-2.66,0-3.54-1.05-1.05-2.47-.84-3.54,0-1.43,1.13-2.23,3.13-2.69,4.84-.53,1.95-.71,4.03,.14,5.9,.92,2.03,2.92,3.62,5.12,4.05,2.36,.45,4.51-.36,6.57-1.44,1.57-.82,3.11-1.87,4.91-1.14,2.06,.83,3.7,2.39,5.84,3.11s4.8,.66,6.66-.86c2.01-1.64,2.57-4.5,1.72-6.9-1.88-5.33-8.07-8.33-13.39-8.52-3.22-.12-3.21,4.89,0,5h0Z"/><g><text class="l" transform="translate(179.92 86.22)"><tspan x="0" y="0">Fluffy Chat</tspan></text><path class="k" d="M131.03,7.68H58.56c-7.34,0-13.34,6-13.34,13.34v61.45c0,7.61,8.24,12.37,14.83,8.56l19.24-18.89c2.04-2.01,4.79-3.13,7.66-3.13h45.69c6.45,0,11.73-5.28,11.73-11.73V21.02c0-7.34-6-13.34-13.34-13.34Z"/><path class="u" d="M142.74,25.74c6.1,0,11.08,4.99,11.08,11.08v26.7c0,7.8-6.38,14.19-14.19,14.19h-43.24c-3.65,0-7.15,1.43-9.76,3.99l-16.05,15.76c-.26,.25-.55,.48-.87,.65-1.23,.66-2.24,.96-3.06,.96-2.9,0-3.47-3.78-3.47-9.05V41.87c0-8.87,7.26-16.13,16.13-16.13h63.43m0-7h-63.43c-12.75,0-23.13,10.37-23.13,23.13v48.15c0,3.87,.29,6.45,.97,8.61,1.47,4.66,5.02,7.45,9.5,7.45,2.02,0,4.1-.58,6.35-1.78,.9-.48,1.74-1.09,2.49-1.84l16.05-15.76c1.3-1.28,3.03-1.98,4.85-1.98h43.24c11.68,0,21.19-9.5,21.19-21.19v-26.7c0-9.97-8.11-18.08-18.08-18.08h0Z"/></g><text class="m" transform="translate(66.06 714.12)"><tspan class="p" x="0" y="0">githu</tspan><tspan class="j" x="81.88" y="0">b</tspan><tspan class="s" x="100.91" y="0">.</tspan><tspan class="p" x="112.1" y="0">com/khiemngu</tspan><tspan class="r" x="343.57" y="0">y</tspan><tspan class="p" x="360.97" y="0">e</tspan><tspan class="q" x="380.31" y="0">n</tspan><tspan class="t" x="398.47" y="0">7</tspan><tspan class="w" x="418.59" y="0">1</tspan><tspan class="p" x="434.53" y="0">2/flu</tspan><tspan class="v" x="510.73" y="0">f</tspan><tspan class="p" x="521.51" y="0">..</tspan><tspan class="e" x="545.89" y="0">.</tspan></text><text class="n" transform="translate(734.74 641.4)"><tspan class="o" x="0" y="0">R</tspan><tspan class="d" x="26.21" y="0">eact</tspan></text><g><path class="h" d="M818.31,646.41v-.35h12.92v.26c.26,4.89,3.17,8.33,8.38,8.33,5.64,0,8.6-3.39,8.6-9.79v-43.95h13.31v44.04c0,13.4-7.98,21.2-21.73,21.2s-21.12-7.8-21.47-19.75Z"/><path class="h" d="M870.5,647.6l-.04-.71h12.83l.04,.44c.48,4.76,5.64,7.98,13.09,7.98s11.99-3.39,11.99-8.29v-.04c0-4.19-3.13-6.52-11.02-8.16l-6.7-1.37c-13.22-2.69-18.91-8.86-18.91-18.51v-.04c0-11.81,10.14-19.62,24.25-19.62,14.86,0,23.58,7.85,24.42,18.47l.04,.57h-12.52l-.09-.53c-.75-4.54-5.16-7.71-11.86-7.71-6.57,.04-10.93,3.04-10.93,7.8v.04c0,4.14,3.09,6.61,10.58,8.16l6.74,1.37c13.45,2.78,19.31,8.16,19.31,18.07v.04c0,12.61-9.79,20.59-25.66,20.59s-24.82-7.27-25.57-18.56Z"/></g><line class="i" x1="842.48" y1="442.89" x2="884.39" y2="502.12"/><path class="u" d="M740.79,520.28c14.62-.17,28.88,4,41.32,11.63,12.15,7.45,21.99,17.78,28.11,30.72,3.32,7.03,5.45,14.69,6.18,22.43,.13,1.34,1.06,2.5,2.5,2.5,1.25,0,2.63-1.15,2.5-2.5-1.41-15.04-7.43-29.33-17.13-40.9-9.67-11.54-23.22-20.14-37.46-24.86-8.37-2.77-17.21-4.12-26.02-4.02-3.22,.04-3.22,5.04,0,5h0Z"/><path class="u" d="M752.98,505.46l-17.27,10.63c-1.55,.95-1.69,3.4,0,4.32l14.22,7.72c1.19,.64,2.72,.29,3.42-.9s.29-2.77-.9-3.42l-14.22-7.72v4.32l17.27-10.63c1.15-.71,1.59-2.24,.9-3.42s-2.27-1.61-3.42-.9h0Z"/><g><path class="u" d="M730.33,712.52c11.74,3.71,24.43,2.66,35.78-1.91,10.16-4.1,18.74-10.72,25.41-19.41,3.75-4.89,6.71-10.28,8.97-16.01,.5-1.26-.54-2.74-1.75-3.08-1.42-.39-2.58,.49-3.08,1.75-3.59,9.11-9.49,17.33-16.99,23.63-7.88,6.62-18.1,10.97-28.33,12.04-6.32,.67-12.62,.08-18.68-1.84-3.08-.97-4.39,3.85-1.33,4.82h0Z"/><path class="u" d="M739.31,718.76l-8.96-11.54-1.1,4.18,11.17-3.03c1.26-.34,2.16-1.79,1.75-3.08s-1.72-2.11-3.08-1.75l-11.17,3.03c-.84,.23-1.52,.91-1.75,1.75-.26,.94,.08,1.7,.64,2.43l8.96,11.54c.81,1.04,2.7,.91,3.54,0,1.01-1.1,.86-2.43,0-3.54h0Z"/></g></g></g></g></svg>