<?xml version="1.0" encoding="UTF-8"?><svg xmlns="http://www.w3.org/2000/svg" viewBox="0 0 180.22 59.3"><defs><style>.d,.e,.f,.g,.h,.i{fill:#0000bc;}.d,.j{letter-spacing:-.04em;}.k{fill:#fff;}.e{letter-spacing:-.03em;}.f{letter-spacing:-.07em;}.g{letter-spacing:-.05em;}.i{letter-spacing:-.04em;}.l{font-family:DFVN-GLDDisplay-Black, DFVN GLD Display;font-size:65.88px;}</style></defs><g id="a"/><g id="b"><g id="c"><g><text class="l" transform="translate(0 46.11) scale(.88 1)"><tspan class="f" x="0" y="0">K</tspan><tspan class="e" x="34.13" y="0">H</tspan><tspan class="d" x="69.1" y="0">I</tspan><tspan class="g" x="84.51" y="0">E</tspan><tspan class="i" x="113.78" y="0">M</tspan><tspan class="j" x="159.43" y="0">N</tspan></text><g><circle class="h" cx="171.91" cy="43.17" r="6.81"/><path class="k" d="M171.91,37.86c2.93,0,5.31,2.38,5.31,5.31s-2.38,5.31-5.31,5.31-5.31-2.38-5.31-5.31,2.38-5.31,5.31-5.31m0-3c-4.58,0-8.31,3.73-8.31,8.31s3.73,8.31,8.31,8.31,8.31-3.73,8.31-8.31-3.73-8.31-8.31-8.31h0Z"/></g></g></g></g></svg>