<?xml version="1.0" encoding="UTF-8"?><svg xmlns="http://www.w3.org/2000/svg" viewBox="0 0 178.87 48.49"><defs><style>.d{fill:#004;}.e{fill:#5535aa;}</style></defs><g id="a"/><g id="b"><g id="c"><g><path class="e" d="M46.96,1.85l.1,12.81c0,.64-.33,1.24-.87,1.57l-2.73,1.68c-1.25,.77-2.85-.17-2.79-1.63l.54-14.38c.04-1.04-.79-1.9-1.83-1.9H19.56c-.67,0-1.28,.36-1.6,.94L6.55,21.54c-.23,.42-.8,.53-1.17,.22h0c-.29-.23-.36-.64-.19-.96,.79-1.49,1.55-2.99,2.27-4.49,.81-1.7,1.54-3.42,2.18-5.18,.64-1.76,1.17-3.56,1.59-5.41,.28-1.18,.5-2.4,.66-3.64C12.04,.98,11.18,0,10.07,0H2.35C1.34,0,.53,.81,.52,1.81L0,44.26c-.01,1.02,.81,1.86,1.83,1.86H10.18c1.08,0,1.92-.93,1.83-2-.08-.98-.19-1.96-.35-2.92-.26-1.61-.6-3.19-1.02-4.76-.41-1.56-.88-3.11-1.4-4.63-.36-1.06-.72-2.13-1.1-3.2-.29-.82,.04-1.72,.78-2.17h0c1.71,4.48,3.62,8.37,5.71,11.67,.99,1.57,2.06,2.87,3.2,3.91,1.14,1.04,2.36,1.86,3.65,2.46,1.29,.6,2.66,1.03,4.11,1.27,1.37,.24,2.81,.36,4.35,.37v.07h9.16c1.01,0,1.83-.82,1.83-1.83v-13.29c0-.64,.33-1.23,.87-1.56l2.83-1.74c1.23-.76,2.81,.13,2.79,1.58l-.13,15.07c0,1.02,.81,1.85,1.83,1.85h7.29c1.02,0,1.85-.83,1.83-1.86l-.52-42.58c-.01-1-.83-1.81-1.83-1.81h-7.11c-1.02,0-1.84,.83-1.83,1.85Zm-16.85,31.44h-.14c-1.41,0-2.66-.2-3.75-.61-1.1-.41-2.07-.99-2.94-1.74s-1.65-1.67-2.35-2.75c-.39-.6-.76-1.25-1.13-1.95-.49-.93-1.63-1.28-2.54-.76l-3.47,1.99-.79-.97L27.08,6.39c1.03-1.48,3.36-.73,3.33,1.07l-.31,25.82Z"/><path class="e" d="M61.2,2.3l-.35,41.48c-.01,1.29,1.03,2.34,2.32,2.34h6.53c1.29,0,2.33-1.05,2.32-2.34l-.36-41.48c-.01-1.27-1.05-2.3-2.32-2.3h-5.82c-1.27,0-2.31,1.03-2.32,2.3Z"/><path class="e" d="M85.74,33.15v-3.23c0-1.27,1.24-2.22,2.44-1.8,1.08,.38,2.15,.57,3.21,.57,1.19,0,2.24-.2,3.17-.61,.92-.41,1.69-.99,2.31-1.74s1.09-1.66,1.41-2.73c.19-.64,.32-1.32,.4-2.04,.1-.9-.51-1.74-1.39-1.96l-6.86-1.71c-.96-.24-1.94,.33-2.21,1.28l-1.43,5.02h-1.05V12.32c0-1.01,.82-1.84,1.84-1.84h9.63c1.02,0,1.84-.83,1.84-1.85l-.04-6.81c0-1.01-.83-1.83-1.84-1.83h-20.6c-1.01,0-1.82,.81-1.84,1.81l-.52,42.45c-.01,1.02,.81,1.86,1.84,1.86h21.77c1.05,0,1.89-.88,1.83-1.93l-.38-7.46c-.05-.98-.86-1.74-1.83-1.74h-9.87c-1.01,0-1.84-.82-1.84-1.84Z"/><path class="e" d="M125.53,.71l-3.2,21.19c-.06,.41-.41,.71-.83,.71h0c-.41,0-.77-.3-.83-.71l-2.97-19.63c-.2-1.31-1.32-2.27-2.64-2.27h-11.33c-.46,0-.83,.37-.84,.83l-.55,44.45c0,.47,.37,.85,.84,.85h10.43c.48,0,.86-.39,.84-.87-.2-4.07-.77-9.32-1.74-15.76-.53-3.41-1.12-6.74-1.77-9.98-.6-3-1.27-5.95-1.99-8.87-.1-.42,.13-.85,.53-.99l.66-.23,9.83,36.15c.1,.36,.43,.62,.81,.62h1.46c.38,0,.71-.25,.81-.62l9.83-36.15,.66,.23c.41,.14,.64,.57,.53,.99-.72,2.84-1.37,5.74-1.97,8.72-.65,3.24-1.24,6.62-1.76,10.13-.55,3.56-.97,6.72-1.26,9.48-.25,2.36-.42,4.46-.51,6.28-.02,.48,.36,.87,.84,.87h10.45c.47,0,.84-.38,.84-.85l-.57-44.45c0-.46-.38-.83-.84-.83h-12.91c-.41,0-.77,.3-.83,.71Z"/><path class="d" d="M173.55,34.87s.02,0,.03,0c.34,0,.62-.27,.61-.61l-.4-32.46c-.01-1-.83-1.81-1.83-1.81h-7.89c-1.02,0-1.84,.87-1.76,1.89,.11,1.41,.27,2.97,.48,4.67,.31,2.51,.74,5.38,1.28,8.62,.57,3.39,1.17,6.67,1.81,9.84,.64,3.18,1.32,6.27,2.04,9.3l-1.39,.48L157.56,1.64c-.26-.97-1.14-1.64-2.15-1.64h-9.21c-1.01,0-1.83,.81-1.85,1.82l-.52,42.31c-.01,1.09,.87,1.99,1.96,1.99h8.26c1.04,0,1.88-.87,1.81-1.91-.24-3.91-.81-8.81-1.69-14.72-.53-3.41-1.12-6.74-1.77-9.98-.65-3.25-1.38-6.45-2.19-9.61l1.39-.48,9.72,35.58c.18,.66,.78,1.12,1.47,1.12h1.16c.88,0,1.53-.79,1.39-1.66-.18-1.14-.12-2.34,.21-3.58,.97-3.55,4.31-6.02,7.99-6.02Z"/><path class="e" d="M174.25,37.92c-.23-.03-.46-.05-.69-.05-2.93,0-5.31,2.38-5.31,5.31,0,1.09,.33,2.1,.89,2.94,.95,1.43,2.58,2.37,4.42,2.37,2.94,0,5.31-2.37,5.31-5.31,0-2.7-2.01-4.93-4.62-5.26Z"/></g></g></g></svg>