<?xml version="1.0" encoding="UTF-8"?><svg xmlns="http://www.w3.org/2000/svg" xmlns:xlink="http://www.w3.org/1999/xlink" viewBox="0 0 1080 291.06"><defs><style>.e{fill:url(#d);}.f{fill:none;}</style><linearGradient id="d" x1="0" y1="154.89" x2="1080" y2="154.89" gradientTransform="matrix(1, 0, 0, 1, 0, 0)" gradientUnits="userSpaceOnUse"><stop offset="0" stop-color="#0092ff"/><stop offset=".22" stop-color="#0394ff"/><stop offset=".43" stop-color="#0f9bff"/><stop offset=".64" stop-color="#23a7ff"/><stop offset=".85" stop-color="#3fb8ff"/><stop offset="1" stop-color="#57c7ff"/></linearGradient></defs><g id="a"/><g id="b"><g id="c"><path class="e" d="M581.61,224.69c1.86-.61,1.35-2.94-.25-3.54-2.48-.92-4.5,1.11-5.72,2.99-.32,.49-.56,1.04-1.11,1.31-.44,.21-1.03,.18-1.51,.3-1.13,.3-2.21,.84-3.13,1.57-1.77,1.4-2.9,3.38-3.25,5.61-.06,.38-.49,.82-.87,.87-1.01,.15-1.38-.15-2.07-.88-.71-.75-1.48-1.46-2.3-2.1-1.58-1.24-3.37-2.28-5.24-3.01-.76-.29-1.54-.47-2.3-.73-.77-.26-.88-.74-1.24-1.43-.74-1.44-2.12-2.52-3.72-2.84-1.65-.34-3.19,.14-4.49,1.14-.7,.54-1.35,.42-2.2,.38-1.08-.05-2.15-.1-3.23-.16-4.38-.21-8.76-.42-13.14-.63-1.97-.1-4.23-.48-6.15,.11-1.2,.37-2.54,1.59-2.12,2.9,9.93,2.72,19.83,5.53,29.76,8.25,1.55,.42,.89,2.83-.67,2.41-5.05-1.38-10.1-2.79-15.15-4.2-.52-.15-1.04-.29-1.55-.43-.21,2.96,3.49,4.77,5.93,5.58,3.11,1.03,6.38,1.31,9.63,1.54,.31-.12,.67-.11,1.03,.12,3.37,2.12,6.38,4.74,8.92,7.82,.71,.86,.07,2.57-1.21,2.09-5.4-2.01-11.31-1.62-16.35,1.18-.47,.26-1.14,.21-1.52-.2-2.11-2.31-5.2-2.53-7.43-.52,.08,.1,.15,.2,.24,.29,.38,.37,.83,.67,1.31,.89,1.04,.47,2.15,.52,3.24,.2,.83-.25,1.51,.42,1.58,1.2,.07,.78,1.4,1.13,2,.95,.68-.19,.81-.94,1.45-1.28,1.48-.77,3.23-1.07,4.87-1.25,3.59-.39,7.38,.1,10.79,1.23,.74,.24,1.71,.47,2.36,.92,.73,.49,.79,1.59,.93,2.39,.33,1.93,.39,3.85,.13,5.78-.24,1.79-.75,3.49-1.45,5.11l20.25-.89c3.26-7.47,2.31-16.21-2.29-23-.58-.85-1.21-1.67-1.9-2.44-.7-.78-1.64-1.43-2.28-2.25-.97-1.22-.09-3.59,.52-4.82,1.54-3.13,4.88-5.3,8.29-5.79,.54-.08,1.11,.04,1.41,.57,.75,1.37,2.38-.3,.9-1.03-1.02-.5-.65-1.97,.3-2.28Zm-34.02,1.13c-1.61,0-1.6-2.5,0-2.5s1.61,2.5,0,2.5Zm148.58,13.25c-2.08-.09-4.18-.41-6.19-.96-2.02-.55-3.98-1.33-5.82-2.31-.22-.12-.45-.25-.67-.37-1.77,2.46-4.21,4.23-6.75,5.86-2.82,1.8-5.55,3.57-7.86,6.02-3.68,3.92-6.61,9.21-6.82,14.67l16.27-.71c.08-.52,.19-1.05,.35-1.57,.95-3.24,3.17-5.8,5.76-7.89,4.61-3.71,10.96-6.91,13.31-12.69-.55-.01-1.08-.03-1.58-.05Zm5.62-17.42c-.14-2.1-1.06-4.15-2.93-5.23-1.36-.78-2.99-.98-4.46-.53,.81,.62,.56,2.26-.75,2.26-.78,0-1.18-.59-1.2-1.2-.61,.49-1.13,1.07-1.56,1.71,0,.13,.02,.26,.02,.38,.01,.07,.02,.13,.04,.19,.03,.13,.07,.25,.12,.37l.09,.18c.07,.13,.15,.26,.23,.38,.02,.02,.03,.04,.05,.06h0s.04,.05,.05,.07c.18,.21,.39,.39,.6,.58,.06,.05,.13,.09,.19,.14,.13,.08,.26,.16,.38,.23,.15,.08,.29,.16,.44,.23,.12,.07,.31,.11,.43,.2h.01l.21,.09,.42,.15c.31,.11,.63,.21,.94,.31,.67,.22,1.03,.86,.87,1.54-.14,.64-.91,1.08-1.54,.87-1.49-.48-2.97-1.01-4.18-2.04-.24-.21-.46-.44-.66-.68-.37,1.55-.62,3.13-1.05,4.68,.15,.05,.29,.11,.44,.16,3.76,1.27,7.72,1.87,11.68,1.8,.74-2.21,1.27-4.57,1.12-6.9Zm-5.03-.69c-1.61,0-1.61-2.5,0-2.5s1.61,2.5,0,2.5Zm5.62,10.02c-4.16,.27-8.37-.17-12.38-1.3-1-.28-1.98-.61-2.95-.99-.71-.27-1.49-.89-2.05-.15-.6,.78-1.11,1.99-1.5,2.89-.46,1.08,.4,1.35,1.27,1.85,3.47,1.98,7.42,3.12,11.4,3.29,.99,.04,1.98,.02,2.97-.05,.74-.05,2.06,.05,2.53-.62,.27-.4,.37-1.15,.53-1.61,.19-.54,.39-1.07,.58-1.61,.24-.65,.71-1.69-.4-1.7ZM0,66.15v224.91l354.22-15.56c.07-3.34,.11-6.69,.16-10.02,.27-19.13,.48-38.27,1.36-57.38,.16-2.33,.95-4.53,2.55-6.26,2.49-2.69,6.49-3.68,10-2.81,3.52,.87,6.08,3.62,6.96,7.05,15.76-2.53,31.8-2.86,47.64-.9,.92-2.37,3.55-3.97,5.87-4.63,2.97-.86,5.67-.13,7.53,2.4,1.79,2.42,1.98,5.63,1.85,8.53-.16,3.55-.76,7.05-.97,10.59,6.09,4.54,7.23,16.35,.22,20.46-.25,8.95-.64,17.9-.88,26.85-.04,1.61-2.54,1.61-2.5,0,.25-9.19,.65-18.38,.9-27.57,.01-.42,.22-.89,.62-1.08,6.22-3.04,5.08-13.67-.29-16.99-.36-.22-.64-.63-.62-1.08,.15-3.03,.6-6.02,.87-9.04,.23-2.53,.46-5.31-.43-7.74-.38-1.03-1.03-1.96-1.92-2.61-.93-.69-2.02-.7-3.12-.46-2.06,.44-4.64,1.78-5,4.06-.07,.49-.71,.99-1.2,.92-16.34-2.11-32.96-1.83-49.21,.9-.59,.16-1.44-.2-1.54-.87-.26-1.8-.93-3.46-2.27-4.72-2.05-1.9-5.09-2.31-7.67-1.46-2.81,.91-4.68,3.43-4.89,6.46-.26,5.59-.45,11.2-.61,16.8-.48,16.83-.52,33.66-.91,50.49l196.81-8.64c1.74-3.53,2.43-7.35,1.55-11.45-4.47-1.86-10.56-2.68-15.06-.67-1.54,2.41-5.42,1.94-6.74-.42-1.67,.2-3.38-.17-4.79-1.11-1.35-.9-3.11-2.66-1.75-4.24,2.87-3.32,7.65-3.28,10.76-.56,4.11-2.05,8.72-2.77,13.2-2.07-1.56-1.49-3.25-2.84-5.07-4.02-4.19-.3-8.46-.68-12.34-2.39-3.17-1.4-6.39-4.24-5.79-7.92-3.1-.87-6.2-1.74-9.3-2.59-.86-.24-2.03-.32-2.6-1.08-.42-.58-.62-1.38-.62-2.09,0-1.53,.85-3,2.04-3.91,1.56-1.19,3.61-1.38,5.51-1.34,2.26,.05,4.52,.21,6.78,.32,4.58,.22,9.16,.44,13.74,.66,4-3.13,9.67-1.48,11.89,2.92,3.64,.92,7.05,3,9.77,5.62,1.32-3.74,4.67-6.5,8.58-7.23,1.07-1.66,2.24-3.25,4.09-4.09,1.83-.84,4.14-.91,5.87,.23,2.52,1.67,2.61,5.01,.67,6.82,.7,1.23,.69,2.88-.36,3.95-1.31,1.34-3.48,1.13-4.73-.09-3.22,.76-6.26,3.21-6.49,6.65,7.99,7.31,10.83,18.95,7.05,28.97l80.2-3.53c.17-5.52,2.72-10.82,6.24-15.09,2.23-2.71,4.93-4.86,7.88-6.75,2.82-1.81,5.84-3.54,7.79-6.34-.47-.57-.77-1.27-.7-2.17,.08-1.07,.81-2.09,1.29-3.02,.45-.87,.81-1.83,1.62-2.44,.81-.61,1.64-.67,2.48-.5,.67-2.49,.84-5.14,1.99-7.47,1.09-2.19,3.18-4.12,5.53-4.85,2.47-.77,5.3-.14,7.33,1.43,4.17,3.25,3.64,9.1,2.23,13.72,1.68,.45,2.7,2.12,2.21,3.93-.32,1.22-.87,2.42-1.28,3.62-.36,1.07-.85,1.93-1.94,2.38-.55,.22-1.16,.36-1.8,.45-1.77,5.55-6.97,9.41-11.54,12.6-2.68,1.86-5.5,3.91-7.06,6.86-.44,.83-.78,1.75-.98,2.71l399.12-17.53V18.73L0,66.15ZM418.24,210.22c1.61,0,1.61,2.5,0,2.5s-1.61-2.5,0-2.5Zm-15.32,1.79c1.61,0,1.61,2.5,0,2.5s-1.61-2.5,0-2.5Zm-8.92,3.07c.08-.32,.31-.58,.58-.75,.26-.17,.66-.21,.96-.13,.27,.08,.63,.31,.75,.58,.64,1.41,1.29,2.82,1.93,4.23,.15,.32,.2,.61,.13,.96-.08,.32-.31,.58-.58,.75-.26,.17-.66,.21-.96,.12-.27-.07-.63-.3-.75-.57-.64-1.41-1.29-2.82-1.93-4.23-.15-.32-.2-.62-.13-.96Zm-6.15-.54c.54-.34,1.42-.14,1.71,.45,1.13,2.33,2.27,4.65,3.41,6.98,.3,.63,.15,1.32-.45,1.71-.54,.35-1.42,.14-1.71-.45-1.14-2.33-2.27-4.65-3.41-6.98-.31-.63-.16-1.32,.45-1.71Zm-6,4.12c.08-.32,.31-.57,.58-.74,.26-.17,.66-.21,.96-.13,.27,.08,.62,.31,.75,.58,.64,1.4,1.28,2.81,1.93,4.22,.15,.33,.2,.62,.12,.97-.07,.32-.3,.57-.57,.74s-.66,.21-.96,.13c-.28-.08-.63-.31-.75-.57-.64-1.41-1.29-2.82-1.93-4.23-.15-.32-.21-.62-.13-.97Zm27.93,27.39c-9.63,3.54-19.27,7.08-28.9,10.62,.18,.55,.37,1.1,.55,1.64,.23,.67-.26,1.34-.87,1.54-.67,.22-1.33-.25-1.54-.87-.16-.48-.32-.97-.48-1.45-2.99,1.1-5.97,2.19-8.95,3.29-1.52,.56-2.17-1.86-.67-2.41,1.34-.49,2.68-.99,4.02-1.48,0-.03-.01-.05-.01-.08,.07-2.78,.13-5.56,.19-8.34,.02-.7,.56-1.22,1.25-1.25,.67-.03,1.27,.59,1.25,1.25-.05,2.5-.11,5-.17,7.5,.76-.28,1.53-.56,2.29-.84-.24-.72-.48-1.44-.73-2.16-.22-.66,.26-1.34,.88-1.54,.67-.21,1.33,.26,1.54,.87,.22,.66,.44,1.31,.65,1.97,9.68-3.56,19.36-7.12,29.03-10.67,1.52-.56,2.17,1.86,.67,2.41Zm13.98-27.28c-5.32,5.74-13.28,8.8-21.07,8.04-1.59-.16-1.6-2.66,0-2.5,7.19,.7,14.39-2,19.3-7.31,1.09-1.18,2.86,.59,1.77,1.77Zm261.24,9.77c-.6,.78-1.11,1.99-1.5,2.89-.46,1.08,.4,1.35,1.27,1.85,3.47,1.98,7.42,3.12,11.4,3.29,.99,.04,1.98,.02,2.97-.05,.74-.05,2.06,.05,2.53-.62,.27-.4,.37-1.15,.53-1.61,.19-.54,.39-1.07,.58-1.61,.24-.65,.71-1.69-.4-1.7-4.16,.27-8.37-.17-12.38-1.3-1-.28-1.98-.61-2.95-.99-.71-.27-1.49-.89-2.05-.15Zm9.44-3.91c-1.49-.48-2.97-1.01-4.18-2.04-.24-.21-.46-.44-.66-.68-.37,1.55-.62,3.13-1.05,4.68,.15,.05,.29,.11,.44,.16,3.76,1.27,7.72,1.87,11.68,1.8,.74-2.21,1.27-4.57,1.12-6.9-.14-2.1-1.06-4.15-2.93-5.23-1.36-.78-2.99-.98-4.46-.53,.81,.62,.56,2.26-.75,2.26-.78,0-1.18-.59-1.2-1.2-.61,.49-1.13,1.07-1.56,1.71,0,.13,.02,.26,.02,.38,.01,.07,.02,.13,.04,.19,.03,.13,.07,.25,.12,.37l.09,.18c.07,.13,.15,.26,.23,.38,.02,.02,.03,.04,.05,.06h0s.04,.05,.05,.07c.18,.21,.39,.39,.6,.58,.06,.05,.13,.09,.19,.14,.13,.08,.26,.16,.38,.23,.15,.08,.29,.16,.44,.23,.12,.07,.31,.11,.43,.2h.01l.21,.09,.42,.15c.31,.11,.63,.21,.94,.31,.67,.22,1.03,.86,.87,1.54-.14,.64-.91,1.08-1.54,.87Zm2.32-6.17c1.61,0,1.61,2.5,0,2.5s-1.61-2.5,0-2.5Zm-115.15,6.23c1.86-.61,1.35-2.94-.25-3.54-2.48-.92-4.5,1.11-5.72,2.99-.32,.49-.56,1.04-1.11,1.31-.44,.21-1.03,.18-1.51,.3-1.13,.3-2.21,.84-3.13,1.57-1.77,1.4-2.9,3.38-3.25,5.61-.06,.38-.49,.82-.87,.87-1.01,.15-1.38-.15-2.07-.88-.71-.75-1.48-1.46-2.3-2.1-1.58-1.24-3.37-2.28-5.24-3.01-.76-.29-1.54-.47-2.3-.73-.77-.26-.88-.74-1.24-1.43-.74-1.44-2.12-2.52-3.72-2.84-1.65-.34-3.19,.14-4.49,1.14-.7,.54-1.35,.42-2.2,.38-1.08-.05-2.15-.1-3.23-.16-4.38-.21-8.76-.42-13.14-.63-1.97-.1-4.23-.48-6.15,.11-1.2,.37-2.54,1.59-2.12,2.9,9.93,2.72,19.83,5.53,29.76,8.25,1.55,.42,.89,2.83-.67,2.41-5.05-1.38-10.1-2.79-15.15-4.2-.52-.15-1.04-.29-1.55-.43-.21,2.96,3.49,4.77,5.93,5.58,3.11,1.03,6.38,1.31,9.63,1.54,.31-.12,.67-.11,1.03,.12,3.37,2.12,6.38,4.74,8.92,7.82,.71,.86,.07,2.57-1.21,2.09-5.4-2.01-11.31-1.62-16.35,1.18-.47,.26-1.14,.21-1.52-.2-2.11-2.31-5.2-2.53-7.43-.52,.08,.1,.15,.2,.24,.29,.38,.37,.83,.67,1.31,.89,1.04,.47,2.15,.52,3.24,.2,.83-.25,1.51,.42,1.58,1.2,.07,.78,1.4,1.13,2,.95,.68-.19,.81-.94,1.45-1.28,1.48-.77,3.23-1.07,4.87-1.25,3.59-.39,7.38,.1,10.79,1.23,.74,.24,1.71,.47,2.36,.92,.73,.49,.79,1.59,.93,2.39,.33,1.93,.39,3.85,.13,5.78-.24,1.79-.75,3.49-1.45,5.11l20.25-.89c3.26-7.47,2.31-16.21-2.29-23-.58-.85-1.21-1.67-1.9-2.44-.7-.78-1.64-1.43-2.28-2.25-.97-1.22-.09-3.59,.52-4.82,1.54-3.13,4.88-5.3,8.29-5.79,.54-.08,1.11,.04,1.41,.57,.75,1.37,2.38-.3,.9-1.03-1.02-.5-.65-1.97,.3-2.28Zm-34.02,1.13c-1.61,0-1.6-2.5,0-2.5s1.61,2.5,0,2.5Z"/><rect class="f" width="1080" height="291.06"/></g></g></svg>