<?xml version="1.0" encoding="UTF-8"?><svg xmlns="http://www.w3.org/2000/svg" viewBox="0 0 1080 272.33"><defs><style>.d{fill:#fff;}.e{fill:none;}.f{fill:#40a4ff;}.g{fill:#f7f8f9;}</style></defs><g id="a"/><g id="b"><g id="c"><g><path class="d" d="M469.21,49.75v-2.25s.02,.04,.03,.05c0,.01,.04,.03,.04,.03,.31-.36,.48-.81,.82-1.16,4.68-4.67,9.35-9.34,14.02-14.02,.27-.27,.41-.28,.69,0,1.58,1.61,3.17,3.19,4.77,4.78,.23,.23,.29,.42,.2,.76-.45,1.67,.18,3.3,1.64,4.14,.36,.21,.47,.43,.47,.83-.01,3.98-.02,7.96,0,11.95,0,.47-.12,.73-.55,.98-1.4,.83-2.02,2.48-1.59,4.06,.41,1.5,1.82,2.61,3.35,2.64,1.72,.04,3.12-.93,3.64-2.49,.51-1.53-.05-3.23-1.41-4.12-.37-.25-.46-.51-.46-.91,.01-3.9,0-7.8,.01-11.7,0-.2-.07-.41,.06-.6,.22,.03,.31,.21,.44,.34,1.36,1.35,2.7,2.72,4.08,4.06,.31,.3,.36,.56,.25,.97-.35,1.37,.03,2.57,1.05,3.52,1.01,.93,2.21,1.22,3.53,.82,1.86-.57,2.95-2.48,2.49-4.32-.48-1.92-2.27-3.09-4.22-2.74-.33,.06-.6,.11-.89-.19-1.54-1.58-3.11-3.14-4.68-4.69-.19-.19-.27-.35-.2-.65,.56-2.75-1.61-4.95-4.36-4.41-.32,.06-.5-.02-.7-.23-1.62-1.63-3.23-3.25-4.87-4.86-.28-.27-.28-.42,0-.69,.99-.96,1.94-1.95,2.93-2.91,.68-.66,1.26-1.46,2.18-1.84,.08-.03,.1-.12-.01-.17h2.25s-.04,.02-.05,.03c-.01,.01-.02,.04-.02,.04,.54,.35,1.06,.7,1.52,1.16,6.74,6.75,13.48,13.49,20.23,20.23,.38,.38,.75,.78,.97,1.29,.04,.08,.04,.34,.25,.14v2.13s-.05-.04-.09-.06c0,0-.04,.02-.05,.04-.4,1.03-1.27,1.69-2.02,2.43-6.3,6.31-12.61,12.61-18.91,18.92-.54,.54-1.06,1.13-1.81,1.4-.07,.03-.14,.09-.03,.17h-2.13s.04-.02,.05-.03c.01,0,.03-.03,.03-.03-.36-.35-.85-.49-1.2-.86-1.01-1.05-2.07-2.06-3.1-3.09-5.74-5.74-11.48-11.48-17.23-17.22-.49-.49-1-.95-1.26-1.61-.02-.06-.09-.22-.2-.05Z"/><path class="d" d="M309.17,87.4c-1.01,.52-1.63,1.29-2.11,2.19-.1,.18-.25,.19-.42,.2-2.49,.18-4.53-1-5.15-3.61-.31-1.3-.9-2.46-2.16-3.12-.33-.17-.68-.27-1.05-.27-.36,0-.51,.18-.39,.52,.08,.23,.19,.46,.35,.64,1.02,1.13,1.33,2.53,1.45,3.96,.13,1.64,.91,2.78,2.31,3.57,1.05,.59,2.18,.92,3.37,1.09,.56,.08,.55,.09,.38,.62-.34,1.06-.65,2.12-.99,3.18-.34,1.07-1.12,1.25-2.02,.56-1.87-1.43-3.49-3.1-4.82-5.04-1.77-2.58-2.96-5.39-3.53-8.47-.33-1.82-.45-3.64-.33-5.48,.05-.8,.18-1.6,.29-2.4,.18-1.32,.6-2.58,1.05-3.82,.6-1.68,1.47-3.23,2.47-4.7,1.24-1.84,2.74-3.44,4.48-4.81,2.9-2.27,6.16-3.74,9.8-4.39,2.26-.4,4.53-.45,6.79-.14,1.43,.2,2.87,.42,4.22,.95,2.76,1.1,5.34,2.51,7.55,4.56,3.5,3.23,5.73,7.16,6.73,11.79,.61,2.85,.59,5.72,.06,8.6-.27,1.48-.71,2.9-1.27,4.28-.56,1.37-1.29,2.67-2.14,3.91-1.24,1.8-2.69,3.39-4.4,4.76-2.37,1.9-5.02,3.25-7.94,4.06-1.73,.48-3.49,.75-5.29,.78-1.22,.02-1.65-.57-1.27-1.74,.59-1.81,1.19-3.62,1.78-5.43,.43-1.33,.57-2.67,.01-4.01-.03-.08-.12-.17-.02-.25,.1-.08,.2,0,.31,.02,2.33,.42,4.64,.55,6.9-.37,1.59-.65,2.8-1.76,3.73-3.16,1-1.51,1.7-3.16,2.06-4.94,.33-1.64,.19-3.23-.46-4.78-.11-.27-.08-.45,.09-.7,.87-1.23,1.26-2.62,1.35-4.11,0-.02,0-.03,0-.05,0-1.25-.18-1.43-1.46-1.52-1.29-.09-2.56,.02-3.78,.39-.86,.26-1.49,.11-2.26-.35-2.27-1.35-4.75-2.2-7.38-2.55-.59-.08-1.18-.13-1.77-.17-.18-.01-.27-.09-.37-.21-.87-1.05-1.79-2.06-2.9-2.87-.51-.37-1.04-.67-1.65-.86-.27-.08-.43-.01-.59,.19-1.09,1.45-1.74,3.06-1.78,4.89,0,.21-.03,.34-.22,.45-2.46,1.48-3.64,3.79-4.2,6.5-.3,1.48-.43,2.97-.14,4.48,.42,2.23,1.65,3.9,3.42,5.24,1,.76,2.1,1.33,3.31,1.92Z"/><g><path class="d" d="M78.89,197.58c-.94-.62-1.97-1.14-2.8-1.89-3.07-2.76-3.34-4.74-1.16-8.25,1.71-2.75,3.86-5.17,5.94-7.63,2.68-3.17,4.13-6.68,2.85-11.02,2.45,2.6,2.63,6.78,.44,10.28-1.21,1.94-2.57,3.8-3.91,5.66-2.9,4-5.29,8.03-1.35,12.85Z"/><path class="d" d="M69.87,223.69c-1.14,1.61-.49,2.26,1.22,2.19,2.46-.1,4.94-.06,7.36-.41,7.66-1.12,15.22-2.67,22.53-5.3,.75-.27,1.56-.58,2.76-.21-3.4,2.28-7.01,3.39-10.64,4.24-7.19,1.69-14.41,3.36-21.83,3.8-.93,.05-1.87,.08-2.8,.01-1.06-.08-2.52,.16-2.78-1.18-.23-1.19,.97-1.85,1.92-2.43,.65-.39,1.24-.93,2.23-.7Z"/><path class="d" d="M87.52,201.19c-.11-2.72-1.72-4.11-3.23-5.61-3.23-3.19-3.5-6.41-.75-9.97,1.98-2.56,4.5-4.49,7.58-5.74-1.51,1.76-3.15,3.43-4.52,5.3-2.63,3.59-2.45,4.87,.78,8.06,2.76,2.72,2.92,5.02,.13,7.97Z"/><path class="d" d="M95.16,209.71c-6.3,3.35-12.96,4.71-19.97,4.56-.86-.02-1.82-.06-2.21-.94-.35-.78,.15-1.47,.77-1.99,.6-.5,1.06-1.1,1.42,.34,.22,.9,1.44,.64,2.27,.6,4.56-.21,8.84-1.63,13.14-2.99,1.57-.5,3.09-1.19,4.59,.42Z"/><path class="d" d="M95.62,216.21c-5.57,3.23-11.31,4.74-17.53,4.14-.89-.09-1.94-.24-2.23-1.38-.17-.66,.26-1.13,.74-1.51,.25-.19,.69-.52,.82-.44,3.62,2.33,6.98-.2,10.44-.57,.84-.09,1.75-.24,2.45-.66,1.78-1.07,3.37-.62,5.31,.42Z"/><path class="d" d="M72.49,204.53c-.04,1.11-1.65,1.34-1,2.28,.43,.62,1.4,.33,2.16,.35,5.31,.1,10.2-1.71,15.17-3.22,2.14-.65,4.28-1.31,6.64-2.03-.68,1.17-1.49,1.72-2.45,2.05-7.33,2.51-14.77,4.54-22.56,4.92-.59,.03-1.18,0-1.78-.03-.58-.03-1.35,.11-1.55-.57-.19-.65,.5-1.02,.96-1.37,1.28-.95,2.61-1.84,4.41-2.38Z"/><path class="d" d="M78.13,229.48c10.35-2.07,20.97-3.1,30.25-8.76-8.94,6.75-19.53,8.03-30.25,8.76Z"/><path class="d" d="M98.76,198.67c2.87-1.45,5.36-1.08,6.83,.88,1.28,1.71,.94,3.83-1,6.23-1.22,1.51-2.3,2.29-4.13,2.92,1.6-2.75,4.73-4.99,2.84-8.6-.92-1.77-2.84-1.53-4.54-1.43Z"/></g><g><path class="d" d="M904.76,176.64c0-3.93-.01-7.87,0-11.8,0-1.29,.58-2.32,1.63-3.09,.87-.63,1.83-1.1,2.74-1.66,.78-.48,1.63-.86,2.38-1.37,1.3-.89,2.74-1.55,4.08-2.38,.99-.62,2.02-1.19,3.06-1.73,.91-.48,1.78-1.05,2.66-1.57,.79-.47,1.59-.92,2.37-1.4,.94-.58,1.95-1.02,2.87-1.64,.47-.32,1.04-.53,1.66-.47,.6,.07,1.2-.07,1.8,.09,.39,.1,.74,.28,1.07,.47,1.53,.88,3.04,1.79,4.56,2.68,1.43,.84,2.88,1.65,4.31,2.49,1.4,.81,2.81,1.6,4.21,2.41,.95,.55,1.89,1.12,2.85,1.64,.9,.49,1.76,1.07,2.67,1.55,.72,.38,1.39,.82,1.96,1.41,.6,.63,.95,1.37,1.03,2.24,.27,2.92,.09,5.85,.11,8.78,.04,4.81,.03,9.62,0,14.42,0,1.22-.36,2.38-1.27,3.27-.57,.56-1.3,.92-1.99,1.31-1.1,.63-2.2,1.26-3.3,1.89-.88,.5-1.76,1.01-2.63,1.52-.83,.48-1.65,.99-2.49,1.45-1.15,.62-2.27,1.29-3.41,1.92-.87,.47-1.72,.98-2.57,1.5-.59,.37-1.18,.74-1.8,1.06-.79,.42-1.54,.9-2.31,1.35-.87,.51-1.8,.79-2.8,.65-.95-.13-1.79-.59-2.6-1.1-1.09-.68-2.23-1.27-3.3-1.98-.94-.62-2-1.03-2.84-1.81-.29-.27-.15-.37,.08-.52,.38-.25,.83-.32,1.24-.5,.65-.29,1.31-.56,1.9-.97,.15-.1,.3-.14,.5-.03,1.51,.87,3.03,1.72,4.49,2.67,.25,.16,.52,.28,.77,.42,.14,.08,.24,.06,.38,0,.9-.42,1.71-1.01,2.58-1.48,.93-.5,1.84-1.06,2.76-1.58,.84-.48,1.68-.95,2.51-1.43,.89-.51,1.78-1.02,2.67-1.53,.99-.57,1.97-1.17,2.96-1.73,1.1-.63,2.22-1.23,3.32-1.87,1.04-.6,2.06-1.22,3.08-1.85,.19-.12,.27-.31,.28-.57,.05-1.09-.14-2.18-.09-3.27,.02-.47,.19-.92,.15-1.41-.09-1-.17-2.01-.15-3.02,0-.46,.17-.9,.15-1.37-.05-1.04-.2-2.06-.14-3.11,.04-.65,.24-1.3,.12-1.96-.14-.84-.09-1.67-.13-2.51-.02-.43,.17-.82,.14-1.25-.12-1.58-.17-3.17-.13-4.75,0-.33-.22-.47-.45-.6-.4-.23-.83-.42-1.21-.65-.5-.3-1-.61-1.51-.89-.79-.44-1.58-.89-2.36-1.34-1.36-.79-2.73-1.57-4.08-2.38-1.53-.92-3.09-1.77-4.62-2.69-.98-.59-1.99-1.13-2.98-1.7-.61-.35-1.22-.72-1.87-1.02-.32-.15-.58-.43-.92-.57-.17-.07-.3-.07-.47,0-.7,.33-1.3,.83-1.99,1.16-1.04,.49-1.95,1.18-2.98,1.69-.88,.43-1.69,.99-2.53,1.48-1.05,.6-2.11,1.19-3.15,1.79-1.1,.64-2.19,1.29-3.28,1.93-1.06,.62-2.11,1.27-3.19,1.83-.76,.4-1.46,.91-2.25,1.27-.41,.18-.6,.45-.6,.94,.02,7.47,.01,14.94,0,22.42,0,.37,.11,.59,.43,.77,.66,.36,1.3,.76,1.95,1.13,.95,.55,1.9,1.1,2.86,1.66,.95,.55,1.98,.81,3.06,.67,.59-.08,1.07-.45,1.43-.95,.36-.5,.47-1.04,.47-1.66-.02-7.37-.01-14.75-.01-22.12,0-.64,.24-.89,.89-.89,.73,0,1.47,0,2.2,0,.48,0,.75,.25,.77,.73,.01,.28,0,.56,0,.85,0,7.34,.02,14.69-.02,22.03,0,1.59-.41,3.14-1.56,4.32-.63,.64-1.44,1.13-2.35,1.3-.76,.15-1.52,.3-2.32,.28-1.21-.03-2.33-.36-3.42-.84-1.49-.67-2.84-1.6-4.25-2.41-.68-.39-1.4-.7-2.05-1.14-.74-.51-1.24-1.23-1.61-2.05-.22-.48-.22-.97-.22-1.48,0-3.78,0-7.56,0-11.34h0Zm47.78,0c0-.56,0-1.13,0-1.69,0-3.2,0-6.4-.01-9.6,0-.85-.12-1.7-.63-2.41-.69-.98-1.72-1.57-2.74-2.12-1.89-1.01-3.69-2.15-5.55-3.2-1.27-.71-2.53-1.46-3.78-2.21-1.75-1.04-3.53-2.04-5.31-3.02-.79-.43-1.56-.88-2.32-1.35-.6-.37-1.23-.69-1.85-1-1.31-.64-2.61-.39-3.83,.28-.69,.38-1.33,.84-2.03,1.21-1.33,.69-2.56,1.55-3.89,2.24-1.19,.62-2.32,1.37-3.49,2.03-.89,.5-1.75,1.08-2.66,1.55-1.15,.59-2.24,1.27-3.35,1.92-1.27,.73-2.5,1.53-3.8,2.2-1.69,.86-2.44,2.29-2.29,4.15,.05,.61,.04,1.2,.05,1.81,0,4.81,0,9.62,0,14.42,0,.49,.1,.99,.06,1.48-.13,1.66-.06,3.33-.05,4.99,0,.94,.38,1.76,1.07,2.44,.41,.4,.86,.7,1.35,.98,1.19,.66,2.35,1.38,3.54,2.05,1.2,.68,2.4,1.35,3.76,1.68,1.72,.42,3.38,.18,4.94-.55,1.23-.57,1.86-1.71,2.28-2.96,.3-.91,.31-1.86,.31-2.8,.02-4.64,0-9.28,0-13.92,0-.37-.07-.73-.05-1.1,.12-2.28,.02-4.57,.05-6.85,0-.51-.17-.68-.7-.67-.73,0-1.46,.05-2.2,.07-.33,0-.5,.16-.5,.49,0,.16,0,.31,0,.47,0,7.3,0,14.61,0,21.91,0,1.7-1.34,2.94-3.16,2.73-1.28-.14-2.3-.87-3.38-1.47-1.12-.62-2.21-1.3-3.33-1.92-.56-.31-.89-.69-.86-1.36,.07-1.97-.03-3.94-.02-5.91,.03-3.82,.1-7.64-.05-11.46-.06-1.46,.15-2.93,.06-4.39-.05-.79,.1-1.4,.98-1.6,.04,0,.07-.04,.11-.06,1.21-.85,2.54-1.5,3.81-2.23,.97-.56,1.95-1.12,2.92-1.69,.76-.45,1.5-.96,2.28-1.36,1.23-.63,2.35-1.42,3.59-2.03,.62-.31,1.16-.74,1.77-1.06,.89-.46,1.72-1.01,2.6-1.48,.67-.36,1.32-.75,1.99-1.11,.32-.17,.63-.18,.96,.02,.82,.5,1.64,1.02,2.49,1.46,1.44,.76,2.87,1.56,4.27,2.38,1.18,.69,2.35,1.39,3.52,2.07,1.09,.64,2.19,1.27,3.29,1.89,.91,.51,1.82,1.01,2.71,1.54,1.03,.6,2.08,1.17,3.09,1.81,.34,.22,.56,.47,.61,.86,.05,.42,.08,.84,.1,1.26,.04,1.3-.15,2.59-.07,3.89,.09,1.46,.06,2.93,0,4.39,0,.15,0,.31,.02,.46,.1,.73,.09,1.47,.04,2.2-.11,1.58-.04,3.16-.06,4.73-.02,1.86,0,3.72,0,5.58,0,.36-.01,.72-.38,.93-1.07,.61-2.15,1.21-3.21,1.83-1.05,.61-2.08,1.23-3.11,1.87-.73,.45-1.5,.83-2.23,1.27-.76,.46-1.55,.9-2.34,1.31-1.42,.75-2.76,1.66-4.17,2.44-1.35,.75-2.67,1.56-4.03,2.3-.47,.26-.95,.64-1.53,.36-.31-.15-.58-.39-.88-.57-1.1-.68-2.26-1.27-3.35-1.96-.58-.37-1.22-.56-1.89-.07-.62,.45-1.3,.79-2.07,.88-.15,.02-.28,.11-.31,.26-.04,.19,.12,.29,.25,.35,.82,.41,1.58,.93,2.35,1.41,.78,.48,1.61,.85,2.38,1.35,.97,.62,1.93,1.28,3.09,1.61,1.11,.31,2.08,.07,3-.43,1.65-.9,3.26-1.89,4.9-2.81,.68-.38,1.3-.85,1.97-1.21,.63-.34,1.27-.66,1.88-1.03,1.19-.74,2.44-1.37,3.63-2.12,1.13-.71,2.32-1.31,3.48-1.98,1.27-.74,2.53-1.5,3.81-2.24,1.38-.8,2.05-2.02,2.06-3.58,.02-3.74,0-7.47,0-11.21Z"/><path class="d" d="M926.2,179.89c.34,0,.68,.01,1.01,0,.9-.04,.82,.18,.94,.9,.22,1.37,.92,2.32,2.22,2.85,.93,.38,1.89,.56,2.9,.51,.5-.02,.98,.17,1.5,.13,.79-.06,1.6-.08,2.38-.15,.9-.08,1.81-.34,2.56-.92,.65-.5,1.08-1.48,.84-2.46-.13-.53-.42-.83-.85-1.05-.81-.42-1.67-.67-2.57-.79-.31-.04-.62-.14-.92-.22-.84-.19-1.71-.25-2.55-.29-1.25-.07-2.44-.4-3.66-.58-1.07-.16-2.04-.57-2.94-1.1-.9-.53-1.45-1.37-1.82-2.34-.31-.83-.42-1.69-.33-2.55,.12-1.26,.54-2.4,1.39-3.41,.84-.99,1.95-1.44,3.08-1.9,.84-.34,1.72-.48,2.63-.59,1.14-.14,2.28-.13,3.41-.06,1.75,.1,3.48,.39,5.09,1.18,.39,.19,.73,.47,1.05,.75,.47,.41,.93,.81,1.28,1.36,.41,.65,.67,1.34,.86,2.06,.13,.49,.3,.98,.25,1.52-.05,.56-.24,.79-.79,.79-.72,0-1.44-.04-2.16,.01-.69,.05-.87-.31-1.03-.85-.35-1.26-.98-2.23-2.3-2.69-.67-.24-1.34-.32-2.03-.42-1.29-.2-2.58-.15-3.85,.05-.93,.15-1.77,.54-2.42,1.3-.49,.58-.51,1.66,0,2.23,.53,.6,1.26,.73,1.97,.89,1.04,.24,2.11,.32,3.15,.55,.59,.13,1.21,.15,1.82,.24,.66,.1,1.31,.25,1.97,.32,.96,.1,1.88,.36,2.78,.7,.82,.31,1.66,.67,2.29,1.29,.65,.65,1.06,1.48,1.27,2.41,.19,.84,.17,1.7,.08,2.51-.13,1.13-.57,2.24-1.37,3.09-1.08,1.15-2.47,1.83-4.01,2.21-1.06,.26-2.11,.49-3.21,.44-.42-.02-.85,.16-1.29,.11-1.41-.15-2.83-.07-4.23-.43-.96-.25-1.9-.49-2.8-.93-1.23-.6-2.19-1.52-2.84-2.71-.59-1.08-.72-2.28-.61-3.5,.03-.29,.19-.45,.51-.44,.45,.01,.9,0,1.35,0Zm.02,.24c-.35,0-.71,0-1.06,0-.56,0-.67,.11-.66,.68,.03,1.59,.5,3,1.61,4.18,.38,.41,.81,.73,1.29,1.01,1,.59,2.06,1.08,3.21,1.24,1.89,.27,3.78,.49,5.71,.32,1.71-.14,3.34-.46,4.89-1.18,.74-.35,1.39-.87,1.94-1.47,.84-.91,1.19-2.06,1.32-3.28,.13-1.15-.08-2.26-.55-3.29-.39-.85-1.16-1.4-1.98-1.84-.91-.48-1.89-.76-2.91-.94-.97-.17-1.92-.44-2.9-.55-.35-.04-.71-.02-1.05-.08-1.19-.2-2.38-.47-3.58-.61-.77-.09-1.43-.41-2.08-.76-.43-.23-.77-.7-.75-1.16,.05-.83,.3-1.62,1.02-2.19,.67-.53,1.45-.76,2.26-.86,1.13-.15,2.28-.13,3.42-.1,.92,.02,1.82,.25,2.68,.56,1.34,.49,1.82,1.73,2.26,2.94,.1,.27,.19,.48,.49,.48,.82,0,1.63,0,2.45-.02,.29,0,.48-.2,.43-.51-.14-.9-.23-1.82-.67-2.65-.49-.91-1.15-1.63-1.98-2.29-1.18-.94-2.54-1.17-3.9-1.47-1.31-.29-2.67-.14-4-.16-1.7-.04-3.35,.32-4.89,1.11-1.08,.55-1.91,1.31-2.5,2.36-.22,.4-.24,.84-.39,1.24-.4,1.06-.28,2.09,0,3.15,.14,.52,.54,.89,.75,1.34,.28,.59,.74,.9,1.22,1.23,.86,.6,1.89,.79,2.86,1.07,1.14,.33,2.33,.38,3.5,.51,.66,.07,1.32,.12,1.97,.23,.73,.12,1.46,.35,2.19,.41,.7,.05,1.31,.32,1.89,.63,.36,.19,.74,.42,.94,.83,.42,.88,.05,2.32-.52,2.89-.82,.84-1.93,1.14-3.02,1.25-1.45,.14-2.92,.23-4.38,.05-.73-.09-1.45-.19-2.15-.4-.96-.29-1.76-.81-2.21-1.75-.24-.51-.42-1.05-.52-1.6-.07-.42-.3-.57-.7-.54-.32,.02-.65,0-.97,0Z"/><path class="d" d="M952.53,176.64c0,3.74,.02,7.47,0,11.21-.01,1.56-.69,2.78-2.06,3.58-1.27,.74-2.53,1.5-3.81,2.24-1.16,.67-2.35,1.27-3.48,1.98-1.19,.74-2.44,1.38-3.63,2.12-.61,.38-1.25,.7-1.88,1.03-.68,.36-1.29,.83-1.97,1.21-1.64,.92-3.25,1.91-4.9,2.81-.92,.5-1.89,.74-3,.43-1.16-.33-2.12-.99-3.09-1.61-.77-.49-1.61-.87-2.38-1.35-.78-.48-1.53-1-2.35-1.41-.13-.07-.29-.16-.25-.35,.03-.15,.16-.24,.31-.26,.78-.1,1.46-.43,2.07-.88,.67-.49,1.31-.3,1.89,.07,1.09,.69,2.25,1.29,3.35,1.96,.3,.18,.57,.42,.88,.57,.59,.28,1.06-.11,1.53-.36,1.36-.74,2.67-1.56,4.03-2.3,1.41-.78,2.75-1.69,4.17-2.44,.79-.42,1.58-.85,2.34-1.31,.73-.44,1.5-.82,2.23-1.27,1.03-.64,2.07-1.26,3.11-1.87,1.06-.62,2.14-1.22,3.21-1.83,.37-.21,.38-.57,.38-.93,0-1.86-.02-3.72,0-5.58,.02-1.58-.05-3.16,.06-4.73,.05-.73,.06-1.46-.04-2.2-.02-.15-.02-.31-.02-.46,.06-1.46,.09-2.93,0-4.39-.08-1.3,.11-2.59,.07-3.89-.01-.42-.05-.84-.1-1.26-.05-.39-.27-.64-.61-.86-1.01-.64-2.06-1.21-3.09-1.81-.89-.53-1.81-1.03-2.71-1.54-1.1-.62-2.2-1.25-3.29-1.89-1.18-.69-2.35-1.38-3.52-2.07-1.41-.82-2.83-1.62-4.27-2.38-.85-.45-1.67-.96-2.49-1.46-.33-.2-.64-.19-.96-.02-.67,.36-1.32,.75-1.99,1.11-.88,.48-1.72,1.02-2.6,1.48-.6,.32-1.15,.76-1.77,1.06-1.23,.61-2.36,1.41-3.59,2.03-.78,.4-1.52,.91-2.28,1.36-.97,.57-1.95,1.13-2.92,1.69-1.28,.74-2.6,1.39-3.81,2.23-.03,.02-.07,.05-.11,.06-.88,.2-1.03,.81-.98,1.6,.09,1.46-.12,2.93-.06,4.39,.15,3.82,.08,7.64,.05,11.46-.01,1.97,.09,3.94,.02,5.91-.02,.67,.3,1.06,.86,1.36,1.12,.62,2.21,1.29,3.33,1.92,1.07,.6,2.1,1.33,3.38,1.47,1.82,.2,3.16-1.03,3.16-2.73,0-7.3,0-14.61,0-21.91,0-.16,0-.31,0-.47,0-.33,.17-.48,.5-.49,.73-.02,1.46-.06,2.2-.07,.53,0,.71,.16,.7,.67-.03,2.28,.07,4.57-.05,6.85-.02,.36,.05,.73,.05,1.1,0,4.64,.01,9.28,0,13.92,0,.94,0,1.89-.31,2.8-.42,1.25-1.05,2.39-2.28,2.96-1.56,.73-3.22,.97-4.94,.55-1.36-.33-2.56-1-3.76-1.68-1.19-.67-2.35-1.39-3.54-2.05-.49-.28-.94-.58-1.35-.98-.69-.69-1.07-1.51-1.07-2.44-.01-1.66-.08-3.33,.05-4.99,.04-.49-.06-.98-.06-1.48,0-4.81,0-9.62,0-14.42,0-.6,0-1.2-.05-1.81-.15-1.86,.61-3.28,2.29-4.15,1.31-.67,2.53-1.47,3.8-2.2,1.11-.64,2.21-1.32,3.35-1.92,.91-.47,1.76-1.04,2.66-1.55,1.17-.66,2.3-1.41,3.49-2.03,1.33-.7,2.56-1.55,3.89-2.24,.7-.37,1.34-.83,2.03-1.21,1.21-.67,2.51-.92,3.83-.28,.63,.31,1.25,.63,1.85,1,.76,.47,1.53,.92,2.32,1.35,1.79,.98,3.57,1.97,5.31,3.02,1.25,.75,2.51,1.5,3.78,2.21,1.86,1.04,3.67,2.19,5.55,3.2,1.03,.55,2.05,1.14,2.74,2.12,.51,.72,.62,1.56,.63,2.41,.02,3.2,0,6.4,.01,9.6,0,.56,0,1.13,0,1.69Z"/><path class="d" d="M926.23,180.13c.32,0,.65,.02,.97,0,.41-.03,.63,.12,.7,.54,.1,.56,.28,1.1,.52,1.6,.45,.94,1.24,1.46,2.21,1.75,.7,.21,1.42,.31,2.15,.4,1.46,.18,2.93,.09,4.38-.05,1.08-.11,2.19-.41,3.02-1.25,.56-.58,.94-2.01,.52-2.89-.2-.41-.57-.63-.94-.83-.59-.32-1.19-.58-1.89-.63-.74-.06-1.46-.29-2.19-.41-.65-.1-1.31-.15-1.97-.23-1.17-.13-2.37-.18-3.5-.51-.98-.28-2-.47-2.86-1.07-.48-.33-.94-.64-1.22-1.23-.21-.45-.61-.82-.75-1.34-.29-1.05-.41-2.09,0-3.15,.15-.4,.17-.84,.39-1.24,.59-1.05,1.42-1.82,2.5-2.36,1.55-.78,3.2-1.14,4.89-1.11,1.33,.03,2.69-.13,4,.16,1.36,.3,2.72,.53,3.9,1.47,.83,.66,1.49,1.38,1.98,2.29,.44,.82,.53,1.74,.67,2.65,.05,.31-.14,.5-.43,.51-.82,.02-1.63,.02-2.45,.02-.3,0-.39-.21-.49-.48-.44-1.21-.91-2.45-2.26-2.94-.85-.31-1.75-.54-2.68-.56-1.14-.03-2.29-.05-3.42,.1-.81,.11-1.58,.33-2.26,.86-.72,.57-.98,1.36-1.02,2.19-.03,.47,.32,.93,.75,1.16,.65,.35,1.31,.67,2.08,.76,1.2,.14,2.38,.41,3.58,.61,.35,.06,.7,.04,1.05,.08,.98,.12,1.93,.38,2.9,.55,1.03,.18,2,.46,2.91,.94,.82,.43,1.59,.98,1.98,1.84,.47,1.03,.67,2.14,.55,3.29-.13,1.22-.49,2.37-1.32,3.28-.55,.6-1.2,1.12-1.94,1.47-1.54,.73-3.18,1.04-4.89,1.18-1.94,.16-3.82-.05-5.71-.32-1.15-.16-2.2-.65-3.21-1.24-.48-.28-.9-.6-1.29-1.01-1.11-1.18-1.58-2.59-1.61-4.18,0-.57,.11-.67,.66-.68,.35,0,.7,0,1.06,0Z"/></g><path class="d" d="M779.3,227.13c-.64,4.35-1.29,8.69-1.9,13.04-.08,.6-.28,.69-.84,.61-5.51-.82-11.03-1.61-16.54-2.41-.23-.03-.47-.06-.7-.08-.25-.04-.51-.1-.76-.13-7.64-1.11-15.29-2.23-22.93-3.32-.52-.07-.65-.21-.57-.75,2-13.67,3.98-27.34,5.95-41.02,.08-.54,.24-.63,.76-.56,13.65,2,27.3,3.98,40.96,5.94,.62,.09,.67,.31,.59,.85-1.32,9.02-2.63,18.04-3.94,27.07-.04,.25-.06,.51-.09,.77Zm-11.42,8.92c.31,.02,.76,.09,1.21,.09,1.72,.01,3.34-.34,4.61-1.6,2.23-2.22,2.06-5.97-.36-8.22-.98-.91-2.13-1.59-3.26-2.28-.62-.38-1.25-.75-1.76-1.28-.57-.59-.7-1.38-.37-2.08,.33-.68,.97-1.03,1.8-.97,1.09,.07,1.86,.62,2.29,1.61,.17,.39,.32,.45,.7,.26,.77-.38,1.54-.75,2.34-1.06,.5-.19,.5-.41,.29-.84-1.13-2.36-3.14-3.27-5.61-3.46-2.36-.18-4.5,.96-5.42,2.93-1.03,2.2-.59,4.73,1.11,6.42,.73,.73,1.59,1.3,2.46,1.85,.82,.51,1.67,.97,2.42,1.59,.83,.68,1.09,1.39,.8,2.26-.3,.89-1.04,1.2-1.9,1.29-1.81,.19-3.37-.68-4.28-2.45-.23-.45-.43-.52-.87-.31-.74,.34-1.5,.65-2.27,.9-.55,.18-.62,.41-.38,.92,1.27,2.67,3.5,3.95,6.44,4.44Zm-7.7-13.42c.33-2.25,.64-4.5,.99-6.75,.08-.53,.04-.77-.57-.82-.87-.06-1.75-.2-2.61-.38-.59-.12-.72,.08-.79,.62-.58,4.18-1.2,8.36-1.81,12.54-.07,.49-.15,.98-.36,1.43-.29,.61-.75,.96-1.44,1.02-1.32,.11-2.13-.43-2.76-1.93-.17-.41-.31-.51-.73-.31-.77,.37-1.56,.71-2.37,1-.52,.19-.62,.4-.4,.93,1.08,2.55,3.59,4.04,6.65,3.92,2.31-.09,3.95-1.14,4.83-3.31,.25-.62,.39-1.27,.49-1.93,.29-2.02,.58-4.03,.88-6.05Z"/><g><path class="d" d="M782.5,36.85c.44-1.35,.8-2.29,1.26-3.17,.23-.44,.15-.69-.23-1.01-1.6-1.34-3.02-2.86-4.11-4.65-.87-1.43-1.48-2.96-1.48-4.67,0-2.44,1.2-4.24,3.16-5.56,2.29-1.54,4.9-2.09,7.59-2.36,1.12-.11,1.1-.1,1.32-1.23,.45-2.22,1.12-4.36,2.38-6.28,2.56-3.89,6.5-4.68,10.38-2.08,1.98,1.33,3.53,3.09,4.86,5.06,.29,.43,.53,.51,1.02,.33,2.69-.95,5.43-1.55,8.32-1.08,3.14,.51,5.29,2.68,5.69,5.83,.36,2.86-.48,5.5-1.6,8.07-.54,1.24-.59,1.22,.41,2.13,1.75,1.59,3.31,3.35,4.3,5.54,1.71,3.81,.61,7.21-3.02,9.29-2.24,1.28-4.71,1.8-7.25,1.99-.63,.05-.84,.26-.95,.85-.44,2.41-1.14,4.73-2.53,6.77-1.68,2.46-3.91,3.86-7.01,3.34-1.97-.33-3.55-1.44-4.99-2.75-1.23-1.12-2.29-2.39-3.19-3.77-.26-.39-.49-.45-.91-.29-2.08,.76-4.22,1.28-6.45,1.26-5.49-.03-8.49-3.63-7.58-9.06,.17-.99,.43-1.96,.61-2.51Zm16.43,1.46c1.92,.54,3.53,1.03,5.16,1.39,.31,.07,.52,0,.75-.18,2.64-1.99,5.09-4.2,7.33-6.63,.25-.27,.3-.52,.26-.87-.38-3.26-1.07-6.46-2.03-9.6-.08-.27-.18-.48-.48-.6-3.09-1.32-6.28-2.35-9.55-3.1-.32-.07-.52,.04-.75,.21-2.62,1.98-5.05,4.16-7.28,6.58-.24,.26-.33,.5-.29,.86,.38,3.29,1.08,6.51,2.04,9.67,.09,.28,.22,.46,.51,.58,1.54,.59,3.08,1.2,4.32,1.69Zm-18.41-16.13c-.37,1.28-.09,2.51,.47,3.69,.9,1.89,2.29,3.38,3.82,4.76,.31,.28,.47,.25,.68-.09,1.12-1.84,2.4-3.56,3.8-5.2,.13-.15,.22-.31,.2-.54-.17-2.19-.19-4.39-.03-6.59,.02-.34-.09-.43-.42-.4-2.18,.22-4.31,.63-6.23,1.75-1.04,.61-1.87,1.42-2.29,2.61Zm43.46,14.12c.39-1.29,.12-2.52-.44-3.7-.88-1.87-2.25-3.34-3.75-4.73-.38-.35-.57-.31-.83,.11-1.06,1.76-2.29,3.39-3.61,4.96-.18,.21-.35,.4-.32,.72,.18,2.17,.19,4.34,.03,6.51-.03,.36,.07,.48,.45,.44,2.1-.22,4.16-.62,6.03-1.67,1.09-.61,1.99-1.42,2.44-2.65Zm-36.82,9.41c.12,.04,.24,.09,.36,.11,2.54,.54,4.96-.02,7.36-.8,.4-.13,.24-.35,.12-.58-1-1.88-1.85-3.83-2.56-5.84-.09-.25-.22-.43-.47-.54-1.96-.94-3.85-2.01-5.65-3.25-.33-.23-.42-.08-.53,.19-.24,.6-.52,1.19-.74,1.8-.63,1.78-1.11,3.59-.8,5.51,.28,1.71,1.24,2.85,2.89,3.39Zm24.47,.14c.18-.73,.35-1.46,.55-2.18,.11-.42,0-.55-.45-.56-2.05-.06-4.09-.27-6.1-.65-.28-.05-.57-.12-.86,.08-1.78,1.25-3.66,2.35-5.63,3.29-.3,.14-.35,.29-.15,.57,1.25,1.74,2.63,3.35,4.5,4.45,2.56,1.5,4.73,1,6.45-1.42,.78-1.09,1.26-2.32,1.7-3.58Zm-18.72-33.31c-.19,.75-.36,1.51-.57,2.25-.12,.44,.03,.54,.45,.55,2.05,.06,4.09,.27,6.1,.65,.29,.05,.57,.12,.86-.09,1.78-1.25,3.66-2.35,5.63-3.29,.31-.15,.33-.3,.14-.57-1.22-1.69-2.57-3.26-4.37-4.37-2.6-1.6-4.85-1.11-6.62,1.41-.74,1.06-1.21,2.24-1.63,3.45Zm26.71,8.74c.64-2.11,.85-3.58,.67-4.94-.29-2.1-1.59-3.45-3.67-3.79-2.39-.39-4.67,.13-6.92,.87-.51,.17-.26,.43-.13,.68,.97,1.84,1.81,3.74,2.49,5.7,.11,.31,.29,.5,.57,.64,1.92,.91,3.76,1.97,5.52,3.17,.34,.23,.46,.15,.58-.18,.29-.72,.59-1.43,.89-2.15Zm-29.76,7.23c-1.01,1.21-1.8,2.45-2.57,3.69-.14,.23-.07,.36,.12,.49,1.05,.72,2.13,1.4,3.24,2,.12,.07,.33,.14,.42,.08,.18-.11,.07-.32,.03-.48-.14-.61-.31-1.21-.44-1.82-.27-1.28-.52-2.57-.8-3.97Zm24.76,1.49c1.02-1.27,1.82-2.49,2.59-3.73,.18-.28,.02-.4-.18-.53-.76-.48-1.5-.99-2.27-1.44-.45-.27-.87-.63-1.52-.7,.6,2.11,.99,4.18,1.38,6.4Zm-6.86,10.32c1.62,.34,3.09,.37,4.55,.42,.17,0,.29-.07,.3-.25,.1-1.48,.2-2.97,.08-4.6-1.61,1.56-3.15,3.01-4.94,4.43Zm-15.95-17.77c1.53-1.48,2.99-2.84,4.53-4.1,.38-.31,.02-.42-.22-.44-1.27-.11-2.54-.19-3.81-.28-.21-.01-.4,0-.42,.3-.1,1.46-.2,2.92-.08,4.53Zm17.32-3.66c-.58-1.52-1.23-2.78-1.88-4.04-.17-.33-.35-.34-.65-.18-.74,.4-1.51,.76-2.25,1.19-.5,.28-1.06,.49-1.5,1.02,2.14,.49,4.14,1.18,6.27,2.02Zm-7.38,22.72c-2.23-.55-4.25-1.21-6.35-2.05,.54,1.53,1.22,2.8,1.88,4.08,.13,.25,.27,.31,.53,.18,1.29-.64,2.58-1.28,3.94-2.2Z"/><path class="d" d="M803.97,24.63c2.55,.82,3.98,3.58,3.16,6.12-.82,2.59-3.61,4.01-6.18,3.16-2.54-.84-3.94-3.6-3.12-6.15,.83-2.55,3.59-3.96,6.14-3.14Z"/></g><path class="d" d="M244.99,191.12c6.27-.41,12.49,1.52,17.01,6.05,.88,.83,2.08-2.76,2.59-3.43,2.31,6.38,4.12,13.2,3.82,20.05-1.44,16.54-21.61,25.81-34.16,14.64,1.32,.17,2.51-1.01,2.08-2.34-.69-1.99-3.63-1.43-3.45,.83-13.45-10.94-5.35-33.88,12.12-35.8Zm17.23,16.99c-2.87,10.72-12.99,15.82-23.01,18.24,.65,.78,1.23,.05,1.85,.03,4.93-.16,9.86,.54,14.77-.25,14.73-1.75,12.68-19.96,8.6-30.17-4.77,8.27-13.43,9.51-22.12,9.96-8.24,1-13.61,12.17-6.57,17.48,10.63-.5,21.18-5.64,26.48-15.29Z"/><g><path class="g" d="M955.77,63.96c-1.49,.74-2.92,.65-4.36,.34-.87-.19-1.75-.37-2.56-.72-.79-.34-1.62-.69-2.23-1.34-.22-.23-.31-.2-.52-.04-.59,.43-1.27,.68-1.97,.82-1.21,.23-2.12-.44-2.93-1.19-1.01-.95-1.59-2.2-2.19-3.44-.68-1.39-.97-2.9-1.53-4.33-.14-.37-.18-.77-.28-1.16-.5-2.01-.83-4.04-1.2-6.07-.29-1.61-.36-3.23-.64-4.83-.51-2.89-.43-5.77,.06-8.65,.17-1.01,.39-2.02,.81-2.94,.93-2.02,2.15-3.82,4.15-4.96,1.22-.7,2.54-1,3.91-1.25,2.33-.42,4.6-.09,6.81,.51,1.43,.39,2.89,.79,4.26,1.42,.66,.31,1.27,.31,1.96,.07,2.96-1.05,5.91-.66,8.85,.15,.77,.78,1.57,.05,2.32-.02,3.77-.34,7.47-.06,10.97,1.43,1.14,.48,2.26,1.15,3.25,2.03,1.04,.93,1.93,1.94,2.8,3.01,.98,1.21,1.18,2.59,1.1,4.06-.13,2.39-.64,4.72-1.49,6.93-.49,1.27-.89,2.58-1.53,3.78-.89,1.67-1.68,3.41-2.68,5.03-.65,1.06-1.23,2.17-1.99,3.16-.45,.59-.83,1.22-1.31,1.79-.24,.28-.17,.47,.22,.52,1.22,.14,2.43,.3,3.67,.06,.74-.14,1.55-.23,2.22,.41,.93,.88,.61,1.85,.19,2.76-.53,1.17-1.48,1.99-2.57,2.69-1.48,.95-3.12,.96-4.76,1.05-1.11,.06-2.21,.13-3.26-.36-.4-.19-.35,.2-.4,.4-.54,2.15-1.09,4.29-1.58,6.45-.35,1.52-.84,2.98-1.73,4.25-.59,.84-1.42,1.43-2.37,1.9-1.68,.85-3.48,.97-5.28,1.09-1.73,.12-3.27-.56-4.58-1.59-.95-.75-1.58-1.81-1.84-3.08-.59-2.98-.11-5.94,.07-8.9,.02-.37,.08-.75,.13-1.22Zm1.56-1.85c-.04,.35-.07,.56-.09,.78-.24,2.43-.53,4.86-.58,7.3-.05,1.95,.12,3.84,1.53,5.39,1.1,1.22,2.5,1.85,4.11,1.82,.64-.01,1.31-.13,1.96-.21,2.79-.35,4.59-1.89,5.48-4.52,.65-1.92,.93-3.95,1.58-5.88,.34-1,.51-2.06,.71-3.11,.09-.49,.32-.55,.74-.43,1.08,.29,2.19,.34,3.3,.36,1.71,.03,3.31-.32,4.81-1.15,.56-.31,1.07-.68,1.51-1.13,.42-.43,.51-.94,.33-1.53-.17-.58-.63-.65-1.08-.71-.44-.06-.88,0-1.33,0-1.47-.02-2.97,.43-4.39-.38-.4-.23-.56-.36-.18-.67,.87-.69,1.32-1.71,1.97-2.57,.76-.99,1.48-2.06,2.06-3.19,.17-.33,.3-.7,.53-.99,.97-1.26,1.4-2.8,2.18-4.16,.66-1.16,1.01-2.48,1.46-3.74,.77-2.11,1.24-4.31,1.17-6.58-.02-.63,0-1.28-.27-1.89-.58-1.35-1.54-2.4-2.57-3.41-1.14-1.11-2.53-1.84-3.93-2.52-.77-.37-1.64-.54-2.48-.73-2.53-.56-5.1-.76-7.67-.33-.83,.14-1.57,.2-2.37-.04-.26-.08-.43-.27-.69-.33-2.16-.51-4.32-.55-6.49-.08-.39,.08-.83,.16-1.09,.42-.76,.74-1.39,.27-2.05-.12-.09-.06-.18-.12-.28-.16-2.02-.87-4.16-1.33-6.28-1.85-.8-.2-1.63-.17-2.48-.1-1.55,.14-3.09,.11-4.56,.82-1.09,.53-2.05,1.19-2.75,2.12-1.31,1.73-2.03,3.74-2.38,5.88-.37,2.3-.43,4.6-.08,6.92,.28,1.85,.22,3.73,.67,5.56,.32,1.31,.41,2.68,.71,4.01,.5,2.2,1.05,4.37,1.93,6.45,.56,1.33,1.24,2.58,2.43,3.5,1.46,1.14,2.99,.71,4.28-.41,.53-.46,1-.98,1.54-1.41,.76-.61,1.49-1.25,2.15-1.97,.39-.42,.97-.59,1.3-1.07,.25,.19,.49,.37,.79,.5,.6,.27,1.23,.43,1.91,.62-.65,1-1.52,1.55-2.64,1.69-.77,.1-1.54,.17-2.31,.27-.78,.1-1.79,1.08-1.43,1.75,.28,.54,.65,1.1,1.23,1.38,2.66,1.25,5.33,1.5,8.07-.19Z"/><path class="f" d="M957.33,62.11c-2.75,1.69-5.41,1.44-8.07,.19-.59-.28-.95-.83-1.23-1.38-.35-.68,.65-1.65,1.43-1.75,.77-.1,1.54-.18,2.31-.27,1.12-.14,1.98-.69,2.64-1.69-.68-.19-1.31-.35-1.91-.62-.3-.14-.54-.31-.79-.5-.33,.49-.91,.65-1.3,1.07-.66,.71-1.39,1.36-2.15,1.97-.54,.43-1.01,.95-1.54,1.41-1.3,1.11-2.82,1.54-4.28,.41-1.19-.92-1.87-2.17-2.43-3.5-.88-2.08-1.43-4.25-1.93-6.45-.3-1.33-.39-2.7-.71-4.01-.45-1.84-.39-3.72-.67-5.56-.35-2.32-.29-4.61,.08-6.92,.34-2.15,1.07-4.15,2.38-5.88,.7-.93,1.66-1.59,2.75-2.12,1.47-.72,3.01-.69,4.56-.82,.85-.07,1.68-.1,2.48,.1,2.12,.52,4.26,.98,6.28,1.85,.1,.04,.19,.11,.28,.16,.66,.39,1.29,.86,2.05,.12,.27-.26,.7-.34,1.09-.42,2.17-.47,4.33-.43,6.49,.08,.26,.06,.43,.26,.69,.33,.8,.24,1.54,.18,2.37,.04,2.56-.42,5.13-.23,7.67,.33,.84,.19,1.71,.36,2.48,.73,1.41,.67,2.8,1.4,3.93,2.52,1.03,1.01,1.98,2.07,2.57,3.41,.27,.61,.25,1.26,.27,1.89,.07,2.27-.4,4.48-1.17,6.58-.46,1.25-.8,2.58-1.46,3.74-.78,1.36-1.2,2.9-2.18,4.16-.23,.29-.35,.66-.53,.99-.58,1.13-1.3,2.2-2.06,3.19-.65,.85-1.1,1.87-1.97,2.57-.38,.3-.23,.44,.18,.67,1.42,.81,2.92,.36,4.39,.38,.44,0,.89-.05,1.33,0,.45,.06,.91,.13,1.08,.71,.18,.6,.09,1.11-.33,1.53-.44,.45-.95,.82-1.51,1.13-1.5,.83-3.11,1.18-4.81,1.15-1.11-.02-2.22-.07-3.3-.36-.42-.11-.65-.06-.74,.43-.2,1.04-.38,2.11-.71,3.11-.65,1.93-.92,3.96-1.58,5.88-.89,2.63-2.69,4.18-5.48,4.52-.65,.08-1.32,.2-1.96,.21-1.61,.03-3.01-.6-4.11-1.82-1.4-1.55-1.57-3.44-1.53-5.39,.06-2.44,.35-4.87,.58-7.3,.02-.21,.05-.43,.09-.78Zm18.42-21.46c.03-.31,0-.58-.11-.82-.56-1.21-.9-2.51-1.63-3.65-.46-.72-.9-1.45-1.45-2.09-.56-.65-1.17-1.29-1.79-1.9-.88-.87-1.95-1.42-2.97-2.01-1.39-.8-2.98-1.12-4.57-1.33-2.88-.4-5.52,.06-7.71,2.17-.93,.89-1.64,1.91-2.26,3.01-.5,.89-.72,1.91-1.16,2.82-.4,.82-.48,1.67-.74,2.53,.41,0,.72-.12,1.04-.23,1.16-.38,2.32-.62,3.56-.54,1.92,.12,3.5,1.31,3.74,3.09,.19,1.42,.28,2.85,.28,4.28,0,1.34-.22,2.67-.73,3.95-.43,1.09-.77,2.24-1.45,3.2-.58,.81-.88,1.72-1.3,2.58-.15,.31-.07,.42,.27,.47,.49,.07,.97,.21,1.32,.57,.86,.86,1.2,1.89,1.02,3.12-.36,2.48-.62,4.98-.82,7.48-.16,1.96-.38,3.92,.28,5.84,.37,1.07,.94,1.97,2.09,2.37,1.36,.47,2.71,.28,4.07,.05,.92-.16,1.74-.58,2.35-1.22,.64-.68,1.12-1.56,1.35-2.46,.95-3.76,1.97-7.5,2.67-11.31,.22-1.22,.79-2.14,2.05-2.49,.37-.1,.24-.24,.14-.47-.51-1.12-1.26-2.12-1.49-3.36-.03-.17-.11-.34-.2-.49-.55-.97-.82-2.06-1.25-3.08-.31-.73-.41-1.54-.69-2.28-.54-1.42-.62-2.89-.52-4.37,.17-2.33,1.85-3.67,4.11-3.66,.84,0,1.67,.14,2.52,.26Zm-27.6-13.38c-.22-.02-.44-.06-.66-.07-2.65-.17-5.06,.28-6.97,2.37-1.03,1.13-1.58,2.49-1.98,3.88-.63,2.22-.8,4.5-.44,6.82,.28,1.82,.23,3.68,.6,5.51,.32,1.62,.49,3.27,.86,4.89,.65,2.85,1.27,5.69,2.97,8.17,.8,1.17,1.99,1.52,3.06,.61,.95-.81,1.81-1.72,2.76-2.53,.57-.49,1.04-1.12,1.73-1.48,.46-.24,.48-.6,.03-.98-.69-.59-.97-1.43-1.24-2.2-.51-1.42-.48-2.92-.13-4.4,.4-1.69,.63-3.4,.76-5.13,.2-2.74,.57-5.44,1.75-7.98,.77-1.66,1.6-3.26,2.95-4.54,.27-.25,.72-.49,.75-.8,.05-.48-.61-.31-.87-.59-.14-.15-.37-.23-.58-.3-1.75-.6-3.53-1.05-5.36-1.27Zm26.35,29.51c.29-.05,.49-.13,.61-.32,.47-.77,1.07-1.44,1.56-2.18,1.04-1.57,2.02-3.17,2.95-4.8,.62-1.08,1.11-2.24,1.62-3.38,.72-1.63,1.28-3.33,1.8-5.04,.38-1.23,.54-2.51,.59-3.8,.03-.82-.21-1.55-.62-2.24-.58-.99-1.35-1.8-2.2-2.56-1.3-1.17-2.83-1.92-4.44-2.47-2.06-.71-4.21-.82-6.37-.77-.16,0-.36-.05-.48,.19,.55,.53,1.31,.78,1.86,1.32,.77,.77,1.58,1.5,2.29,2.34,.49,.59,.97,1.2,1.34,1.83,.68,1.16,1.25,2.4,1.76,3.67,.65,1.62,.76,3.21,.34,4.86-.58,2.24-.95,4.5-.9,6.83,.03,1.67-.17,3.32-.82,4.89-.23,.56-.85,.89-.89,1.64Zm-16.22-9.59c.2-1.69,.17-3.2,.03-4.7-.14-1.5-1.03-2.36-2.55-2.38-1.49-.02-2.91,.4-4.29,.93-.26,.1-.39,.38-.41,.7-.15,2.37-.52,4.71-.97,7.05-.41,2.12,.25,4,1.84,5.49,.68,.64,1.45,1.21,2.45,1.32,.21,.02,.37,.06,.51-.17,.74-1.19,1.2-2.51,1.96-3.69,.9-1.4,1.32-3.04,1.42-4.54Zm15.3,7.8c.61-.59,.82-1.31,.94-2.06,.15-.9,.24-1.8,.23-2.71-.02-1.84,.07-3.68,.54-5.48,.18-.69,.32-1.38,.49-2.07,.08-.34,.02-.54-.38-.59-.86-.11-1.71-.29-2.58-.18-.94,.12-2.03,.76-2.14,1.81-.05,.53-.13,1.05-.1,1.59,.09,1.86,.75,3.57,1.37,5.3,.52,1.46,1.26,2.84,1.63,4.38Zm-23.7,5.59c.18,.43,.46,.6,.81,.7,2.24,.68,4.34,.75,6.24-.96,.79-.71,.99-1.32,.37-2.21-.35-.5-.74-.53-1.26-.2-.36,.23-.66,.52-.94,.83-.9,.98-1.99,1.53-3.31,1.64-.62,.05-1.23,.13-1.91,.21Zm30.71,.01c-1.42,.21-2.83,.17-4.23-.13-.53-.11-1.03-.25-1.48-.64-.94-.83-2.23-.24-2.36,1.18-.03,.36,.01,.6,.4,.69,2.56,.58,5.06,.62,7.42-.76,.13-.08,.28-.15,.25-.33Z"/><path class="g" d="M975.75,40.66c-.84-.12-1.67-.25-2.52-.26-2.26,0-3.94,1.32-4.11,3.66-.11,1.48-.02,2.95,.52,4.37,.28,.74,.39,1.55,.69,2.28,.43,1.02,.7,2.11,1.25,3.08,.09,.15,.17,.32,.2,.49,.23,1.24,.99,2.25,1.49,3.36,.1,.22,.23,.36-.14,.47-1.26,.35-1.83,1.28-2.05,2.49-.7,3.82-1.72,7.56-2.67,11.31-.23,.9-.71,1.78-1.35,2.46-.61,.64-1.43,1.07-2.35,1.22-1.36,.23-2.72,.43-4.07-.05-1.15-.4-1.72-1.29-2.09-2.37-.66-1.92-.44-3.88-.28-5.84,.2-2.5,.46-5,.82-7.48,.18-1.23-.16-2.25-1.02-3.12-.36-.36-.84-.5-1.32-.57-.34-.05-.41-.16-.27-.47,.42-.87,.72-1.78,1.3-2.58,.68-.95,1.02-2.1,1.45-3.2,.51-1.28,.73-2.6,.73-3.95,0-1.43-.09-2.87-.28-4.28-.24-1.78-1.82-2.97-3.74-3.09-1.23-.08-2.4,.16-3.56,.54-.31,.1-.62,.22-1.04,.23,.26-.86,.35-1.71,.74-2.53,.44-.91,.66-1.93,1.16-2.82,.62-1.1,1.33-2.12,2.26-3.01,2.2-2.11,4.83-2.57,7.71-2.17,1.59,.22,3.19,.54,4.57,1.33,1.02,.59,2.09,1.15,2.97,2.01,.62,.61,1.23,1.25,1.79,1.9,.55,.64,1,1.37,1.45,2.09,.72,1.14,1.06,2.44,1.63,3.65,.11,.24,.14,.51,.11,.82Z"/><path class="g" d="M948.15,27.28c1.83,.22,3.61,.67,5.36,1.27,.21,.07,.44,.15,.58,.3,.26,.28,.92,.11,.87,.59-.03,.3-.48,.55-.75,.8-1.35,1.28-2.18,2.87-2.95,4.54-1.18,2.54-1.56,5.23-1.75,7.98-.13,1.73-.36,3.44-.76,5.13-.35,1.48-.38,2.98,.13,4.4,.27,.77,.55,1.61,1.24,2.2,.44,.38,.42,.74-.03,.98-.7,.36-1.16,.99-1.73,1.48-.94,.81-1.8,1.72-2.76,2.53-1.07,.91-2.26,.56-3.06-.61-1.7-2.49-2.32-5.32-2.97-8.17-.37-1.62-.54-3.27-.86-4.89-.37-1.83-.31-3.69-.6-5.51-.36-2.32-.19-4.61,.44-6.82,.39-1.38,.95-2.75,1.98-3.88,1.91-2.09,4.32-2.54,6.97-2.37,.22,.01,.44,.05,.66,.07Z"/><path class="g" d="M974.5,56.79c.04-.74,.66-1.07,.89-1.64,.65-1.57,.85-3.22,.82-4.89-.05-2.33,.32-4.59,.9-6.83,.42-1.65,.31-3.24-.34-4.86-.51-1.27-1.09-2.5-1.76-3.67-.37-.63-.85-1.25-1.34-1.83-.71-.84-1.51-1.57-2.29-2.34-.55-.55-1.31-.79-1.86-1.32,.12-.24,.32-.19,.48-.19,2.16-.05,4.31,.06,6.37,.77,1.62,.56,3.15,1.31,4.44,2.47,.85,.76,1.62,1.58,2.2,2.56,.41,.69,.65,1.42,.62,2.24-.05,1.29-.21,2.58-.59,3.8-.53,1.7-1.08,3.41-1.8,5.04-.51,1.14-1,2.3-1.62,3.38-.93,1.63-1.92,3.24-2.95,4.8-.49,.74-1.09,1.41-1.56,2.18-.11,.19-.32,.27-.61,.32Z"/><path class="g" d="M958.28,47.2c-.1,1.5-.52,3.14-1.42,4.54-.76,1.19-1.23,2.51-1.96,3.69-.14,.23-.3,.19-.51,.17-1-.11-1.77-.68-2.45-1.32-1.58-1.49-2.25-3.37-1.84-5.49,.45-2.34,.82-4.68,.97-7.05,.02-.32,.15-.6,.41-.7,1.38-.53,2.8-.95,4.29-.93,1.52,.02,2.41,.87,2.55,2.38,.14,1.5,.17,3.01-.03,4.7Zm-2.1-6.19c-.24-.03-.48-.02-.72,.01-.54,.06-.6,.4-.46,.8,.29,.85,1.55,1.23,2.28,.7,.49-.36,.48-.83-.04-1.17-.32-.21-.69-.28-1.06-.34Z"/><path class="g" d="M973.58,55c-.37-1.54-1.11-2.92-1.63-4.38-.62-1.74-1.28-3.44-1.37-5.3-.03-.53,.05-1.06,.1-1.59,.11-1.05,1.2-1.69,2.14-1.81,.87-.11,1.72,.07,2.58,.18,.4,.05,.46,.25,.38,.59-.17,.69-.31,1.38-.49,2.07-.47,1.8-.56,3.63-.54,5.48,0,.91-.08,1.82-.23,2.71-.12,.75-.33,1.48-.94,2.06Zm-.71-10.93c.4,.07,.76-.1,1.05-.29,.2-.13,.45-.39,.42-.7-.05-.37-.4-.36-.67-.43-.43-.11-.88-.09-1.3,.03-.58,.16-.68,.6-.26,1.04,.21,.22,.48,.3,.77,.36Z"/><path class="g" d="M949.88,60.59c.68-.08,1.3-.16,1.91-.21,1.32-.11,2.42-.66,3.31-1.64,.28-.31,.58-.6,.94-.83,.52-.33,.91-.3,1.26,.2,.63,.9,.42,1.5-.37,2.21-1.9,1.71-4.01,1.64-6.24,.96-.35-.11-.63-.27-.81-.7Z"/><path class="g" d="M980.59,60.61c.03,.18-.12,.26-.25,.33-2.36,1.38-4.86,1.35-7.42,.76-.39-.09-.43-.33-.4-.69,.13-1.41,1.42-2.01,2.36-1.18,.44,.39,.95,.53,1.48,.64,1.4,.3,2.81,.34,4.23,.13Z"/><path class="f" d="M956.17,41.01c.37,.06,.74,.13,1.06,.34,.52,.34,.53,.82,.04,1.17-.73,.53-1.99,.15-2.28-.7-.14-.41-.08-.74,.46-.8,.24-.03,.48-.04,.72-.01Z"/><path class="f" d="M972.86,44.07c-.28-.06-.56-.14-.77-.36-.42-.44-.32-.88,.26-1.04,.43-.12,.87-.14,1.3-.03,.27,.07,.62,.06,.67,.43,.04,.31-.22,.57-.42,.7-.29,.2-.66,.36-1.05,.29Z"/></g><g><path class="d" d="M669.36,59l-.26-1.77s-.02-.03-.03-.05c-.34-1.89-.98-3.67-1.8-5.39-.53-1.12-1.16-2.19-1.78-3.27-.21-.24-.4-.5-.56-.77-.92-1.03-1.85-2.05-2.77-3.08l-.59-.5c-.34-.04-.64-.19-.85-.44-.92-1.15-2.22-1.8-3.38-2.63-.04-.03-.08-.07-.11-.1h-.01c-1.25-.52-2.47-1.09-3.69-1.66-1.27-.29-2.54-.58-3.8-.93-.16,.01-.33-.05-.49,0-.14,.17-.23,.08-.31-.06-.08-.01-.16-.03-.24-.03-1.31-.05-2.61-.08-3.92-.04-2.26,.07-4.47,.38-6.58,1.22-.96,.38-1.91,.78-2.89,1.08l-.12,.05c-.09,.38-.33,.59-.7,.67-.25,.05-.49,.12-.74,.18-.81,.61-1.65,1.17-2.49,1.72-.61,.55-1.23,1.11-1.85,1.66-.03,.03-.09,.04-.13,.05-.08,.29-.35,.43-.52,.65-.59,.73-1.24,1.42-1.87,2.12-.02,.02-.05,.04-.07,.05-.18,.33-.31,.67-.45,1.02-.1,.23-.25,.44-.51,.52-.3,.34-.47,.76-.68,1.16-.88,1.7-1.55,3.48-2.16,5.28-.02,.06-.04,.11-.07,.17-.11,.85-.22,1.7-.33,2.54-.11,.79-.22,1.57-.33,2.36v2.02c.17,3.21,1.04,6.26,2.28,9.21,.04,.09,.07,.19,.11,.28,.59,.94,1.17,1.89,1.76,2.83l.39,.59c.92,1.03,1.83,2.06,2.75,3.08,.53,.47,1.06,.93,1.6,1.4,.43,.15,.73,.46,1.03,.78,.09,.1,.21,.17,.32,.24,.81,.51,1.64,.98,2.49,1.43,1.05,.56,2.14,1.03,3.22,1.53,1.35,.28,2.7,.6,4.04,.93,.45,.03,.9,.04,1.35,.11,2.09,.05,4.17,0,6.25-.18,.64-.19,1.31-.27,1.96-.42,2.24-.66,4.32-1.67,6.31-2.88,1-.61,1.96-1.28,2.93-1.92,1.66-1.56,3-3.39,4.42-5.15,.07-.44,.32-.79,.62-1.1,.53-.56,.92-1.19,1.21-1.9,.2-.48,.39-.96,.58-1.44,.42-1.07,.72-2.18,1.09-3.27l.38-2.57c.13-1.8,.09-3.59,0-5.39Zm-24.56,2.56c-.03,.51-.23,.73-.74,.81-.29,.05-.59,.07-.88,.07-1.76,0-3.51,0-5.27,0-1.85,0-3.7,0-5.55,0-.65,0-.78,.13-.71,.78,.12,1.27,.43,2.47,1.29,3.46,.86,.98,2.01,1.4,3.24,1.64,1.74,.33,3.24-.17,4.56-1.32,.22-.19,.37-.42,.46-.7,.24-.79,.69-1.11,1.51-1.11,.44,0,.87,.05,1.32,.03,.33-.02,.43,.11,.44,.44,.01,.45-.1,.87-.35,1.24-2.04,2.95-4.83,4.38-8.45,4.11-2.27-.17-3.93-1.36-5.23-3.14-.71-.96-1.32-1.99-1.5-3.18-.19-1.23-.45-2.46-.34-3.71,.29-3.26,1.53-5.97,4.56-7.59,1.88-1,3.84-1.03,5.86-.49,2.89,.77,4.5,2.75,5.27,5.53,.25,.9,.41,1.81,.51,2.73,.01,.13,.02,.26,0,.4Zm17.41,9.33c-.8,0-1.59,0-2.39,.01-.38,0-.63-.17-.83-.47-1.08-1.62-2.17-3.24-3.26-4.85-.5-.73-.98-1.48-1.55-2.2-.49,.72-.97,1.42-1.45,2.12-.98,1.42-1.94,2.85-2.86,4.3-.41,.65-.94,1.18-1.76,1.13-.75-.05-1.51-.08-2.26-.04-.19,.01-.17-.09-.13-.21,.11-.34,.27-.66,.49-.94,1.48-1.87,2.78-3.85,4.18-5.78,.49-.68,.99-1.35,1.48-2.03,.34-.48,.38-.82,.03-1.26-1.32-1.69-2.48-3.5-3.87-5.13-.76-.89-1.37-1.87-1.97-2.95,.78,.06,1.51-.03,2.24-.09,.88-.07,1.6,.33,2.18,.98,.38,.42,.68,.89,.96,1.38,.78,1.36,1.74,2.59,2.62,3.88,.14,.21,.22,.08,.32-.02,.82-.85,1.46-1.83,2.05-2.85,.41-.71,.82-1.43,1.38-2.05,1.14-1.27,2.54-1.58,4.15-1.15,.18,.05,.2,.12,.14,.28-.23,.67-.68,1.2-1.11,1.75-1.46,1.87-2.92,3.73-4.37,5.6-.31,.4-.34,.75-.06,1.13,1.49,2.03,2.79,4.2,4.31,6.21,.39,.51,.77,1.03,1.21,1.5,.47,.49,.7,1.09,.93,1.75-.28,0-.54,0-.8,0Z"/><path class="d" d="M638.82,55.67c-1.14-.71-2.33-.73-3.56-.31-1.11,.39-2,1.08-2.71,2.02-.44,.58-.75,1.22-.84,1.94-.08,.64,.04,.77,.68,.77,1.44,0,2.88,0,4.32,0h0c.63,0,1.27,0,1.9,0,.86,0,1.72,.01,2.57,0,.37,0,.46-.12,.47-.49,.01-.44-.09-.85-.28-1.24-.58-1.16-1.46-2.02-2.55-2.7Z"/></g><rect class="e" width="1080" height="272.33"/><g><path class="d" d="M137.04,60.64l30.96,6.82c0,.07,.04,.07,.08,.08,.42,.12,.82,.29,1.21,.48,.77,.36,1.48,.81,2.14,1.35,.53,.43,1.01,.91,1.44,1.44,.56,.69,1.03,1.44,1.41,2.24,.37,.78,.62,1.6,.78,2.45,.19,1.01,.22,2.02,.12,3.04-.02,.18-.08,.35-.07,.53,0,.04-.01,.09-.02,.13-2.17,9.85-4.34,19.7-6.51,29.54-.04,.19-.09,.38-.13,.57-.09,.15-.1,.32-.15,.48-.26,.76-.59,1.48-1.01,2.16-.53,.86-1.16,1.63-1.92,2.3-.56,.5-1.17,.93-1.82,1.31-.61,.35-1.26,.63-1.93,.85-1.41,.45-2.84,.6-4.31,.44-.14-.01-.27-.07-.42-.04-.04,0-.09-.01-.13-.02-10.02-2.21-20.05-4.42-30.07-6.63-.08-.02-.16-.04-.24-.06-.02-.03-.04-.04-.07-.04-.68-.17-1.31-.46-1.92-.78-.78-.41-1.5-.92-2.15-1.52-.48-.44-.92-.92-1.3-1.45-.41-.57-.78-1.16-1.08-1.8-.3-.65-.54-1.31-.7-2.01-.17-.72-.26-1.44-.28-2.18,0-.45,0-.91,.06-1.36,.02-.13,.06-.26,.03-.39,0-.05,.01-.1,.02-.14,2.21-10.05,4.43-20.1,6.64-30.15,.02-.08,.04-.16,.06-.24,.05-.03,.04-.07,.05-.12,.07-.2,.12-.41,.2-.61,.21-.53,.45-1.05,.74-1.54,.34-.59,.73-1.14,1.18-1.65,.37-.42,.78-.81,1.22-1.17,.69-.57,1.44-1.04,2.24-1.41,.78-.36,1.59-.62,2.44-.77,1.03-.18,2.06-.23,3.1-.1,.04,0,.09,.03,.11-.04Zm4.89,51.48c4.82,1.06,9.64,2.12,14.46,3.19,1.05,.23,2.11,.3,3.17,.16,2.01-.26,3.75-1.1,5.2-2.52,1.28-1.26,2.1-2.78,2.49-4.54,2.13-9.66,4.26-19.32,6.39-28.98,.35-1.58,.29-3.15-.19-4.7-.39-1.24-1.01-2.35-1.88-3.31-1.32-1.47-2.95-2.4-4.87-2.82-9.64-2.12-19.28-4.25-28.92-6.37-1.38-.31-2.76-.31-4.14,.02-1.54,.37-2.89,1.09-4.05,2.18-1.37,1.29-2.26,2.86-2.66,4.7-2.13,9.66-4.26,19.33-6.39,28.99-.32,1.47-.31,2.92,.1,4.37,.57,2.07,1.74,3.73,3.49,4.98,1.02,.73,2.14,1.2,3.36,1.47,4.82,1.06,9.63,2.12,14.45,3.18Z"/><path class="d" d="M151.41,86.84c.13,.5,.19,1.01,.27,1.52,.13,.79,.31,1.58,.48,2.36,.23,1.05,.53,2.09,.76,3.15,.05,.23,.13,.44,.22,.65,.08,.18,.24,.26,.39,.36,.58,.38,1.13,.81,1.69,1.23,.73,.56,1.32,1.26,1.92,1.94,.5,.57,.97,1.17,1.43,1.77,.16,.21,.28,.45,.39,.69,.11,.24,.21,.47,.34,.7,.08,.15,.03,.24-.13,.26-.68,.05-1.35,.09-2.03-.01-.57-.09-1.15-.05-1.72-.02-.21,.01-.41,.02-.62,0-.1-.01-.11,.02-.09,.11,.08,.34,.27,.6,.49,.86,.34,.4,.75,.74,1.12,1.1,.83,.81,1.48,1.75,1.99,2.79,.11,.22,.26,.43,.39,.64,.1,.14,.15,.29,.17,.46,.02,.14,.05,.28,.11,.43-.15-.06-.22-.17-.29-.27-.48-.68-1.03-1.31-1.64-1.87-.46-.42-.99-.76-1.46-1.16-.76-.64-1.44-1.36-1.96-2.22-.24-.41-.44-.84-.5-1.33,0-.06-.02-.13-.04-.19-.05-.16-.01-.27,.15-.34,.05-.02,.1-.04,.15-.05,.56-.04,1.12-.16,1.68-.16,.74,0,1.47,.09,2.19,.23,.23,.05,.46,.1,.69,.16,.11,.03,.14,0,.11-.11-.05-.19-.17-.34-.29-.49-.36-.43-.8-.79-1.17-1.22-.43-.5-.88-.97-1.35-1.43-.36-.35-.8-.56-1.2-.84-.43-.3-.89-.53-1.34-.8-.44-.26-.73-.62-.9-1.11-.28-.84-.46-1.69-.63-2.55-.18-.89-.4-1.77-.61-2.65-.14-.61-.2-1.23-.32-1.84-.19-.98-.54-1.91-.93-2.83-.73-1.73-1.69-3.32-2.91-4.75-.93-1.09-1.95-2.08-3.15-2.88-.49-.32-1-.58-1.58-.7-.46-.1-.88-.31-1.34-.41-.18-.04-.31-.2-.41-.35-.55-.8-1.31-1.37-2.08-1.93-.26-.19-.52-.36-.82-.49-.16-.07-.33-.14-.51-.11-.39,.07-.59,.33-.57,.74,.03,.48,.2,.93,.41,1.36,.35,.71,.69,1.42,.94,2.17,.21,.62,.28,1.27,.34,1.92,.09,.89,.12,1.78,.33,2.65,.15,.62,.35,1.22,.73,1.75,.26,.37,.29,.76,.08,1.18-.23,.46-.53,.88-.8,1.32-.57,.94-.89,1.97-1.06,3.05-.18,1.08-.16,2.16,.11,3.23,.09,.36,.23,.7,.57,.91,.15,.09,.2,.08,.26-.08,.2-.56,.37-1.13,.59-1.68,.24-.59,.51-1.16,1-1.59,.27-.23,.55-.46,.82-.69,.06-.05,.09-.03,.12,.03,.03,.07,.06,.14,.06,.21,.01,.62,.16,1.21,.29,1.81,.41,1.83,.98,3.6,1.77,5.31,.25,.55,.54,1.08,.94,1.54,.06,.07,.1,.15,.14,.24-.22-.13-.39-.31-.51-.52-.48-.82-1.14-1.51-1.66-2.3-.39-.6-.76-1.22-1.01-1.89-.15-.4-.22-.83-.33-1.25-.07-.25-.13-.5-.19-.76-.08,.02-.09,.08-.11,.14-.22,.53-.44,1.05-.63,1.59-.08,.22-.18,.44-.31,.63-.44,.63-1.33,.67-1.89,.1-.32-.33-.52-.73-.68-1.16-.36-.97-.44-1.97-.37-3,.07-1.07,.32-2.1,.72-3.1,.17-.43,.4-.83,.61-1.24,.16-.31,.28-.65,.47-.95,.03-.05,.06-.1,.1-.13,.2-.18,.14-.31,.04-.53-.08-.17-.22-.3-.29-.48-.4-.97-.63-1.99-.75-3.03-.06-.55-.19-1.1-.18-1.65,.01-.89-.34-1.66-.69-2.44-.25-.57-.57-1.11-.77-1.7-.15-.47-.25-.94-.14-1.43,.21-.93,1.01-1.48,1.95-1.34,.53,.08,1.01,.31,1.46,.59,.69,.43,1.32,.94,1.88,1.53,.18,.19,.33,.41,.5,.62,.11,.14,.25,.24,.43,.28,.43,.11,.86,.22,1.27,.37,.37,.13,.71,.33,1.07,.5,.9,.41,1.6,1.07,2.28,1.76,.93,.93,1.8,1.9,2.56,2.97"/><path class="d" d="M140.31,78.23c.27-.02,.53,.02,.78,.07,.02,0,.05,.01,.07,.03,.21,.26,.46,.48,.53,.85,.05,.23,.01,.41-.07,.6-.1,.23-.26,.4-.49,.51-.09,.04-.09,0-.1-.05-.06-.25-.13-.5-.17-.76-.04-.21-.12-.39-.23-.57-.13-.21-.23-.43-.31-.68Z"/></g><g><path class="d" d="M636.64,248c-1.84-2.37-1.36-5.79-.04-8.28,1.56-2.95,4.38-5,7.06-6.86,4.82-3.36,10.34-7.46,11.81-13.52,.38-1.56-2.03-2.23-2.41-.66-1.67,6.9-8.83,10.34-13.88,14.41-2.59,2.09-4.81,4.64-5.76,7.89-.9,3.07-.53,6.25,1.45,8.8,.99,1.27,2.75-.51,1.77-1.77h0Z"/><path class="d" d="M657.12,209.75c-4.53,.3-9.08-.27-13.39-1.73-1.75-.59-3.55-1.76-5.28-.46-.8,.6-1.17,1.57-1.62,2.44-.48,.93-1.21,1.95-1.29,3.02-.17,2.16,1.71,3.17,3.36,4.05,1.84,.98,3.8,1.77,5.81,2.31s4.11,.87,6.2,.96c1.88,.08,4.32,.19,6.09-.53,1.09-.44,1.58-1.3,1.94-2.37,.41-1.2,.95-2.4,1.28-3.62,.57-2.12-.92-4.05-3.11-4.06-1.61-.01-1.61,2.49,0,2.5,1.11,0,.64,1.05,.41,1.7-.19,.54-.39,1.07-.58,1.61-.16,.46-.26,1.21-.54,1.61-.46,.67-1.78,.57-2.52,.62-.99,.07-1.98,.09-2.97,.04-3.99-.17-7.94-1.3-11.4-3.29-.87-.5-1.74-.76-1.27-1.85,.39-.91,.9-2.11,1.5-2.89,.57-.74,1.34-.12,2.05,.16,.97,.37,1.95,.7,2.95,.98,4.01,1.13,8.22,1.58,12.38,1.3,1.6-.11,1.61-2.61,0-2.5Z"/><path class="d" d="M636.51,214.82c-1.94,3.02-5.11,4.82-8.06,6.71s-5.64,4.04-7.88,6.75c-4.43,5.38-7.32,12.4-5.88,19.42,.32,1.57,2.73,.91,2.41-.66-1.38-6.73,1.99-13.64,6.52-18.45,2.31-2.46,5.04-4.22,7.86-6.03s5.4-3.69,7.19-6.48c.87-1.36-1.29-2.61-2.16-1.26h0Z"/><path class="d" d="M643.12,208.47c.66-2.05,.87-4.2,1.46-6.27,.54-1.87,1.73-3.55,3.43-4.55s3.87-.94,5.59,.05c1.87,1.08,2.79,3.13,2.93,5.22,.17,2.61-.51,5.24-1.38,7.68-.54,1.52,1.87,2.17,2.41,.66,1.71-4.77,2.82-11.52-1.78-15.09-2.02-1.57-4.86-2.2-7.33-1.43s-4.44,2.65-5.52,4.85c-1.27,2.57-1.34,5.52-2.21,8.22-.5,1.53,1.92,2.19,2.41,.66h0Z"/><path class="d" d="M648.4,199.42c1.61,0,1.61-2.5,0-2.5s-1.61,2.5,0,2.5h0Z"/><path class="d" d="M651.5,202.23c1.61,0,1.61-2.5,0-2.5s-1.61,2.5,0,2.5h0Z"/><path class="d" d="M643.13,199.89c-.05,1.52,.73,3,1.87,3.97,1.21,1.03,2.69,1.56,4.18,2.05,.62,.2,1.39-.24,1.54-.87,.16-.69-.21-1.32-.87-1.54-.31-.1-.63-.2-.94-.31-.14-.05-.28-.1-.42-.15-.07-.03-.14-.05-.21-.08-.04-.02-.08-.03-.12-.05l.13,.06c-.11-.09-.32-.14-.45-.21-.15-.07-.29-.15-.43-.23-.13-.07-.26-.15-.38-.24-.07-.05-.15-.1-.22-.15-.2-.14,.14,.12,.03,.02-.21-.19-.41-.37-.6-.59l-.05-.06c-.07-.08-.07-.08,0,0,.06,.08,.07,.08,0,0l-.05-.07c-.08-.12-.16-.25-.23-.37-.03-.06-.06-.12-.09-.18-.13-.24,.09,.27,0,0-.04-.12-.09-.25-.12-.38-.02-.06-.03-.13-.04-.19-.04-.2,.01-.05,0,.06,.01-.16-.02-.32-.02-.48,.02-.65-.59-1.28-1.25-1.25-.7,.03-1.23,.55-1.25,1.25h0Z"/></g><g><g><path class="d" d="M406.67,189.37c-.88,19.11-1.09,38.25-1.36,57.38-.05,3.35-.09,6.69-.17,10.04-.04,1.61,2.46,1.61,2.5,0,.39-16.87,.44-33.75,.91-50.62,.16-5.6,.35-11.2,.61-16.8,.07-1.61-2.43-1.6-2.5,0h0Z"/><g><path class="d" d="M409.17,189.37c.21-3.03,2.09-5.54,4.89-6.46,2.58-.84,5.62-.44,7.67,1.47,1.34,1.25,2.02,2.92,2.28,4.72,.1,.67,.94,1.03,1.54,.87,.72-.19,.97-.87,.87-1.54-.57-3.92-3.3-7.17-7.19-8.13-3.51-.87-7.51,.12-10,2.81-1.6,1.73-2.39,3.93-2.55,6.25-.11,1.61,2.39,1.6,2.5,0h0Z"/><path class="d" d="M487.44,250.66c.25-9.19,.65-18.38,.9-27.58l-.62,1.08c7.97-3.89,6.57-17.06-.29-21.3l.62,1.08c.18-3.74,.85-7.44,1.02-11.18,.13-2.9-.06-6.11-1.85-8.54s-4.56-3.26-7.53-2.4c-2.65,.76-5.69,2.73-6.15,5.66l1.21-.92c-16.58-2.15-33.39-1.79-49.87,.99-1.58,.27-.91,2.68,.66,2.41,16.25-2.74,32.87-3.02,49.21-.9,.49,.06,1.13-.43,1.21-.92,.36-2.29,2.94-3.63,5-4.07,1.1-.24,2.19-.23,3.12,.46s1.54,1.58,1.92,2.61c.9,2.43,.66,5.21,.43,7.74-.27,3.02-.72,6.01-.87,9.04-.02,.44,.26,.85,.62,1.08,5.37,3.32,6.51,13.95,.29,16.98-.39,.19-.61,.66-.62,1.08-.25,9.19-.65,18.38-.9,27.58-.04,1.61,2.46,1.61,2.5,0h0Z"/></g></g><g><path class="d" d="M453.85,195.78c1.61,0,1.61-2.5,0-2.5s-1.61,2.5,0,2.5h0Z"/><path class="d" d="M469.17,194c1.61,0,1.61-2.5,0-2.5s-1.61,2.5,0,2.5h0Z"/><path class="d" d="M453.62,208.08c7.79,.77,15.76-2.3,21.07-8.04,1.09-1.18-.67-2.95-1.77-1.77-4.91,5.31-12.11,8.01-19.3,7.31-1.6-.16-1.59,2.34,0,2.5h0Z"/><path class="d" d="M445.06,197.31l1.93,4.23c.12,.27,.47,.5,.75,.57,.3,.08,.7,.05,.96-.13s.5-.43,.57-.75c.08-.35,.02-.64-.13-.96l-1.93-4.23c-.12-.27-.47-.5-.75-.57-.3-.08-.7-.05-.96,.13s-.5,.43-.57,.75c-.08,.35-.02,.64,.13,.96h0Z"/><path class="d" d="M432.91,200.9l1.93,4.23c.12,.27,.47,.5,.75,.57,.3,.08,.7,.05,.96-.13s.5-.43,.57-.75c.08-.35,.02-.64-.13-.96l-1.93-4.23c-.12-.27-.47-.5-.75-.57-.3-.08-.7-.05-.96,.13s-.5,.43-.57,.75c-.08,.35-.02,.64,.13,.96h0Z"/><path class="d" d="M438.33,197.53l3.41,6.98c.29,.59,1.17,.8,1.71,.45,.6-.39,.76-1.08,.45-1.71l-3.41-6.98c-.29-.59-1.17-.8-1.71-.45-.6,.39-.76,1.08-.45,1.71h0Z"/></g><g><path class="d" d="M424.05,229.78l-.19,8.34c-.01,.65,.59,1.28,1.25,1.25s1.23-.55,1.25-1.25l.19-8.34c.01-.65-.59-1.28-1.25-1.25s-1.23,.55-1.25,1.25h0Z"/><path class="d" d="M420.52,242.09l40.19-14.77c1.5-.55,.85-2.97-.66-2.41l-40.19,14.77c-1.5,.55-.85,2.97,.66,2.41h0Z"/><path class="d" d="M427.94,234.28l2.01,5.97c.21,.62,.87,1.09,1.54,.87,.62-.2,1.1-.87,.87-1.54l-2.01-5.97c-.21-.62-.87-1.09-1.54-.87-.62,.2-1.1,.87-.87,1.54h0Z"/></g></g></g></g></g></svg>