<?xml version="1.0" encoding="UTF-8"?><svg xmlns="http://www.w3.org/2000/svg" viewBox="0 0 1080 291.06"><defs><style>.d{fill:#fff;}.e{fill:none;}.f{fill:#40a4ff;}.g{fill:#f7f8f9;}</style></defs><g id="a"/><g id="b"><g id="c"><g><rect class="e" y="0" width="1080" height="291.06"/><path class="d" d="M427.34,48.39v-2.25s.02,.04,.03,.05c0,.01,.04,.03,.04,.03,.31-.36,.48-.81,.82-1.16,4.68-4.67,9.35-9.34,14.02-14.02,.27-.27,.41-.28,.69,0,1.58,1.61,3.17,3.19,4.77,4.78,.23,.23,.29,.42,.2,.76-.45,1.67,.18,3.3,1.64,4.14,.36,.21,.47,.43,.47,.83-.01,3.98-.02,7.96,0,11.95,0,.47-.12,.73-.55,.98-1.4,.83-2.02,2.48-1.59,4.06,.41,1.5,1.82,2.61,3.35,2.64,1.72,.04,3.12-.93,3.64-2.49,.51-1.53-.05-3.23-1.41-4.12-.37-.25-.46-.51-.46-.91,.01-3.9,0-7.8,.01-11.7,0-.2-.07-.41,.06-.6,.22,.03,.31,.21,.44,.34,1.36,1.35,2.7,2.72,4.08,4.06,.31,.3,.36,.56,.25,.97-.35,1.37,.03,2.57,1.05,3.52,1.01,.93,2.21,1.22,3.53,.82,1.86-.57,2.95-2.48,2.49-4.32-.48-1.92-2.27-3.09-4.22-2.74-.33,.06-.6,.11-.89-.19-1.54-1.58-3.11-3.14-4.68-4.69-.19-.19-.27-.35-.2-.65,.56-2.75-1.61-4.95-4.36-4.41-.32,.06-.5-.02-.7-.23-1.62-1.63-3.23-3.25-4.87-4.86-.28-.27-.28-.42,0-.69,.99-.96,1.94-1.95,2.93-2.91,.68-.66,1.26-1.46,2.18-1.84,.08-.03,.1-.12-.01-.17h2.25s-.04,.02-.05,.03c-.01,.01-.02,.04-.02,.04,.54,.35,1.06,.7,1.52,1.16,6.74,6.75,13.48,13.49,20.23,20.23,.38,.38,.75,.78,.97,1.29,.04,.08,.04,.34,.25,.14v2.13s-.05-.04-.09-.06c0,0-.04,.02-.05,.04-.4,1.03-1.27,1.69-2.02,2.43-6.3,6.31-12.61,12.61-18.91,18.92-.54,.54-1.06,1.13-1.81,1.4-.07,.03-.14,.09-.03,.17h-2.13s.04-.02,.05-.03c.01,0,.03-.03,.03-.03-.36-.35-.85-.49-1.2-.86-1.01-1.05-2.07-2.06-3.1-3.09-5.74-5.74-11.48-11.48-17.23-17.22-.49-.49-1-.95-1.26-1.61-.02-.06-.09-.22-.2-.05Z"/><path class="d" d="M307.11,96.37c-.96,.5-1.56,1.23-2.02,2.09-.09,.17-.24,.18-.41,.19-2.39,.17-4.34-.96-4.93-3.45-.3-1.25-.86-2.35-2.07-2.99-.31-.17-.65-.26-1.01-.26-.34,0-.49,.18-.37,.5,.08,.22,.18,.44,.34,.61,.97,1.08,1.27,2.42,1.38,3.79,.13,1.57,.87,2.66,2.21,3.41,1.01,.57,2.09,.88,3.22,1.04,.53,.08,.53,.09,.36,.6-.32,1.01-.63,2.03-.95,3.05-.32,1.02-1.07,1.2-1.93,.54-1.79-1.37-3.34-2.97-4.61-4.82-1.69-2.47-2.84-5.16-3.38-8.11-.32-1.74-.43-3.48-.32-5.24,.05-.77,.17-1.53,.28-2.29,.17-1.27,.58-2.47,1-3.66,.57-1.61,1.41-3.09,2.36-4.5,1.19-1.76,2.62-3.29,4.29-4.6,2.78-2.17,5.89-3.58,9.38-4.2,2.17-.38,4.33-.43,6.5-.13,1.37,.19,2.75,.4,4.04,.91,2.64,1.05,5.11,2.4,7.23,4.36,3.35,3.09,5.49,6.85,6.44,11.29,.58,2.73,.57,5.47,.06,8.23-.26,1.42-.68,2.78-1.22,4.09-.54,1.31-1.24,2.56-2.05,3.74-1.18,1.72-2.58,3.24-4.21,4.55-2.27,1.82-4.8,3.11-7.6,3.89-1.66,.46-3.34,.72-5.07,.74-1.16,.02-1.58-.54-1.21-1.67,.57-1.73,1.14-3.46,1.7-5.19,.41-1.27,.55-2.55,.01-3.84-.03-.07-.11-.16-.02-.23,.09-.07,.19,0,.29,.02,2.23,.4,4.44,.53,6.6-.35,1.52-.62,2.68-1.68,3.57-3.03,.96-1.44,1.63-3.02,1.97-4.73,.32-1.57,.18-3.1-.44-4.57-.11-.26-.08-.43,.09-.67,.83-1.17,1.2-2.51,1.29-3.93,0-.01,0-.03,0-.04,0-1.19-.17-1.36-1.4-1.45-1.23-.09-2.45,.02-3.62,.37-.82,.25-1.43,.11-2.16-.33-2.17-1.29-4.54-2.1-7.06-2.44-.56-.07-1.13-.13-1.69-.16-.17-.01-.26-.08-.35-.2-.83-1.01-1.71-1.97-2.78-2.75-.49-.35-1-.64-1.57-.83-.26-.08-.41-.01-.56,.18-1.04,1.39-1.66,2.93-1.71,4.68,0,.2-.03,.33-.21,.43-2.36,1.41-3.49,3.62-4.02,6.22-.29,1.42-.41,2.84-.14,4.28,.4,2.13,1.58,3.73,3.27,5.02,.95,.72,2.01,1.27,3.17,1.84Z"/><g><path class="d" d="M85.61,243.28c-.94-.62-1.97-1.14-2.8-1.89-3.07-2.76-3.34-4.74-1.16-8.25,1.71-2.75,3.86-5.17,5.94-7.63,2.68-3.17,4.13-6.68,2.85-11.02,2.45,2.6,2.63,6.78,.44,10.28-1.21,1.94-2.57,3.8-3.91,5.66-2.9,4-5.29,8.03-1.35,12.85Z"/><path class="d" d="M76.59,269.39c-1.14,1.61-.49,2.26,1.22,2.19,2.46-.1,4.94-.06,7.36-.41,7.66-1.12,15.22-2.67,22.53-5.3,.75-.27,1.56-.58,2.76-.21-3.4,2.28-7.01,3.39-10.64,4.24-7.19,1.69-14.41,3.36-21.83,3.8-.93,.05-1.87,.08-2.8,.01-1.06-.08-2.52,.16-2.78-1.18-.23-1.19,.97-1.85,1.92-2.43,.65-.39,1.24-.93,2.23-.7Z"/><path class="d" d="M94.24,246.89c-.11-2.72-1.72-4.11-3.23-5.61-3.23-3.19-3.5-6.41-.75-9.97,1.98-2.56,4.5-4.49,7.58-5.74-1.51,1.76-3.15,3.43-4.52,5.3-2.63,3.59-2.45,4.87,.78,8.06,2.76,2.72,2.92,5.02,.13,7.97Z"/><path class="d" d="M101.88,255.41c-6.3,3.35-12.96,4.71-19.97,4.56-.86-.02-1.82-.06-2.21-.94-.35-.78,.15-1.47,.77-1.99,.6-.5,1.06-1.1,1.42,.34,.22,.9,1.44,.64,2.27,.6,4.56-.21,8.84-1.63,13.14-2.99,1.57-.5,3.09-1.19,4.59,.42Z"/><path class="d" d="M102.34,261.91c-5.57,3.23-11.31,4.74-17.53,4.14-.89-.09-1.94-.24-2.23-1.38-.17-.66,.26-1.13,.74-1.51,.25-.19,.69-.52,.82-.44,3.62,2.33,6.98-.2,10.44-.57,.84-.09,1.75-.24,2.45-.66,1.78-1.07,3.37-.62,5.31,.42Z"/><path class="d" d="M79.21,250.23c-.04,1.11-1.65,1.34-1,2.28,.43,.62,1.4,.33,2.16,.35,5.31,.1,10.2-1.71,15.17-3.22,2.14-.65,4.28-1.31,6.64-2.03-.68,1.17-1.49,1.72-2.45,2.05-7.33,2.51-14.77,4.54-22.56,4.92-.59,.03-1.18,0-1.78-.03-.58-.03-1.35,.11-1.55-.57-.19-.65,.5-1.02,.96-1.37,1.28-.95,2.61-1.84,4.41-2.38Z"/><path class="d" d="M84.84,275.18c10.35-2.07,20.97-3.1,30.25-8.76-8.94,6.75-19.53,8.03-30.25,8.76Z"/><path class="d" d="M105.48,244.37c2.87-1.45,5.36-1.08,6.83,.88,1.28,1.71,.94,3.83-1,6.23-1.22,1.51-2.3,2.29-4.13,2.92,1.6-2.75,4.73-4.99,2.84-8.6-.92-1.77-2.84-1.53-4.54-1.43Z"/></g><g><path class="d" d="M967.67,217.54c0-3.53-.01-7.05,0-10.58,0-1.16,.52-2.08,1.47-2.77,.78-.57,1.64-.99,2.46-1.49,.7-.43,1.46-.77,2.13-1.23,1.17-.8,2.45-1.39,3.65-2.14,.89-.55,1.81-1.06,2.74-1.55,.82-.43,1.59-.94,2.39-1.41,.71-.42,1.43-.83,2.13-1.26,.84-.52,1.75-.91,2.58-1.47,.42-.29,.94-.48,1.49-.42,.54,.06,1.08-.06,1.62,.08,.35,.09,.66,.25,.96,.42,1.37,.79,2.73,1.61,4.09,2.4,1.29,.75,2.58,1.48,3.87,2.23,1.25,.73,2.52,1.44,3.77,2.16,.85,.49,1.69,1.01,2.56,1.47,.81,.44,1.58,.96,2.39,1.39,.65,.34,1.25,.73,1.75,1.26,.54,.56,.85,1.23,.92,2,.24,2.62,.08,5.25,.1,7.87,.03,4.31,.02,8.62,0,12.93,0,1.1-.32,2.13-1.14,2.93-.51,.51-1.16,.82-1.78,1.17-.99,.56-1.97,1.13-2.96,1.69-.79,.45-1.58,.9-2.36,1.36-.74,.43-1.48,.89-2.23,1.3-1.03,.56-2.03,1.16-3.06,1.72-.78,.42-1.54,.88-2.3,1.34-.53,.33-1.06,.66-1.61,.95-.71,.37-1.38,.81-2.07,1.21-.78,.45-1.62,.71-2.51,.59-.85-.12-1.6-.53-2.33-.98-.97-.61-2-1.14-2.96-1.77-.84-.55-1.8-.92-2.55-1.62-.26-.24-.14-.33,.07-.47,.34-.22,.75-.29,1.11-.45,.58-.26,1.17-.51,1.7-.87,.13-.09,.26-.13,.45-.02,1.35,.78,2.72,1.54,4.03,2.39,.22,.15,.46,.25,.69,.38,.13,.07,.21,.06,.34,0,.81-.37,1.53-.91,2.31-1.33,.84-.45,1.65-.95,2.47-1.42,.75-.43,1.5-.85,2.25-1.28,.8-.46,1.6-.91,2.39-1.37,.89-.52,1.77-1.05,2.66-1.55,.99-.56,1.99-1.1,2.97-1.67,.93-.54,1.85-1.09,2.76-1.65,.17-.1,.24-.28,.25-.51,.04-.98-.13-1.95-.08-2.93,.02-.43,.17-.83,.13-1.27-.08-.9-.15-1.8-.13-2.71,0-.42,.15-.81,.13-1.23-.04-.93-.18-1.85-.13-2.79,.04-.59,.21-1.17,.11-1.76-.13-.75-.08-1.5-.11-2.25-.02-.39,.16-.74,.13-1.12-.1-1.42-.16-2.84-.12-4.26,0-.29-.19-.42-.4-.54-.35-.21-.74-.37-1.08-.58-.45-.27-.89-.54-1.35-.8-.71-.39-1.41-.8-2.12-1.2-1.22-.71-2.45-1.41-3.66-2.14-1.37-.82-2.77-1.59-4.14-2.41-.88-.53-1.78-1.01-2.67-1.53-.55-.32-1.1-.65-1.68-.92-.29-.13-.52-.38-.83-.51-.15-.07-.27-.07-.42,0-.62,.3-1.16,.74-1.78,1.04-.93,.44-1.75,1.06-2.67,1.51-.79,.38-1.51,.89-2.27,1.33-.94,.54-1.89,1.06-2.83,1.61-.99,.57-1.96,1.16-2.94,1.73-.95,.56-1.89,1.14-2.86,1.65-.69,.36-1.31,.82-2.01,1.14-.37,.16-.54,.4-.54,.84,.01,6.7,.01,13.4,0,20.1,0,.33,.1,.53,.39,.69,.59,.33,1.17,.68,1.75,1.02,.85,.5,1.71,.99,2.56,1.49,.85,.5,1.77,.73,2.74,.6,.53-.07,.96-.4,1.28-.85,.32-.45,.42-.94,.42-1.49-.01-6.61-.01-13.22-.01-19.84,0-.58,.22-.8,.79-.8,.66,0,1.31,0,1.97,0,.43,0,.67,.22,.69,.66,.01,.25,0,.51,0,.76,0,6.59,.02,13.17-.02,19.76,0,1.43-.37,2.82-1.4,3.87-.56,.58-1.29,1.01-2.11,1.17-.68,.13-1.37,.27-2.08,.25-1.09-.03-2.09-.32-3.07-.76-1.34-.6-2.54-1.43-3.81-2.16-.61-.35-1.26-.63-1.84-1.02-.67-.46-1.11-1.1-1.45-1.84-.2-.43-.19-.87-.19-1.32,0-3.39,0-6.78,0-10.16h0Zm42.84,0c0-.51,0-1.01,0-1.52,0-2.87,0-5.74,0-8.61,0-.76-.11-1.52-.56-2.16-.62-.88-1.54-1.41-2.46-1.9-1.69-.9-3.31-1.93-4.98-2.87-1.14-.64-2.26-1.31-3.39-1.99-1.57-.94-3.16-1.83-4.76-2.71-.7-.39-1.4-.79-2.08-1.21-.54-.33-1.1-.62-1.66-.9-1.18-.57-2.34-.35-3.43,.25-.62,.34-1.19,.76-1.82,1.09-1.19,.62-2.3,1.39-3.49,2.01-1.07,.56-2.08,1.23-3.13,1.82-.8,.45-1.57,.97-2.38,1.39-1.03,.53-2.01,1.14-3.01,1.72-1.14,.65-2.24,1.37-3.41,1.97-1.51,.77-2.19,2.05-2.05,3.72,.04,.54,.04,1.08,.04,1.62,0,4.31,0,8.62,0,12.93,0,.44,.09,.89,.06,1.32-.12,1.49-.06,2.98-.05,4.47,0,.84,.34,1.58,.96,2.19,.37,.36,.77,.63,1.21,.88,1.07,.6,2.11,1.24,3.18,1.84,1.08,.61,2.15,1.21,3.37,1.51,1.54,.37,3.03,.16,4.43-.49,1.1-.51,1.67-1.53,2.05-2.65,.27-.82,.27-1.67,.28-2.51,.02-4.16,0-8.32,0-12.48,0-.33-.06-.66-.04-.98,.1-2.05,.02-4.09,.04-6.14,0-.46-.15-.61-.63-.6-.66,0-1.31,.05-1.97,.06-.29,0-.44,.15-.45,.44,0,.14,0,.28,0,.42,0,6.55,0,13.1,0,19.65,0,1.52-1.2,2.63-2.84,2.45-1.15-.13-2.06-.78-3.03-1.32-1-.56-1.98-1.17-2.98-1.72-.5-.28-.8-.62-.77-1.22,.06-1.77-.03-3.53-.02-5.3,.02-3.42,.09-6.85-.04-10.27-.05-1.31,.13-2.63,.06-3.94-.04-.71,.09-1.26,.88-1.43,.04,0,.07-.04,.1-.06,1.09-.76,2.27-1.34,3.42-2,.87-.5,1.75-1,2.62-1.51,.68-.41,1.35-.86,2.04-1.22,1.1-.56,2.11-1.27,3.22-1.82,.55-.27,1.04-.67,1.59-.95,.79-.42,1.55-.9,2.33-1.33,.6-.33,1.19-.67,1.78-1,.28-.16,.57-.16,.86,.01,.74,.45,1.47,.91,2.24,1.31,1.3,.68,2.57,1.4,3.83,2.14,1.05,.62,2.1,1.24,3.16,1.86,.98,.57,1.96,1.14,2.95,1.69,.81,.46,1.63,.91,2.43,1.38,.92,.54,1.87,1.05,2.77,1.62,.3,.19,.51,.42,.55,.77,.04,.38,.07,.75,.09,1.13,.04,1.16-.13,2.32-.06,3.49,.08,1.31,.05,2.63,0,3.94,0,.14,0,.28,.01,.42,.09,.65,.09,1.32,.04,1.97-.1,1.42-.04,2.83-.05,4.24-.02,1.67,0,3.34,0,5.01,0,.32-.01,.64-.34,.83-.96,.55-1.93,1.08-2.88,1.64-.94,.55-1.87,1.11-2.79,1.68-.65,.41-1.34,.74-2,1.14-.68,.41-1.39,.8-2.1,1.18-1.28,.67-2.48,1.49-3.74,2.19-1.21,.67-2.39,1.4-3.61,2.07-.42,.23-.85,.57-1.38,.33-.28-.13-.52-.35-.79-.51-.99-.61-2.02-1.14-3-1.76-.52-.33-1.1-.5-1.69-.06-.55,.4-1.16,.7-1.86,.79-.13,.02-.25,.1-.27,.23-.04,.17,.11,.26,.22,.32,.73,.37,1.41,.83,2.11,1.27,.7,.43,1.44,.77,2.14,1.21,.87,.56,1.73,1.15,2.77,1.45,1,.28,1.86,.07,2.69-.38,1.48-.81,2.93-1.69,4.4-2.52,.61-.34,1.16-.77,1.77-1.09,.57-.3,1.14-.59,1.69-.93,1.07-.66,2.19-1.23,3.26-1.9,1.01-.63,2.08-1.18,3.12-1.78,1.14-.66,2.27-1.34,3.41-2.01,1.23-.72,1.84-1.81,1.85-3.21,.02-3.35,0-6.7,0-10.05Z"/><path class="d" d="M986.91,220.45c.3,0,.61,0,.91,0,.81-.03,.74,.16,.84,.81,.2,1.23,.83,2.08,1.99,2.55,.84,.34,1.7,.5,2.6,.46,.45-.02,.88,.15,1.34,.12,.71-.05,1.43-.07,2.14-.14,.81-.07,1.63-.31,2.3-.83,.58-.45,.97-1.33,.75-2.21-.12-.47-.37-.74-.76-.94-.73-.38-1.5-.6-2.31-.71-.28-.04-.55-.13-.83-.19-.75-.17-1.54-.22-2.29-.26-1.12-.06-2.19-.36-3.28-.52-.96-.14-1.83-.51-2.64-.99-.8-.47-1.3-1.23-1.63-2.1-.28-.74-.37-1.51-.3-2.29,.11-1.13,.49-2.15,1.25-3.06,.75-.89,1.75-1.29,2.76-1.71,.76-.31,1.55-.43,2.36-.53,1.02-.12,2.05-.12,3.06-.06,1.57,.09,3.12,.35,4.56,1.06,.35,.17,.65,.42,.94,.67,.42,.37,.84,.72,1.14,1.22,.36,.58,.6,1.21,.77,1.85,.12,.44,.27,.88,.23,1.36-.04,.5-.22,.71-.71,.71-.64,0-1.29-.03-1.93,0-.62,.04-.78-.27-.92-.77-.31-1.13-.88-2-2.07-2.42-.6-.21-1.2-.28-1.82-.38-1.16-.18-2.31-.14-3.45,.05-.84,.14-1.59,.49-2.17,1.17-.44,.52-.45,1.49,0,2,.48,.54,1.13,.65,1.77,.8,.93,.22,1.89,.29,2.83,.5,.53,.12,1.09,.13,1.63,.21,.59,.09,1.18,.23,1.77,.28,.86,.09,1.69,.33,2.49,.63,.74,.28,1.49,.6,2.05,1.15,.59,.58,.95,1.32,1.14,2.16,.17,.75,.16,1.52,.07,2.25-.12,1.02-.52,2.01-1.23,2.77-.97,1.03-2.22,1.64-3.59,1.98-.95,.24-1.89,.44-2.88,.4-.38-.02-.76,.14-1.15,.1-1.26-.14-2.54-.06-3.79-.38-.86-.22-1.71-.44-2.51-.83-1.11-.54-1.96-1.36-2.54-2.43-.53-.97-.65-2.04-.55-3.14,.02-.26,.17-.4,.46-.4,.4,.01,.81,0,1.21,0Zm.02,.22c-.32,0-.63,0-.95,0-.5,0-.6,.1-.59,.61,.02,1.42,.45,2.69,1.44,3.75,.34,.37,.72,.65,1.15,.9,.9,.53,1.84,.96,2.87,1.11,1.7,.24,3.39,.44,5.12,.29,1.54-.13,3-.41,4.38-1.06,.67-.31,1.25-.78,1.74-1.32,.75-.82,1.06-1.85,1.18-2.94,.11-1.03-.07-2.03-.49-2.95-.35-.77-1.04-1.26-1.78-1.65-.82-.43-1.69-.68-2.61-.84-.87-.15-1.72-.39-2.6-.5-.31-.04-.63-.02-.94-.07-1.07-.18-2.13-.42-3.21-.54-.69-.08-1.28-.37-1.86-.68-.38-.21-.69-.63-.67-1.04,.04-.75,.27-1.45,.92-1.96,.6-.47,1.3-.68,2.02-.77,1.01-.14,2.04-.12,3.07-.09,.83,.02,1.63,.22,2.4,.5,1.2,.44,1.63,1.55,2.02,2.64,.09,.24,.17,.43,.44,.43,.73,0,1.47,0,2.2-.02,.26,0,.43-.18,.39-.46-.13-.81-.2-1.63-.6-2.37-.44-.82-1.03-1.46-1.77-2.05-1.06-.85-2.28-1.05-3.5-1.32-1.17-.26-2.39-.12-3.59-.15-1.52-.03-3,.29-4.39,.99-.97,.49-1.71,1.18-2.24,2.12-.2,.36-.22,.75-.35,1.11-.36,.95-.25,1.88,0,2.82,.13,.47,.49,.79,.67,1.2,.25,.53,.67,.81,1.09,1.11,.77,.54,1.69,.7,2.57,.96,1.02,.3,2.09,.34,3.14,.46,.59,.07,1.18,.11,1.77,.2,.66,.11,1.31,.32,1.97,.37,.63,.05,1.17,.29,1.7,.57,.32,.17,.66,.37,.84,.74,.38,.79,.04,2.08-.46,2.59-.74,.75-1.73,1.02-2.7,1.12-1.3,.13-2.62,.2-3.93,.05-.65-.08-1.3-.17-1.93-.36-.86-.26-1.58-.73-1.98-1.57-.22-.46-.38-.94-.47-1.44-.07-.38-.27-.51-.63-.48-.29,.02-.58,0-.87,0Z"/><path class="d" d="M1010.51,217.54c0,3.35,.01,6.7,0,10.05,0,1.4-.62,2.49-1.85,3.21-1.14,.66-2.27,1.35-3.41,2.01-1.04,.6-2.1,1.14-3.12,1.78-1.07,.67-2.19,1.23-3.26,1.9-.54,.34-1.12,.63-1.69,.93-.61,.32-1.16,.75-1.77,1.09-1.47,.83-2.91,1.71-4.4,2.52-.83,.45-1.7,.67-2.69,.38-1.04-.29-1.9-.89-2.77-1.45-.69-.44-1.44-.78-2.14-1.21-.7-.43-1.37-.9-2.11-1.27-.12-.06-.26-.15-.22-.32,.03-.13,.14-.21,.27-.23,.7-.09,1.3-.39,1.86-.79,.6-.44,1.17-.27,1.69,.06,.98,.62,2.01,1.15,3,1.76,.27,.16,.51,.38,.79,.51,.53,.25,.95-.1,1.38-.33,1.22-.66,2.4-1.39,3.61-2.07,1.26-.7,2.47-1.51,3.74-2.19,.71-.37,1.42-.77,2.1-1.18,.66-.4,1.35-.73,2-1.14,.92-.57,1.85-1.13,2.79-1.68,.95-.56,1.92-1.09,2.88-1.64,.33-.19,.34-.51,.34-.83,0-1.67-.01-3.34,0-5.01,.01-1.41-.05-2.83,.05-4.24,.05-.65,.06-1.31-.04-1.97-.02-.14-.02-.28-.01-.42,.05-1.31,.08-2.62,0-3.94-.07-1.16,.1-2.32,.06-3.49-.01-.38-.04-.76-.09-1.13-.04-.35-.24-.57-.55-.77-.9-.58-1.85-1.08-2.77-1.62-.8-.47-1.62-.92-2.43-1.38-.99-.56-1.97-1.12-2.95-1.69-1.06-.61-2.1-1.24-3.16-1.86-1.26-.74-2.54-1.46-3.83-2.14-.76-.4-1.5-.87-2.24-1.31-.29-.18-.58-.17-.86-.01-.6,.33-1.19,.67-1.78,1-.79,.43-1.54,.91-2.33,1.33-.54,.28-1.03,.68-1.59,.95-1.11,.55-2.11,1.26-3.22,1.82-.7,.36-1.36,.81-2.04,1.22-.87,.51-1.75,1.01-2.62,1.51-1.14,.66-2.33,1.24-3.42,2-.03,.02-.06,.05-.1,.06-.79,.18-.92,.72-.88,1.43,.08,1.31-.11,2.63-.06,3.94,.14,3.42,.07,6.85,.04,10.27-.01,1.77,.08,3.54,.02,5.3-.02,.6,.27,.95,.77,1.22,1.01,.55,1.98,1.16,2.98,1.72,.96,.54,1.88,1.19,3.03,1.32,1.64,.18,2.84-.93,2.84-2.45,0-6.55,0-13.1,0-19.65,0-.14,0-.28,0-.42,0-.29,.15-.43,.45-.44,.66-.02,1.31-.05,1.97-.06,.48,0,.63,.14,.63,.6-.02,2.05,.06,4.09-.04,6.14-.02,.33,.04,.66,.04,.98,0,4.16,.01,8.32,0,12.48,0,.84,0,1.7-.28,2.51-.37,1.12-.95,2.14-2.05,2.65-1.4,.65-2.89,.87-4.43,.49-1.22-.3-2.3-.9-3.37-1.51-1.07-.6-2.11-1.24-3.18-1.84-.44-.25-.85-.52-1.21-.88-.62-.61-.96-1.35-.96-2.19-.01-1.49-.07-2.98,.05-4.47,.03-.44-.05-.88-.06-1.32,0-4.31,0-8.62,0-12.93,0-.54,0-1.08-.04-1.62-.13-1.67,.54-2.94,2.05-3.72,1.17-.6,2.27-1.32,3.41-1.97,1-.58,1.98-1.19,3.01-1.72,.81-.42,1.58-.93,2.38-1.39,1.05-.59,2.06-1.26,3.13-1.82,1.19-.62,2.3-1.39,3.49-2.01,.63-.33,1.2-.75,1.82-1.09,1.09-.6,2.25-.82,3.43-.25,.56,.27,1.12,.56,1.66,.9,.68,.42,1.37,.83,2.08,1.21,1.6,.88,3.2,1.77,4.76,2.71,1.12,.67,2.25,1.35,3.39,1.99,1.67,.94,3.29,1.96,4.98,2.87,.92,.49,1.84,1.02,2.46,1.9,.45,.64,.56,1.4,.56,2.16,.01,2.87,0,5.74,0,8.61,0,.51,0,1.01,0,1.52Z"/><path class="d" d="M986.92,220.67c.29,0,.58,.02,.87,0,.36-.02,.56,.11,.63,.48,.09,.5,.25,.98,.47,1.44,.4,.84,1.11,1.31,1.98,1.57,.63,.19,1.27,.28,1.93,.36,1.31,.16,2.63,.08,3.93-.05,.97-.1,1.97-.36,2.7-1.12,.51-.52,.84-1.8,.46-2.59-.17-.37-.51-.57-.84-.74-.53-.28-1.07-.52-1.7-.57-.66-.05-1.31-.26-1.97-.37-.59-.09-1.18-.14-1.77-.2-1.05-.12-2.12-.16-3.14-.46-.87-.25-1.8-.42-2.57-.96-.43-.3-.85-.58-1.09-1.11-.19-.41-.55-.73-.67-1.2-.26-.94-.37-1.87,0-2.82,.14-.36,.15-.75,.35-1.11,.53-.94,1.27-1.63,2.24-2.12,1.39-.7,2.87-1.02,4.39-.99,1.19,.02,2.41-.12,3.59,.15,1.22,.27,2.44,.48,3.5,1.32,.75,.6,1.34,1.24,1.77,2.05,.4,.74,.47,1.56,.6,2.37,.04,.28-.13,.45-.39,.46-.73,.02-1.46,.02-2.2,.02-.27,0-.35-.18-.44-.43-.39-1.09-.82-2.2-2.02-2.64-.77-.28-1.57-.48-2.4-.5-1.02-.02-2.05-.04-3.07,.09-.72,.1-1.42,.3-2.02,.77-.65,.51-.88,1.22-.92,1.96-.02,.42,.29,.84,.67,1.04,.58,.31,1.17,.6,1.86,.68,1.08,.12,2.14,.37,3.21,.54,.31,.05,.63,.03,.94,.07,.88,.1,1.73,.34,2.6,.5,.92,.16,1.79,.41,2.61,.84,.74,.39,1.43,.88,1.78,1.65,.42,.92,.6,1.92,.49,2.95-.12,1.09-.43,2.12-1.18,2.94-.49,.54-1.07,1.01-1.74,1.32-1.39,.65-2.85,.93-4.38,1.06-1.74,.14-3.43-.05-5.12-.29-1.03-.15-1.97-.59-2.87-1.11-.43-.25-.81-.53-1.15-.9-.99-1.06-1.42-2.33-1.44-3.75,0-.51,.09-.6,.59-.61,.32,0,.63,0,.95,0Z"/></g><path class="d" d="M807.86,248.22c-.64,4.35-1.29,8.69-1.9,13.04-.08,.6-.28,.69-.84,.61-5.51-.82-11.03-1.61-16.54-2.41-.23-.03-.47-.06-.7-.08-.25-.04-.51-.1-.76-.13-7.64-1.11-15.29-2.23-22.93-3.32-.52-.07-.65-.21-.57-.75,2-13.67,3.98-27.34,5.95-41.02,.08-.54,.24-.63,.76-.56,13.65,2,27.3,3.98,40.96,5.94,.62,.09,.67,.31,.59,.85-1.32,9.02-2.63,18.04-3.94,27.07-.04,.25-.06,.51-.09,.77Zm-11.42,8.92c.31,.02,.76,.09,1.21,.09,1.72,.01,3.34-.34,4.61-1.6,2.23-2.22,2.06-5.97-.36-8.22-.98-.91-2.13-1.59-3.26-2.28-.62-.38-1.25-.75-1.76-1.28-.57-.59-.7-1.38-.37-2.08,.33-.68,.97-1.03,1.8-.97,1.09,.07,1.86,.62,2.29,1.61,.17,.39,.32,.45,.7,.26,.77-.38,1.54-.75,2.34-1.06,.5-.19,.5-.41,.29-.84-1.13-2.36-3.14-3.27-5.61-3.46-2.36-.18-4.5,.96-5.42,2.93-1.03,2.2-.59,4.73,1.11,6.42,.73,.73,1.59,1.3,2.46,1.85,.82,.51,1.67,.97,2.42,1.59,.83,.68,1.09,1.39,.8,2.26-.3,.89-1.04,1.2-1.9,1.29-1.81,.19-3.37-.68-4.28-2.45-.23-.45-.43-.52-.87-.31-.74,.34-1.5,.65-2.27,.9-.55,.18-.62,.41-.38,.92,1.27,2.67,3.5,3.95,6.44,4.44Zm-7.7-13.42c.33-2.25,.64-4.5,.99-6.75,.08-.53,.04-.77-.57-.82-.87-.06-1.75-.2-2.61-.38-.59-.12-.72,.08-.79,.62-.58,4.18-1.2,8.36-1.81,12.54-.07,.49-.15,.98-.36,1.43-.29,.61-.75,.96-1.44,1.02-1.32,.11-2.13-.43-2.76-1.93-.17-.41-.31-.51-.73-.31-.77,.37-1.56,.71-2.37,1-.52,.19-.62,.4-.4,.93,1.08,2.55,3.59,4.04,6.65,3.92,2.31-.09,3.95-1.14,4.83-3.31,.25-.62,.39-1.27,.49-1.93,.29-2.02,.58-4.03,.88-6.05Z"/><g><path class="d" d="M743.18,43.44c.41-1.23,.73-2.08,1.15-2.89,.21-.4,.13-.63-.21-.92-1.46-1.22-2.75-2.6-3.74-4.24-.8-1.31-1.35-2.7-1.35-4.25,0-2.22,1.09-3.86,2.88-5.07,2.08-1.41,4.47-1.91,6.92-2.15,1.02-.1,1-.09,1.21-1.12,.41-2.02,1.02-3.98,2.17-5.72,2.34-3.55,5.93-4.27,9.45-1.9,1.81,1.21,3.22,2.82,4.42,4.61,.27,.4,.48,.46,.93,.3,2.45-.86,4.95-1.41,7.58-.99,2.86,.46,4.82,2.44,5.19,5.31,.33,2.61-.44,5.02-1.45,7.36-.49,1.13-.53,1.11,.38,1.94,1.6,1.45,3.02,3.05,3.91,5.04,1.56,3.47,.56,6.57-2.75,8.46-2.04,1.17-4.29,1.64-6.61,1.81-.57,.04-.77,.24-.87,.78-.4,2.19-1.04,4.31-2.31,6.17-1.53,2.24-3.57,3.52-6.38,3.05-1.79-.3-3.23-1.31-4.55-2.51-1.12-1.02-2.08-2.17-2.91-3.44-.23-.35-.45-.41-.83-.26-1.9,.69-3.84,1.17-5.87,1.15-5-.03-7.73-3.31-6.91-8.25,.15-.9,.39-1.78,.55-2.29Zm14.97,1.33c1.75,.49,3.21,.94,4.71,1.27,.28,.06,.47,0,.68-.16,2.41-1.81,4.63-3.83,6.68-6.04,.23-.25,.28-.48,.24-.8-.35-2.97-.97-5.88-1.85-8.74-.08-.25-.17-.43-.44-.55-2.82-1.2-5.72-2.14-8.7-2.82-.29-.07-.47,.04-.68,.19-2.39,1.8-4.6,3.79-6.63,5.99-.22,.24-.3,.46-.26,.79,.35,3,.98,5.93,1.86,8.81,.08,.26,.2,.42,.47,.52,1.41,.54,2.8,1.09,3.93,1.54Zm-16.78-14.7c-.33,1.17-.09,2.29,.43,3.36,.82,1.72,2.09,3.08,3.48,4.34,.28,.26,.43,.23,.62-.08,1.02-1.67,2.19-3.24,3.46-4.74,.12-.14,.2-.29,.19-.49-.15-2-.17-4-.03-6,.02-.31-.08-.39-.38-.36-1.99,.2-3.93,.57-5.68,1.6-.95,.56-1.7,1.29-2.09,2.37Zm39.6,12.86c.35-1.17,.11-2.29-.4-3.37-.8-1.7-2.05-3.05-3.42-4.31-.35-.32-.52-.29-.76,.1-.97,1.6-2.09,3.09-3.29,4.52-.16,.19-.32,.37-.3,.66,.16,1.98,.17,3.96,.03,5.93-.02,.33,.06,.44,.41,.4,1.92-.2,3.79-.57,5.49-1.52,1-.56,1.81-1.3,2.23-2.42Zm-33.55,8.57c.11,.04,.21,.08,.33,.1,2.32,.5,4.52-.01,6.71-.73,.37-.12,.22-.32,.11-.52-.91-1.71-1.69-3.49-2.33-5.32-.08-.23-.2-.39-.43-.5-1.79-.86-3.51-1.84-5.15-2.96-.3-.21-.38-.07-.48,.17-.22,.55-.47,1.09-.67,1.64-.57,1.62-1.01,3.27-.73,5.02,.25,1.56,1.13,2.6,2.64,3.09Zm22.3,.12c.16-.66,.32-1.33,.5-1.99,.1-.38,0-.5-.41-.51-1.87-.05-3.72-.24-5.56-.59-.26-.05-.52-.11-.79,.07-1.63,1.14-3.34,2.14-5.13,3-.27,.13-.32,.26-.14,.52,1.14,1.58,2.39,3.05,4.1,4.05,2.33,1.36,4.31,.91,5.88-1.29,.71-1,1.15-2.12,1.54-3.26Zm-17.06-30.36c-.17,.68-.33,1.37-.51,2.05-.11,.4,.03,.49,.41,.51,1.87,.06,3.72,.25,5.56,.6,.26,.05,.52,.11,.79-.08,1.63-1.14,3.34-2.14,5.13-3,.28-.13,.31-.27,.13-.52-1.11-1.54-2.34-2.97-3.98-3.98-2.37-1.46-4.42-1.01-6.03,1.28-.68,.96-1.1,2.04-1.49,3.14Zm24.34,7.96c.59-1.92,.78-3.26,.61-4.5-.26-1.91-1.45-3.14-3.35-3.45-2.18-.35-4.25,.12-6.31,.79-.47,.15-.23,.39-.12,.62,.89,1.68,1.65,3.4,2.27,5.19,.1,.28,.26,.46,.52,.58,1.75,.83,3.43,1.79,5.03,2.89,.31,.21,.41,.13,.53-.16,.26-.66,.54-1.3,.81-1.96Zm-27.11,6.59c-.92,1.11-1.64,2.23-2.35,3.36-.13,.21-.06,.33,.11,.45,.96,.66,1.94,1.27,2.96,1.83,.11,.06,.3,.13,.38,.08,.17-.1,.06-.29,.03-.44-.13-.55-.28-1.1-.4-1.66-.25-1.17-.47-2.34-.73-3.62Zm22.56,1.36c.93-1.16,1.66-2.27,2.36-3.4,.16-.26,.02-.37-.17-.48-.69-.44-1.37-.9-2.07-1.32-.41-.24-.8-.57-1.38-.64,.54,1.92,.9,3.81,1.26,5.84Zm-6.25,9.41c1.47,.31,2.81,.34,4.15,.39,.15,0,.26-.06,.28-.23,.09-1.35,.18-2.71,.08-4.19-1.47,1.42-2.87,2.74-4.5,4.04Zm-14.54-16.19c1.39-1.35,2.73-2.58,4.12-3.74,.35-.29,.02-.38-.2-.4-1.16-.1-2.32-.18-3.47-.26-.19-.01-.36,0-.38,.27-.09,1.33-.18,2.66-.07,4.13Zm15.78-3.33c-.53-1.38-1.12-2.53-1.71-3.68-.16-.3-.32-.31-.59-.17-.68,.37-1.38,.7-2.05,1.08-.45,.26-.96,.45-1.37,.93,1.95,.45,3.77,1.08,5.71,1.84Zm-6.72,20.7c-2.04-.5-3.87-1.1-5.79-1.87,.5,1.39,1.11,2.55,1.71,3.72,.12,.23,.24,.28,.48,.16,1.18-.59,2.35-1.17,3.59-2.01Z"/><path class="d" d="M762.74,32.3c2.33,.75,3.62,3.26,2.88,5.58-.75,2.36-3.29,3.65-5.63,2.88-2.32-.76-3.59-3.28-2.84-5.6,.75-2.32,3.27-3.61,5.59-2.86Z"/></g><path class="d" d="M244.14,217.72c5.99-.39,11.93,1.45,16.24,5.78,.84,.79,1.99-2.63,2.47-3.28,2.2,6.1,3.94,12.6,3.65,19.14-1.37,15.79-20.63,24.64-32.62,13.98,1.26,.16,2.4-.96,1.98-2.23-.66-1.9-3.46-1.36-3.29,.79-12.84-10.44-5.11-32.35,11.57-34.18Zm16.45,16.22c-2.74,10.24-12.41,15.1-21.97,17.42,.62,.75,1.18,.05,1.77,.03,4.71-.16,9.42,.52,14.1-.24,14.06-1.67,12.11-19.06,8.21-28.81-4.55,7.9-12.83,9.08-21.12,9.51-7.87,.95-12.99,11.62-6.27,16.69,10.15-.47,20.22-5.38,25.28-14.6Z"/><g><path class="g" d="M1031.47,93.06c-1.37,.68-2.69,.59-4.01,.31-.8-.17-1.61-.34-2.35-.66-.72-.32-1.49-.64-2.05-1.23-.2-.21-.28-.18-.47-.04-.54,.4-1.17,.63-1.81,.75-1.11,.21-1.96-.4-2.7-1.1-.93-.87-1.46-2.02-2.02-3.17-.62-1.28-.9-2.67-1.41-3.99-.13-.34-.17-.71-.25-1.07-.46-1.85-.77-3.72-1.11-5.59-.27-1.48-.33-2.97-.59-4.44-.47-2.66-.4-5.31,.05-7.97,.16-.93,.36-1.86,.75-2.71,.85-1.86,1.98-3.52,3.82-4.57,1.13-.64,2.34-.92,3.6-1.15,2.14-.38,4.24-.08,6.27,.47,1.32,.36,2.66,.73,3.92,1.31,.61,.28,1.17,.28,1.8,.06,2.73-.97,5.44-.61,8.15,.14,.71,.72,1.44,.05,2.14-.02,3.47-.31,6.88-.05,10.09,1.32,1.05,.45,2.08,1.06,2.99,1.87,.95,.85,1.78,1.79,2.58,2.77,.9,1.11,1.09,2.38,1.01,3.74-.12,2.2-.59,4.34-1.37,6.38-.45,1.16-.82,2.38-1.41,3.48-.82,1.54-1.55,3.14-2.46,4.63-.6,.98-1.14,2-1.83,2.91-.41,.54-.77,1.12-1.21,1.65-.22,.26-.16,.43,.21,.48,1.12,.13,2.23,.28,3.38,.05,.68-.13,1.43-.21,2.05,.37,.86,.81,.56,1.7,.18,2.54-.49,1.08-1.36,1.83-2.37,2.48-1.36,.88-2.87,.88-4.38,.96-1.02,.06-2.03,.12-3-.33-.37-.17-.33,.19-.37,.37-.49,1.98-1.01,3.95-1.46,5.93-.32,1.4-.77,2.74-1.59,3.92-.54,.78-1.3,1.31-2.18,1.75-1.55,.78-3.2,.89-4.86,1.01-1.59,.11-3.01-.51-4.22-1.46-.88-.69-1.46-1.67-1.69-2.84-.55-2.74-.1-5.47,.06-8.2,.02-.34,.07-.69,.12-1.12Zm1.44-1.7c-.04,.32-.06,.52-.08,.71-.22,2.24-.48,4.47-.54,6.72-.04,1.8,.11,3.54,1.41,4.97,1.02,1.12,2.3,1.7,3.78,1.68,.59,0,1.21-.12,1.81-.2,2.57-.32,4.23-1.74,5.05-4.16,.6-1.77,.86-3.63,1.45-5.41,.31-.92,.47-1.9,.66-2.86,.09-.45,.29-.5,.68-.4,.99,.27,2.01,.31,3.04,.33,1.57,.03,3.05-.3,4.43-1.06,.51-.28,.98-.62,1.39-1.04,.39-.39,.47-.86,.31-1.41-.16-.53-.58-.6-1-.65-.4-.05-.81,0-1.22,0-1.35-.02-2.73,.39-4.04-.35-.37-.21-.52-.33-.16-.61,.8-.64,1.22-1.58,1.82-2.36,.7-.91,1.36-1.89,1.9-2.94,.16-.31,.28-.65,.48-.91,.9-1.16,1.29-2.57,2-3.83,.61-1.07,.93-2.29,1.35-3.44,.7-1.94,1.14-3.97,1.08-6.06-.02-.58,0-1.17-.25-1.74-.54-1.24-1.41-2.21-2.36-3.14-1.05-1.02-2.33-1.7-3.62-2.32-.71-.34-1.51-.5-2.28-.67-2.33-.52-4.7-.7-7.06-.31-.76,.13-1.45,.18-2.18-.04-.24-.07-.4-.25-.64-.31-1.99-.47-3.98-.5-5.98-.07-.36,.08-.76,.15-1.01,.39-.7,.68-1.28,.25-1.89-.11-.09-.05-.17-.11-.26-.15-1.86-.8-3.83-1.22-5.78-1.7-.73-.18-1.5-.16-2.28-.09-1.43,.12-2.84,.1-4.2,.76-1,.49-1.88,1.1-2.53,1.95-1.21,1.59-1.87,3.44-2.19,5.41-.34,2.12-.39,4.23-.07,6.37,.26,1.7,.2,3.43,.62,5.12,.3,1.21,.37,2.46,.65,3.69,.46,2.03,.97,4.03,1.77,5.94,.52,1.23,1.14,2.37,2.24,3.22,1.35,1.05,2.75,.65,3.94-.37,.49-.42,.92-.9,1.41-1.3,.7-.56,1.37-1.15,1.98-1.81,.36-.39,.9-.54,1.2-.99,.23,.18,.45,.34,.72,.46,.55,.25,1.13,.4,1.76,.57-.6,.92-1.4,1.42-2.43,1.55-.71,.09-1.42,.16-2.13,.25-.72,.09-1.64,.99-1.32,1.61,.26,.5,.6,1.01,1.13,1.27,2.45,1.15,4.9,1.38,7.43-.18Z"/><path class="f" d="M1032.91,91.36c-2.53,1.56-4.98,1.33-7.43,.18-.54-.25-.88-.77-1.13-1.27-.32-.62,.6-1.52,1.32-1.61,.71-.09,1.42-.16,2.13-.25,1.03-.13,1.83-.63,2.43-1.55-.62-.17-1.2-.32-1.76-.57-.27-.13-.5-.29-.72-.46-.3,.45-.84,.6-1.2,.99-.61,.66-1.28,1.25-1.98,1.81-.5,.4-.93,.88-1.41,1.3-1.19,1.02-2.6,1.42-3.94,.37-1.09-.85-1.72-2-2.24-3.22-.81-1.91-1.32-3.91-1.77-5.94-.28-1.23-.36-2.48-.65-3.69-.41-1.69-.36-3.42-.62-5.12-.32-2.13-.27-4.25,.07-6.37,.32-1.97,.98-3.82,2.19-5.41,.65-.85,1.53-1.47,2.53-1.95,1.35-.66,2.77-.63,4.2-.76,.78-.07,1.55-.09,2.28,.09,1.95,.48,3.92,.9,5.78,1.7,.09,.04,.17,.1,.26,.15,.61,.36,1.18,.79,1.89,.11,.24-.24,.64-.31,1.01-.39,2-.43,3.99-.4,5.98,.07,.24,.06,.4,.23,.64,.31,.73,.22,1.42,.16,2.18,.04,2.36-.39,4.72-.21,7.06,.31,.77,.17,1.58,.33,2.28,.67,1.29,.62,2.57,1.29,3.62,2.32,.95,.93,1.83,1.9,2.36,3.14,.24,.56,.23,1.16,.25,1.74,.06,2.09-.37,4.12-1.08,6.06-.42,1.15-.74,2.37-1.35,3.44-.71,1.25-1.11,2.67-2,3.83-.21,.27-.33,.61-.48,.91-.53,1.04-1.2,2.02-1.9,2.94-.6,.78-1.01,1.73-1.82,2.36-.35,.28-.21,.4,.16,.61,1.31,.75,2.69,.33,4.04,.35,.41,0,.82-.04,1.22,0,.41,.05,.84,.12,1,.65,.16,.55,.08,1.02-.31,1.41-.41,.41-.88,.75-1.39,1.04-1.38,.76-2.86,1.08-4.43,1.06-1.02-.02-2.04-.06-3.04-.33-.39-.1-.59-.05-.68,.4-.18,.96-.35,1.94-.66,2.86-.59,1.78-.85,3.64-1.45,5.41-.82,2.42-2.48,3.84-5.05,4.16-.6,.07-1.22,.19-1.81,.2-1.48,.02-2.77-.55-3.78-1.68-1.29-1.43-1.45-3.17-1.41-4.97,.05-2.25,.32-4.48,.54-6.72,.02-.2,.04-.39,.08-.71Zm16.95-19.75c.03-.29,0-.53-.1-.75-.52-1.11-.83-2.31-1.5-3.36-.42-.66-.83-1.34-1.34-1.92-.52-.6-1.08-1.19-1.65-1.75-.81-.8-1.79-1.31-2.74-1.85-1.28-.73-2.74-1.03-4.21-1.23-2.65-.36-5.08,.06-7.1,2-.85,.82-1.51,1.76-2.08,2.77-.46,.82-.66,1.76-1.07,2.6-.37,.75-.45,1.54-.69,2.33,.38,0,.67-.11,.96-.21,1.06-.35,2.14-.57,3.28-.5,1.77,.11,3.22,1.21,3.44,2.85,.18,1.3,.26,2.63,.26,3.94,0,1.24-.2,2.46-.67,3.63-.4,1.01-.71,2.06-1.34,2.94-.53,.75-.81,1.58-1.2,2.38-.14,.28-.07,.39,.25,.43,.45,.06,.89,.19,1.22,.52,.79,.8,1.11,1.74,.94,2.87-.33,2.28-.57,4.58-.76,6.88-.15,1.8-.35,3.61,.26,5.38,.34,.99,.87,1.81,1.93,2.18,1.25,.43,2.49,.25,3.75,.04,.85-.14,1.6-.53,2.16-1.13,.59-.62,1.03-1.43,1.24-2.26,.87-3.46,1.81-6.9,2.46-10.41,.2-1.12,.73-1.97,1.88-2.3,.34-.09,.22-.22,.13-.43-.47-1.03-1.16-1.95-1.37-3.1-.03-.16-.1-.31-.18-.45-.51-.89-.76-1.89-1.15-2.83-.28-.67-.38-1.42-.64-2.1-.5-1.31-.57-2.66-.47-4.02,.15-2.15,1.7-3.38,3.78-3.37,.78,0,1.54,.13,2.32,.24Zm-25.4-12.31c-.2-.02-.41-.05-.61-.07-2.44-.16-4.66,.26-6.41,2.18-.95,1.04-1.46,2.29-1.82,3.57-.58,2.04-.73,4.14-.4,6.28,.26,1.68,.21,3.39,.55,5.08,.3,1.49,.45,3.01,.79,4.5,.6,2.63,1.17,5.24,2.73,7.52,.74,1.08,1.83,1.4,2.82,.56,.88-.74,1.67-1.58,2.54-2.33,.53-.45,.95-1.03,1.6-1.36,.42-.22,.44-.55,.03-.9-.63-.54-.89-1.31-1.14-2.02-.47-1.3-.44-2.69-.12-4.05,.37-1.55,.58-3.13,.7-4.72,.18-2.53,.52-5,1.61-7.34,.71-1.53,1.47-3,2.72-4.18,.24-.23,.66-.45,.69-.74,.04-.44-.56-.28-.8-.54-.13-.14-.34-.21-.53-.28-1.61-.55-3.25-.97-4.93-1.17Zm24.25,27.16c.26-.04,.46-.12,.56-.29,.43-.71,.99-1.32,1.44-2.01,.95-1.44,1.86-2.92,2.72-4.42,.57-1,1.02-2.06,1.49-3.11,.67-1.5,1.17-3.07,1.66-4.64,.35-1.13,.49-2.31,.54-3.5,.03-.75-.19-1.42-.57-2.06-.53-.91-1.24-1.66-2.02-2.36-1.19-1.07-2.6-1.76-4.09-2.28-1.9-.65-3.88-.76-5.87-.71-.15,0-.33-.04-.44,.18,.51,.49,1.21,.71,1.71,1.22,.71,.71,1.45,1.38,2.1,2.15,.45,.54,.89,1.11,1.23,1.69,.62,1.07,1.15,2.21,1.62,3.37,.6,1.49,.7,2.95,.31,4.47-.53,2.06-.87,4.14-.83,6.29,.03,1.53-.15,3.05-.75,4.5-.21,.52-.79,.82-.82,1.51Zm-14.93-8.83c.19-1.55,.16-2.94,.03-4.33-.13-1.38-.94-2.17-2.34-2.19-1.37-.02-2.68,.36-3.95,.85-.24,.09-.36,.35-.38,.64-.13,2.18-.48,4.34-.89,6.49-.38,1.96,.23,3.68,1.69,5.05,.63,.59,1.34,1.12,2.26,1.22,.19,.02,.34,.05,.47-.16,.68-1.09,1.1-2.31,1.81-3.4,.83-1.29,1.22-2.8,1.31-4.18Zm14.08,7.18c.56-.54,.75-1.21,.87-1.9,.14-.83,.22-1.66,.21-2.5-.02-1.7,.07-3.38,.5-5.04,.16-.63,.3-1.27,.45-1.9,.08-.31,.02-.49-.35-.54-.79-.1-1.57-.26-2.37-.16-.86,.11-1.87,.7-1.97,1.67-.05,.49-.12,.97-.1,1.46,.09,1.72,.69,3.28,1.26,4.88,.48,1.35,1.16,2.61,1.5,4.03Zm-21.81,5.15c.17,.4,.42,.55,.75,.65,2.06,.63,4,.69,5.75-.89,.73-.65,.92-1.21,.34-2.04-.32-.46-.68-.49-1.16-.19-.33,.21-.61,.48-.86,.76-.82,.9-1.83,1.41-3.05,1.51-.57,.05-1.13,.12-1.76,.19Zm28.27,.01c-1.31,.19-2.61,.15-3.9-.12-.49-.1-.95-.23-1.36-.59-.86-.76-2.05-.22-2.17,1.08-.03,.33,.01,.56,.37,.64,2.35,.54,4.66,.57,6.83-.7,.12-.07,.26-.14,.23-.3Z"/><path class="g" d="M1049.86,71.6c-.78-.11-1.54-.23-2.32-.24-2.08,0-3.63,1.22-3.78,3.37-.1,1.37-.02,2.72,.47,4.02,.26,.68,.36,1.43,.64,2.1,.4,.94,.64,1.94,1.15,2.83,.08,.14,.16,.3,.18,.45,.21,1.14,.91,2.07,1.37,3.1,.09,.21,.21,.33-.13,.43-1.16,.32-1.68,1.17-1.88,2.3-.64,3.51-1.58,6.95-2.46,10.41-.21,.83-.65,1.64-1.24,2.26-.56,.59-1.32,.98-2.16,1.13-1.25,.21-2.5,.39-3.75-.04-1.06-.37-1.59-1.19-1.93-2.18-.61-1.77-.4-3.58-.26-5.38,.19-2.3,.42-4.6,.76-6.88,.17-1.13-.15-2.07-.94-2.87-.33-.33-.77-.46-1.22-.52-.31-.04-.38-.15-.25-.43,.38-.8,.67-1.63,1.2-2.38,.62-.88,.94-1.94,1.34-2.94,.47-1.18,.67-2.4,.67-3.63,0-1.31-.08-2.64-.26-3.94-.22-1.64-1.67-2.73-3.44-2.85-1.14-.07-2.21,.15-3.28,.5-.29,.09-.57,.2-.96,.21,.24-.79,.32-1.58,.69-2.33,.41-.84,.6-1.77,1.07-2.6,.57-1.01,1.23-1.96,2.08-2.77,2.02-1.94,4.44-2.36,7.1-2,1.46,.2,2.93,.5,4.21,1.23,.94,.54,1.92,1.05,2.74,1.85,.57,.56,1.13,1.15,1.65,1.75,.5,.58,.92,1.26,1.34,1.92,.67,1.05,.98,2.25,1.5,3.36,.1,.22,.13,.47,.1,.75Z"/><path class="g" d="M1024.46,59.29c1.69,.2,3.33,.62,4.93,1.17,.19,.06,.4,.14,.53,.28,.24,.26,.84,.1,.8,.54-.03,.28-.44,.5-.69,.74-1.25,1.18-2,2.65-2.72,4.18-1.09,2.34-1.43,4.82-1.61,7.34-.12,1.59-.33,3.17-.7,4.72-.32,1.36-.35,2.74,.12,4.05,.25,.71,.51,1.48,1.14,2.02,.41,.35,.39,.68-.03,.9-.64,.33-1.07,.91-1.6,1.36-.87,.74-1.66,1.58-2.54,2.33-.99,.84-2.08,.52-2.82-.56-1.56-2.29-2.13-4.9-2.73-7.52-.34-1.49-.49-3.01-.79-4.5-.34-1.69-.29-3.4-.55-5.08-.33-2.14-.18-4.24,.4-6.28,.36-1.27,.87-2.53,1.82-3.57,1.75-1.93,3.98-2.34,6.41-2.18,.2,.01,.41,.04,.61,.07Z"/><path class="g" d="M1048.71,86.45c.04-.69,.61-.99,.82-1.51,.6-1.45,.78-2.97,.75-4.5-.04-2.15,.3-4.22,.83-6.29,.39-1.52,.29-2.98-.31-4.47-.47-1.17-1-2.3-1.62-3.37-.34-.58-.78-1.15-1.23-1.69-.65-.78-1.39-1.44-2.1-2.15-.51-.51-1.2-.73-1.71-1.22,.11-.22,.3-.18,.44-.18,1.99-.05,3.97,.06,5.87,.71,1.49,.51,2.9,1.2,4.09,2.28,.78,.7,1.49,1.45,2.02,2.36,.37,.64,.6,1.31,.57,2.06-.05,1.19-.19,2.37-.54,3.5-.49,1.57-1,3.14-1.66,4.64-.47,1.05-.92,2.11-1.49,3.11-.85,1.5-1.76,2.98-2.72,4.42-.45,.68-1.01,1.3-1.44,2.01-.11,.17-.3,.25-.56,.29Z"/><path class="g" d="M1033.78,77.63c-.09,1.38-.48,2.89-1.31,4.18-.7,1.09-1.13,2.31-1.81,3.4-.13,.21-.28,.18-.47,.16-.92-.1-1.63-.62-2.26-1.22-1.46-1.37-2.07-3.1-1.69-5.05,.41-2.15,.75-4.3,.89-6.49,.02-.3,.14-.55,.38-.64,1.27-.49,2.58-.87,3.95-.85,1.4,.02,2.21,.8,2.34,2.19,.13,1.38,.16,2.77-.03,4.33Zm-1.94-5.69c-.22-.03-.44-.02-.66,0-.5,.06-.55,.37-.42,.74,.27,.78,1.43,1.13,2.1,.64,.45-.33,.44-.77-.03-1.08-.3-.19-.64-.26-.98-.31Z"/><path class="g" d="M1047.86,84.81c-.34-1.42-1.02-2.69-1.5-4.03-.57-1.6-1.18-3.17-1.26-4.88-.03-.49,.05-.97,.1-1.46,.1-.97,1.11-1.56,1.97-1.67,.8-.1,1.58,.06,2.37,.16,.37,.05,.43,.23,.35,.54-.15,.63-.29,1.27-.45,1.9-.43,1.65-.51,3.34-.5,5.04,0,.84-.08,1.67-.21,2.5-.11,.69-.3,1.36-.87,1.9Zm-.65-10.06c.36,.06,.7-.09,.97-.27,.18-.12,.42-.36,.38-.65-.04-.34-.37-.33-.61-.39-.4-.1-.81-.08-1.2,.03-.53,.15-.63,.55-.24,.96,.19,.2,.44,.28,.7,.33Z"/><path class="g" d="M1026.05,89.96c.63-.07,1.19-.14,1.76-.19,1.22-.1,2.23-.61,3.05-1.51,.26-.28,.53-.55,.86-.76,.48-.3,.83-.27,1.16,.19,.58,.83,.39,1.38-.34,2.04-1.75,1.58-3.69,1.51-5.75,.89-.32-.1-.58-.25-.75-.65Z"/><path class="g" d="M1054.32,89.97c.03,.17-.11,.23-.23,.3-2.17,1.27-4.47,1.24-6.83,.7-.36-.08-.4-.3-.37-.64,.12-1.3,1.31-1.85,2.17-1.08,.41,.36,.87,.49,1.36,.59,1.29,.27,2.59,.31,3.9,.12Z"/><path class="f" d="M1031.84,71.93c.34,.05,.68,.12,.98,.31,.48,.31,.49,.75,.03,1.08-.67,.49-1.83,.14-2.1-.64-.13-.37-.07-.68,.42-.74,.22-.03,.44-.04,.66,0Z"/><path class="f" d="M1047.2,74.74c-.26-.05-.51-.13-.7-.33-.39-.41-.29-.81,.24-.96,.39-.11,.8-.13,1.2-.03,.24,.06,.57,.06,.61,.39,.04,.28-.2,.52-.38,.65-.27,.18-.6,.33-.97,.27Z"/></g><g><path class="d" d="M904.98,142.1l.06-1.66s-.02-.04-.02-.05c0-1.78-.29-3.51-.75-5.22-.3-1.11-.7-2.19-1.08-3.28-.15-.26-.28-.52-.38-.8-.67-1.09-1.34-2.18-2.02-3.28l-.46-.56c-.3-.09-.56-.28-.7-.54-.65-1.2-1.72-2.01-2.64-2.96-.03-.03-.06-.07-.09-.11h-.01c-1.05-.68-2.07-1.4-3.09-2.13-1.11-.48-2.22-.95-3.31-1.48-.15-.02-.29-.1-.45-.08-.16,.13-.22,.03-.27-.11-.07-.02-.14-.05-.21-.07-1.18-.27-2.37-.51-3.57-.69-2.07-.32-4.14-.4-6.21,.02-.94,.19-1.87,.39-2.82,.5l-.12,.03c-.14,.33-.4,.48-.75,.49-.23,0-.47,.03-.7,.04-.84,.42-1.7,.79-2.56,1.16-.65,.4-1.31,.81-1.96,1.21-.04,.02-.09,.02-.13,.03-.12,.25-.39,.34-.59,.5-.66,.57-1.37,1.09-2.06,1.62-.02,.02-.05,.02-.07,.04-.22,.27-.39,.56-.58,.85-.13,.2-.3,.36-.56,.39-.33,.26-.56,.62-.81,.94-1.08,1.4-2,2.92-2.86,4.46-.03,.05-.06,.1-.09,.14-.24,.76-.48,1.51-.73,2.27-.23,.7-.46,1.4-.69,2.1l-.35,1.84c-.37,2.96-.08,5.89,.56,8.79,.02,.09,.03,.18,.05,.28,.38,.96,.75,1.92,1.13,2.88l.26,.61c.67,1.09,1.33,2.18,2,3.27,.41,.51,.82,1.03,1.22,1.54,.36,.21,.59,.54,.81,.89,.06,.1,.16,.19,.25,.27,.65,.6,1.33,1.17,2.03,1.72,.87,.68,1.78,1.3,2.68,1.94,1.19,.48,2.37,1,3.54,1.53,.41,.1,.82,.18,1.21,.33,1.9,.39,3.81,.69,5.74,.88,.62-.07,1.24-.03,1.86-.05,2.15-.22,4.22-.8,6.24-1.58,1.01-.39,2-.84,3-1.27,1.77-1.15,3.31-2.59,4.9-3.97,.14-.39,.43-.67,.75-.9,.57-.42,1.04-.93,1.42-1.53,.26-.41,.52-.81,.77-1.22,.56-.91,1.02-1.87,1.54-2.8l.77-2.29c.42-1.62,.68-3.27,.89-4.92Zm-22.84-1.76c-.12,.46-.33,.63-.81,.62-.28,0-.55-.04-.82-.09-1.6-.3-3.21-.59-4.81-.88-1.69-.31-3.38-.62-5.06-.92-.59-.11-.73,0-.78,.6-.1,1.18-.02,2.33,.6,3.38,.62,1.04,1.6,1.61,2.69,2.03,1.53,.59,2.99,.39,4.38-.44,.23-.14,.41-.32,.54-.56,.35-.68,.82-.9,1.56-.77,.4,.07,.79,.19,1.2,.24,.31,.04,.38,.17,.33,.47-.06,.42-.23,.78-.53,1.08-2.36,2.35-5.14,3.19-8.39,2.35-2.04-.53-3.36-1.9-4.25-3.74-.48-1-.87-2.03-.84-3.15,.03-1.15,0-2.32,.3-3.44,.8-2.93,2.39-5.2,5.43-6.17,1.88-.6,3.68-.3,5.43,.53,2.51,1.19,3.65,3.26,3.89,5.93,.08,.86,.07,1.72,0,2.58,0,.12-.03,.24-.06,.36Zm14.33,11.42c-.73-.13-1.45-.27-2.18-.39-.35-.06-.54-.26-.68-.57-.72-1.66-1.44-3.32-2.17-4.97-.33-.75-.64-1.52-1.05-2.27-.57,.57-1.12,1.14-1.68,1.7-1.13,1.13-2.25,2.28-3.33,3.45-.48,.52-1.05,.92-1.8,.73-.68-.17-1.36-.33-2.06-.41-.17-.02-.14-.11-.08-.21,.16-.3,.36-.56,.61-.78,1.66-1.46,3.18-3.05,4.78-4.58,.56-.54,1.13-1.07,1.69-1.6,.39-.38,.48-.69,.24-1.14-.93-1.76-1.68-3.61-2.68-5.33-.55-.94-.94-1.94-1.31-3.02,.7,.19,1.38,.22,2.06,.29,.82,.09,1.4,.57,1.83,1.26,.27,.45,.47,.93,.65,1.42,.49,1.37,1.15,2.66,1.74,3.98,.1,.21,.19,.11,.29,.03,.89-.64,1.64-1.43,2.35-2.26,.5-.58,.99-1.17,1.6-1.64,1.25-.97,2.58-1.02,3.98-.36,.16,.07,.16,.14,.08,.28-.32,.57-.82,.98-1.3,1.41-1.64,1.46-3.28,2.92-4.92,4.38-.35,.31-.43,.62-.24,1.02,1.02,2.1,1.84,4.3,2.9,6.39,.27,.53,.53,1.07,.86,1.57,.34,.53,.46,1.11,.56,1.75-.26-.05-.49-.09-.73-.13Z"/><path class="d" d="M877.66,133.98c-.92-.83-2.01-1.06-3.19-.87-1.08,.17-2.01,.65-2.81,1.39-.5,.46-.89,.99-1.09,1.63-.18,.57-.09,.71,.49,.82,1.31,.24,2.63,.48,3.94,.72h0c.58,.1,1.16,.21,1.73,.32,.78,.14,1.56,.3,2.35,.44,.33,.06,.44-.04,.51-.37,.08-.4,.06-.79-.05-1.18-.33-1.15-1-2.09-1.88-2.89Z"/></g><g><path class="d" d="M147.8,134.03h25.59c0,.05,.05,.04,.08,.05,.35,.02,.69,.09,1.04,.17,.67,.15,1.31,.38,1.92,.69,.49,.25,.95,.54,1.39,.88,.56,.45,1.06,.95,1.5,1.52,.42,.55,.77,1.16,1.04,1.8,.32,.76,.53,1.55,.62,2.37,.02,.14,0,.29,.04,.43,0,.04,0,.07,0,.11,0,8.14,0,16.28,0,24.42,0,.16,0,.32,0,.48-.05,.13-.02,.27-.04,.41-.07,.64-.21,1.27-.42,1.88-.27,.77-.63,1.48-1.11,2.15-.36,.49-.76,.94-1.21,1.35-.42,.38-.88,.72-1.38,1-1.03,.6-2.14,.97-3.32,1.1-.11,.01-.23,0-.34,.04-.04,0-.07,0-.11,0-8.28,0-16.57,0-24.85,0-.07,0-.13,0-.2,0-.02-.02-.04-.02-.07-.02-.56-.02-1.11-.13-1.65-.28-.69-.19-1.34-.47-1.96-.83-.45-.26-.88-.57-1.28-.92-.42-.38-.82-.78-1.16-1.23-.35-.46-.65-.94-.9-1.46-.26-.54-.46-1.09-.6-1.67-.09-.36-.15-.72-.19-1.08-.01-.1,0-.21-.04-.31,0-.04,0-.08,0-.12,0-8.3,0-16.61,0-24.91,0-.07,0-.13,0-.2,.03-.03,.02-.07,.02-.1,.02-.17,.03-.35,.05-.52,.07-.46,.18-.9,.32-1.35,.17-.52,.38-1.02,.64-1.5,.22-.4,.48-.77,.76-1.13,.44-.57,.95-1.07,1.52-1.5,.55-.42,1.15-.77,1.79-1.03,.78-.32,1.58-.54,2.42-.62,.03,0,.08,0,.08-.05Zm12.79,39.72c3.98,0,7.97,0,11.95,0,.87,0,1.71-.13,2.53-.42,1.54-.55,2.77-1.52,3.66-2.89,.79-1.21,1.17-2.56,1.17-4.01,0-7.98,0-15.97,0-23.95,0-1.31-.32-2.53-.96-3.67-.52-.91-1.2-1.68-2.05-2.28-1.29-.93-2.74-1.38-4.33-1.38-7.97,0-15.93,0-23.9,0-1.14,0-2.23,.24-3.26,.74-1.15,.56-2.09,1.37-2.81,2.42-.86,1.25-1.28,2.65-1.28,4.17,0,7.99,0,15.97,0,23.96,0,1.21,.27,2.36,.83,3.43,.81,1.53,2.02,2.64,3.61,3.32,.93,.4,1.9,.57,2.9,.57,3.98,0,7.96,0,11.94,0Z"/><path class="d" d="M163.68,152.18c.19,.37,.32,.76,.48,1.15,.24,.6,.52,1.19,.79,1.78,.36,.79,.78,1.56,1.14,2.35,.08,.17,.18,.33,.29,.48,.09,.13,.24,.17,.37,.22,.52,.2,1.03,.44,1.54,.68,.67,.31,1.26,.76,1.85,1.2,.49,.36,.97,.75,1.43,1.15,.16,.14,.3,.3,.43,.47,.13,.17,.25,.34,.39,.49,.09,.1,.07,.19-.06,.22-.52,.16-1.05,.31-1.6,.34-.47,.03-.91,.16-1.36,.28-.16,.04-.32,.08-.49,.1-.08,0-.09,.03-.05,.1,.12,.25,.32,.43,.54,.59,.34,.26,.72,.45,1.07,.68,.79,.5,1.47,1.12,2.05,1.85,.12,.16,.28,.29,.42,.43,.1,.1,.17,.21,.21,.34,.04,.11,.09,.21,.16,.32-.13-.02-.2-.1-.28-.16-.5-.45-1.04-.85-1.62-1.19-.43-.25-.91-.43-1.36-.66-.71-.37-1.37-.82-1.93-1.41-.26-.28-.49-.59-.62-.96-.02-.05-.04-.09-.07-.14-.07-.12-.06-.21,.06-.29,.03-.03,.07-.05,.11-.06,.44-.13,.85-.32,1.3-.42,.58-.13,1.17-.19,1.77-.2,.19,0,.38,0,.57,0,.09,0,.11-.02,.06-.1-.08-.14-.19-.24-.31-.34-.36-.28-.77-.49-1.13-.76-.43-.32-.86-.61-1.31-.89-.34-.21-.73-.3-1.1-.45-.39-.16-.8-.27-1.19-.4-.4-.13-.68-.36-.9-.72-.36-.61-.66-1.26-.94-1.9-.3-.67-.63-1.32-.94-1.98-.22-.46-.37-.94-.57-1.39-.32-.74-.76-1.41-1.22-2.07-.87-1.24-1.91-2.32-3.12-3.24-.92-.7-1.9-1.3-2.98-1.72-.44-.17-.89-.28-1.36-.28-.38,0-.75-.09-1.12-.09-.15,0-.28-.1-.38-.2-.57-.54-1.27-.85-1.97-1.16-.24-.1-.48-.19-.73-.25-.14-.03-.28-.05-.42,0-.29,.12-.41,.36-.32,.68,.11,.38,.32,.7,.56,1,.4,.5,.79,1,1.12,1.55,.28,.45,.44,.95,.6,1.45,.22,.68,.4,1.38,.72,2.03,.23,.46,.49,.9,.88,1.26,.27,.24,.36,.55,.27,.92-.1,.4-.26,.79-.4,1.18-.29,.84-.36,1.71-.31,2.59,.05,.88,.25,1.73,.65,2.53,.14,.27,.31,.51,.61,.62,.13,.05,.17,.03,.19-.11,.06-.48,.09-.95,.18-1.43,.09-.5,.2-1,.51-1.43,.17-.23,.36-.45,.53-.68,.04-.05,.07-.04,.1,0,.04,.05,.07,.1,.08,.16,.12,.49,.34,.93,.54,1.38,.64,1.37,1.4,2.67,2.31,3.88,.29,.39,.62,.75,1.01,1.05,.06,.04,.11,.1,.15,.17-.19-.06-.36-.17-.5-.32-.52-.56-1.16-.99-1.71-1.52-.41-.4-.81-.83-1.12-1.31-.19-.29-.32-.62-.48-.93-.09-.19-.19-.37-.28-.56-.06,.03-.06,.08-.07,.13-.08,.45-.17,.9-.22,1.36-.02,.19-.07,.37-.14,.55-.24,.57-.93,.76-1.47,.4-.31-.2-.54-.49-.74-.79-.45-.7-.69-1.48-.81-2.3-.13-.86-.11-1.71,.03-2.57,.06-.37,.18-.72,.27-1.08,.07-.28,.1-.56,.21-.83,.02-.04,.03-.09,.05-.12,.13-.18,.06-.27-.06-.42-.09-.12-.22-.2-.31-.32-.48-.7-.84-1.46-1.12-2.26-.15-.42-.34-.83-.43-1.27-.14-.7-.56-1.25-.97-1.8-.3-.4-.64-.77-.9-1.21-.2-.34-.36-.7-.36-1.1,0-.77,.54-1.34,1.3-1.39,.44-.03,.85,.07,1.26,.21,.62,.22,1.2,.51,1.74,.88,.18,.12,.33,.27,.5,.4,.11,.09,.24,.14,.39,.15,.36,.01,.71,.03,1.07,.07,.31,.04,.62,.14,.93,.21,.78,.17,1.44,.57,2.1,.99,.89,.57,1.75,1.19,2.53,1.9"/><path class="d" d="M153.43,147.33c.21-.06,.42-.08,.63-.08,.02,0,.04,0,.06,.01,.21,.17,.44,.3,.56,.58,.08,.17,.08,.32,.05,.49-.04,.2-.13,.36-.29,.49-.06,.05-.07,.02-.09-.03-.09-.19-.19-.38-.27-.57-.07-.16-.16-.29-.28-.41-.14-.14-.26-.3-.36-.48Z"/></g><g><path class="d" d="M584.68,66.38c.15,.18,.18-.03,.22-.09,.52-.84,1.28-1.08,2.21-.92,1.27,.21,2.54,.41,3.82,.61,11.41,1.82,22.82,3.63,34.23,5.45,1.49,.24,2.98,.33,4.48,.06,.42-.08,.55-.19,.38-.68-.94-2.67-.5-5.18,.99-7.54,.49-.78,1.13-1.44,1.74-2.12,.26-.29,.44-.25,.72-.03,2.13,1.72,3.34,3.93,3.51,6.67,.02,.38,.12,.48,.5,.49,1.65,.03,3.26,.28,4.78,.97,.79,.35,1.52,.79,2.1,1.45,.07,.08,.12,.33,.32,.13l-.11,.69s-.04-.08-.06-.08c-.03,0-.08,.02-.1,.05-.54,.92-1.23,1.7-2.09,2.33-2.17,1.57-4.6,1.93-7.18,1.52-.4-.06-.62,.01-.84,.38-.88,1.52-1.88,2.96-2.95,4.35-4.76,6.15-10.99,9.74-18.71,10.7-5.79,.71-11.44,.02-16.96-1.8-2.3-.76-4.5-1.78-6.35-3.39-2.64-2.29-3.98-5.3-4.65-8.64-.46-2.29-.54-4.6-.37-6.93,.01-.17,.19-.42-.14-.51l.5-3.12Z"/><path class="d" d="M615.09,50.24c.1-.6,.18-1.2,.29-1.79,.14-.76,.65-1.2,1.39-1.1,1.26,.16,2.51,.36,3.75,.6,.74,.14,1.11,.72,1,1.47-.17,1.2-.36,2.39-.57,3.58-.13,.77-.68,1.2-1.46,1.1-1.22-.16-2.43-.36-3.64-.58-.79-.15-1.15-.7-1.06-1.49,0-.04,.01-.08,.02-.12,.09-.56,.18-1.12,.27-1.67Z"/><path class="d" d="M599.11,55.29c.09-.6,.18-1.2,.29-1.79,.15-.79,.66-1.21,1.45-1.11,1.24,.16,2.47,.36,3.7,.59,.74,.14,1.12,.72,1.01,1.47-.17,1.2-.36,2.39-.57,3.58-.13,.78-.68,1.21-1.45,1.11-1.24-.16-2.47-.36-3.7-.59-.75-.14-1.1-.71-1-1.47,.08-.6,.19-1.19,.28-1.79Z"/><path class="d" d="M612.67,57.47c-.09,.58-.17,1.16-.28,1.73-.15,.8-.69,1.23-1.5,1.12-1.2-.16-2.39-.35-3.58-.57-.81-.15-1.19-.71-1.07-1.53,.17-1.18,.36-2.35,.56-3.52,.14-.81,.68-1.23,1.49-1.12,1.2,.16,2.39,.35,3.58,.57,.8,.15,1.19,.72,1.08,1.53-.08,.6-.19,1.19-.28,1.79Z"/><path class="d" d="M613.92,57.62c.1-.6,.18-1.2,.29-1.79,.14-.75,.66-1.18,1.41-1.08,1.24,.16,2.47,.36,3.7,.59,.77,.14,1.15,.73,1.04,1.51-.17,1.18-.36,2.35-.56,3.52-.14,.81-.68,1.24-1.49,1.13-1.2-.16-2.39-.35-3.58-.57-.82-.15-1.19-.7-1.09-1.52,0-.04,.01-.08,.02-.12,.09-.56,.18-1.12,.27-1.68h0Z"/><path class="d" d="M596.68,62.5c-.09,.58-.17,1.16-.28,1.73-.14,.79-.66,1.23-1.44,1.13-1.24-.16-2.47-.36-3.7-.59-.76-.14-1.14-.7-1.03-1.45,.17-1.22,.37-2.43,.58-3.64,.13-.75,.66-1.17,1.42-1.07,1.24,.16,2.47,.36,3.7,.59,.77,.14,1.14,.73,1.03,1.51-.08,.6-.19,1.19-.28,1.79Z"/><path class="d" d="M604.09,63.69c-.09,.58-.17,1.16-.28,1.73-.14,.78-.67,1.23-1.44,1.12-1.24-.16-2.47-.36-3.7-.59-.75-.14-1.13-.7-1.02-1.45,.17-1.22,.37-2.43,.58-3.64,.13-.75,.66-1.17,1.42-1.07,1.24,.16,2.47,.36,3.7,.59,.77,.14,1.13,.73,1.02,1.51-.08,.6-.19,1.19-.28,1.79Z"/><path class="d" d="M611.49,64.85c-.09,.58-.17,1.16-.28,1.73-.14,.79-.66,1.24-1.43,1.14-1.26-.16-2.51-.36-3.75-.6-.72-.14-1.08-.7-.98-1.43,.17-1.22,.37-2.43,.58-3.64,.13-.76,.65-1.18,1.41-1.08,1.24,.16,2.47,.36,3.7,.59,.77,.14,1.14,.72,1.04,1.5-.08,.6-.19,1.19-.28,1.79Z"/><path class="d" d="M612.74,65.04c.1-.6,.18-1.2,.29-1.79,.15-.78,.67-1.2,1.45-1.1,1.22,.16,2.43,.36,3.64,.58,.8,.15,1.18,.73,1.06,1.55-.17,1.16-.36,2.31-.55,3.47-.14,.84-.69,1.27-1.53,1.15-1.18-.16-2.35-.35-3.52-.56-.85-.15-1.22-.7-1.11-1.56,.08-.58,.18-1.16,.27-1.73Z"/><path class="d" d="M626.29,67.23c-.09,.58-.17,1.16-.28,1.73-.15,.8-.69,1.23-1.5,1.12-1.2-.16-2.39-.35-3.58-.57-.81-.15-1.19-.71-1.07-1.53,.17-1.18,.36-2.35,.56-3.52,.14-.81,.68-1.23,1.49-1.12,1.2,.16,2.39,.35,3.58,.57,.8,.15,1.19,.72,1.08,1.53-.08,.6-.19,1.19-.28,1.79Z"/></g><g><path class="d" d="M884.83,21.19c.04-3.92,1.06-7.4,2.97-10.62,1.76-2.97,4.09-5.4,7.01-7.24,2.26-1.43,4.72-2.39,7.33-2.94,1.82-.38,3.66-.47,5.51-.31,2.73,.24,5.32,.98,7.78,2.19,2.58,1.27,4.86,2.97,6.79,5.1,2.51,2.78,4.19,5.99,4.87,9.69,.35,1.91,.58,3.85,.44,5.8-.17,2.47-.78,4.83-1.79,7.08-1.25,2.77-3,5.18-5.23,7.25-2,1.85-4.26,3.29-6.82,4.26-1.95,.74-3.96,1.13-6.05,1.24-1.23,.06-2.45,.11-3.67,0-2.46-.23-4.78-.91-6.99-1.99-2.98-1.46-5.51-3.49-7.58-6.08-1.93-2.41-3.3-5.12-4-8.14-.28-1.21-.43-2.44-.49-3.69-.03-.59-.07-1.17-.09-1.6Zm31.52-14.37h0l-.02,.07s-.08,.04-.11,.06c-1.85,1.44-3.68,2.91-5.48,4.4-3.35,2.77-6.7,5.55-10.05,8.32-.18,.15-.37,.31-.61,.51,2.49,0,4.89,0,7.3,0,.2,0,.29-.07,.4-.23,1.03-1.58,2.07-3.16,3.11-4.73,1.83-2.77,3.66-5.54,5.48-8.31,.03-.05,.04-.08-.03-.1Zm-20.31,29.14s.08-.04,.11-.07c2.69-2.09,5.33-4.26,7.95-6.44,2.65-2.2,5.29-4.42,7.96-6.59,.05-.04,.15-.07,.13-.21-2.41,0-4.82,0-7.22,0-.2,0-.3,.07-.4,.22-2.45,3.72-4.91,7.43-7.36,11.15-.41,.62-.81,1.25-1.21,1.88l-.03,.05h.07Z"/><path class="d" d="M916.35,6.82h0Z"/><path class="d" d="M916.33,6.89s.01-.05,.02-.07h0c.07,.02,.06,.06,.03,.1l-.04-.03Z"/><path class="d" d="M896.04,35.96h-.07l.03-.05,.04,.05Z"/></g><path class="d" d="M64.29,74.25c0,.56,0,1.11,0,1.67,0,.16,.04,.22,.2,.27,2.55,.74,4.14,2.41,4.64,5.01,.68,3.54-1.96,6.96-5.56,7.3-3.37,.32-6.37-2.02-6.86-5.37-.46-3.13,1.57-6.16,4.66-6.95,.17-.04,.22-.1,.22-.27,0-1.13,0-2.26,0-3.38,0-.14-.03-.19-.18-.23-3.02-.66-5.1-2.44-6.16-5.34-1.26-3.47,.22-7.56,3.39-9.48,.84-.51,1.73-.88,2.69-1.06,.16-.03,.21-.1,.21-.26,0-1.05,0-2.1,0-3.15,0-.17-.04-.23-.21-.28-2.6-.79-4.18-2.52-4.61-5.2-.53-3.29,1.84-6.49,5.13-7.03,3.37-.55,6.47,1.51,7.24,4.82,.76,3.29-1.33,6.66-4.63,7.45-.17,.04-.22,.1-.22,.28,0,1.03,0,2.07,0,3.1,0,.16,.03,.22,.2,.26,1.87,.36,3.44,1.26,4.68,2.71,.13,.15,.2,.14,.35,.03,.86-.61,1.73-1.22,2.6-1.82,.13-.09,.14-.17,.1-.31-.75-2.85,.57-5.81,3.19-7.16,3.72-1.93,8.28,.28,9.07,4.4,.68,3.55-1.84,7-5.42,7.4-2.09,.24-3.87-.43-5.34-1.93-.11-.12-.18-.12-.3-.03-.87,.62-1.75,1.24-2.63,1.85-.11,.08-.14,.14-.09,.27,.57,1.7,.57,3.41-.01,5.11-.05,.14-.02,.22,.11,.31,.87,.61,1.74,1.22,2.61,1.84,.13,.09,.19,.1,.32-.02,1.77-1.79,3.9-2.43,6.32-1.73,2.41,.7,3.91,2.36,4.43,4.82,.72,3.41-1.67,6.82-5.11,7.37-3.37,.54-6.44-1.53-7.21-4.86-.22-.96-.2-1.93,.06-2.88,.04-.15,.03-.23-.11-.33-.89-.62-1.77-1.24-2.65-1.87-.13-.1-.2-.07-.3,.05-1.21,1.39-2.72,2.29-4.53,2.65-.22,.04-.29,.12-.28,.35,.02,.54,0,1.08,0,1.62Zm2.89-9.89c0-2.35-1.9-4.25-4.23-4.25-2.36,0-4.26,1.9-4.26,4.27,0,2.3,1.93,4.22,4.25,4.21,2.34,0,4.25-1.91,4.25-4.24Zm11.04-5.89c1.65,.02,3.05-1.33,3.06-2.96,.02-1.71-1.31-3.11-2.97-3.12-1.73-.02-3.11,1.32-3.12,3.02-.01,1.68,1.34,3.04,3.03,3.06Zm-15.28-14.83c-1.68,0-3.05,1.35-3.05,3.01,0,1.7,1.35,3.06,3.05,3.06,1.67,0,3.05-1.37,3.05-3.05,0-1.67-1.37-3.03-3.04-3.03Zm15.3,32.74c1.67,0,3.04-1.36,3.04-3.03,0-1.7-1.36-3.05-3.06-3.05-1.68,0-3.03,1.37-3.03,3.06,0,1.65,1.38,3.01,3.05,3.01Zm-15.3,8.93c1.68,0,3.05-1.37,3.04-3.05,0-1.66-1.36-3.02-3.01-3.03-1.72,0-3.08,1.35-3.08,3.06,0,1.66,1.37,3.02,3.05,3.02Z"/><g><path class="d" d="M208.68,54.31c-1.07,6.59-2.15,13.18-3.22,19.77-.04,.26-.09,.32-.37,.28-13.18-2.16-26.36-4.31-39.54-6.45-.29-.05-.32-.13-.28-.4,2.16-13.17,4.3-26.33,6.44-39.5,.04-.27,.09-.34,.39-.29,13.18,2.16,26.36,4.31,39.54,6.45,.28,.05,.31,.12,.26,.38-1.08,6.59-2.16,13.18-3.23,19.77Zm-7.39-13.55c-.12,.06-.24,.11-.36,.17-4.43,2.41-9.05,4.32-13.95,5.53-1.8,.44-3.64,.69-5.41,1.25-1.29,.4-2.51,.94-3.47,1.93-1.8,1.85-1.99,4.82-1.25,6.88,0,.01,.04,.01,.09,.02,.21-1.15,.91-1.95,1.85-2.6,1.16-.8,2.38-1.48,3.65-2.08,4.5-2.13,8.99-4.3,13.18-7,1.96-1.26,3.89-2.57,5.71-4.03l.02-.09-.08,.02Zm3.58-1.7l-.04-.05c-.09,.07-.19,.14-.27,.22-3.31,2.86-6.88,5.35-10.63,7.59-3.64,2.18-7.46,4.01-11.29,5.82-1.48,.7-2.91,1.47-4.14,2.56-1.14,1.02-1.28,2.7-.29,3.84,1.49,1.7,3.41,2.37,5.63,2.11,2.17-.25,4.03-1.24,5.7-2.6,2.55-2.07,4.69-4.54,6.71-7.12,2.15-2.75,4.05-5.68,6.01-8.57,.87-1.28,1.75-2.54,2.62-3.81Z"/><path class="d" d="M201.29,40.76l.08-.02-.02,.09-.06-.07Z"/></g><path class="d" d="M27.25,140.01c.13,.04,.25,.02,.36-.04,.5-.01,1-.07,1.49-.17,.1,.04,.19,.03,.28-.03,1.06-.08,2.11-.2,3.16-.36,.13,.04,.25,.02,.36-.04,.66-.02,1.32-.11,1.97-.28l2.11,.06h0c.05,.04,.11,.09,.18,.06,.56,.14,1.13,.29,1.67,.5l.09,.02c.26,.15,.52,.32,.81,.39,1.85,1.21,3.01,2.91,3.6,5.03,.04,.72,.02,1.45,.33,2.15-.07,.94,.03,1.87,.3,2.77-.05,.9,.05,1.78,.3,2.64-.05,.9,.05,1.78,.3,2.64-.05,.9,.05,1.78,.3,2.64-.05,.9,.05,1.78,.3,2.64-.05,.9,.05,1.78,.3,2.64-.05,.9,.05,1.78,.3,2.64-.05,.82,.03,1.62,.24,2.4,.02,.66,.05,1.31,.07,1.97-.07,1.22-.41,2.38-.98,3.48-.32,.45-.65,.91-.97,1.36-.49,.4-.99,.81-1.48,1.21l-1.86,.94-2.06,.29-1.32,.15-1.32,.15-1.32,.15-1.32,.15-1.32,.15-1.32,.15-1.32,.15-1.32,.15-1.32,.15-1.32,.15-1.32,.15-1.32,.15-1.32,.15-1.32,.15-1.32,.15-1.32,.15-1.32,.15-1.63,.08c-1.4-.21-2.74-.58-3.88-1.43l-.19-.15c-.44-.38-.88-.78-1.25-1.23l-.03-.02-.95-1.39c-.45-1.01-.61-2.08-.73-3.15-.31-2.67-.61-5.33-.93-8-.02-.15,.05-.33-.12-.44h0s.02-.1-.03-.14h.04l.02-.03c-.19-1.67-.37-3.35-.56-5.02,0-.03-.05-.06-.08-.09h0s.02-.09-.03-.13h.04l.02-.04c-.09-1.11-.21-2.21-.38-3.31,0-.03-.03-.04-.06-.03,.03-.06,.02-.1-.03-.14h.04l.02-.03c-.02-.51-.08-1.02-.17-1.52,.03-.1,.02-.19-.03-.28-.07-.67-.12-1.35-.21-2.02-.2-1.49-.37-2.98,.07-4.47h0l.07-.19c.34-.96,.86-1.82,1.47-2.64l1.85-1.65c.21,.14,.27-.02,.38-.08,.08,.01,.12-.04,.16-.1l.09-.02,1.28-.49c.42-.03,.83-.11,1.23-.21,.5-.01,1-.07,1.49-.17,.1,.04,.19,.03,.28-.03,1.06-.08,2.11-.2,3.16-.36,.13,.04,.25,.02,.36-.04,.5-.01,1-.07,1.49-.17,.1,.04,.19,.03,.28-.03,1.06-.08,2.11-.2,3.16-.36,.13,.04,.25,.02,.36-.04,.5-.01,1-.07,1.49-.17,.1,.04,.19,.03,.28-.03,1.06-.08,2.11-.2,3.16-.36Zm-2.76,18.56l1.32-.15,1.32-.15c.41-.04,.82-.08,1.23-.13,.95-.11,1.46-.8,1.31-1.75,.04-.54-.16-.96-.59-1.27-.27-.31-.63-.33-1-.32l-1.32,.15-1.32,.15-1.32,.15c-.56,.09-1.16-.01-1.65,.36l-.17,.12c-.6,.49-.58,1.15-.34,1.87-.08,.15-.02,.22,.06,.28,.15,.37,.4,.62,.79,.72,.11,.09,.24,.1,.37,.11l1.32-.15Zm-11.55-6.87l1.44,1.14s.02,.03,.04,.03c.09,.15-.11,.18-.12,.29-.35,.36-.65,.76-.89,1.2-.37,.34-.7,.72-.97,1.14l-.33,.41c-.32,.4-.72,.75-.91,1.25-.22,.54-.12,1.04,.25,1.48,.2,.29,.48,.47,.81,.56,.46,.25,1.28,.02,1.59-.38,1.18-1.51,2.37-3.01,3.56-4.51,.13-.1,.23-.23,.3-.38l1.19-1.59-.52-.38-1.07-.85-.4-.32-1.07-.85-.4-.32-1.47-1.17c-.38-.38-.89-.62-1.28-.98-.48-.45-.98-.52-1.56-.33-.36,.16-.66,.38-.81,.76-.36,.46-.32,.94-.09,1.44,.24,.56,.8,.78,1.22,1.15l1.5,1.19Z"/></g></g></g></svg>